<?xml version="1.0" encoding="utf-8"?>
<!-- Generator: Adobe Illustrator 16.0.0, SVG Export Plug-In . SVG Version: 6.00 Build 0)  -->
<!DOCTYPE svg PUBLIC "-//W3C//DTD SVG 1.1//EN" "http://www.w3.org/Graphics/SVG/1.1/DTD/svg11.dtd">
<svg version="1.1" id="Layer_1" xmlns="http://www.w3.org/2000/svg" xmlns:xlink="http://www.w3.org/1999/xlink" x="0px" y="0px"
	 width="543.846px" height="80.667px" viewBox="0 0 543.846 80.667" enable-background="new 0 0 543.846 80.667"
	 xml:space="preserve">
<text transform="matrix(1 0 0 1 62.1162 76.1162)"><tspan x="0" y="0" fill="#FFFFFF" font-family="'Garamond'" font-size="82">Cr</tspan><tspan x="79.438" y="0" fill="#FFFFFF" font-family="'Garamond'" font-size="82" letter-spacing="-1">o</tspan><tspan x="120.212" y="0" fill="#FFFFFF" font-family="'Garamond'" font-size="82">w</tspan><tspan x="173.964" y="0" fill="#FFFFFF" font-family="'Garamond'" font-size="82">d</tspan><tspan x="214.964" y="0" fill="#FFFFFF" font-family="'Garamond'" font-size="82" letter-spacing="-4">T</tspan><tspan x="261.354" y="0" fill="#FFFFFF" font-family="'Garamond'" font-size="82">ransfer</tspan></text>
<text transform="matrix(1 0 0 1 482.6816 76.1162)" fill="#FFFFFF" font-family="'Garamond'" font-size="71.6226"> </text>
<path fill-rule="evenodd" clip-rule="evenodd" fill="#FFFFFF" d="M55.416,42.425c-1.544-0.891-3.342-1.144-5.244-0.878
	c0.908,0.142,1.773,0.42,2.568,0.878c5.629,3.258,5.809,13.515,0.385,22.904c-3.939,6.824-9.742,11.295-14.786,12
	c5.533,0.864,12.803-3.927,17.461-12C61.224,55.939,61.054,45.683,55.416,42.425z"/>
<path fill-rule="evenodd" clip-rule="evenodd" fill="#FFFFFF" d="M47.558,42.425c-1.664-0.959-3.621-1.185-5.688-0.809
	c0.753,0.16,1.473,0.421,2.144,0.809c5.639,3.258,5.809,13.515,0.385,22.904c-3.822,6.625-9.402,11.033-14.341,11.931
	c5.58,1.186,13.108-3.652,17.886-11.931C53.365,55.939,53.196,45.683,47.558,42.425z"/>
<path fill-rule="evenodd" clip-rule="evenodd" fill="#FFFFFF" d="M39.699,42.425c-1.751-1.01-3.824-1.223-6.012-0.759
	c0.688,0.163,1.35,0.403,1.967,0.759c5.638,3.258,5.807,13.515,0.385,22.904c-3.738,6.478-9.161,10.853-14.018,11.881
	c5.599,1.332,13.234-3.512,18.063-11.881C45.508,55.939,45.338,45.683,39.699,42.425z"/>
<path fill-rule="evenodd" clip-rule="evenodd" fill="#FFFFFF" d="M31.841,42.425c-1.893-1.091-4.163-1.236-6.546-0.618
	c0.505,0.159,0.998,0.351,1.462,0.618c5.638,3.258,5.808,13.515,0.385,22.904c-3.604,6.243-8.767,10.515-13.484,11.739
	c5.635,1.764,13.589-3.114,18.567-11.739C37.65,55.939,37.479,45.683,31.841,42.425z"/>
<path fill-rule="evenodd" clip-rule="evenodd" fill="#FFFFFF" d="M23.982,42.425c-5.638-3.25-14.596,1.726-20.02,11.126
	c-5.433,9.388-5.254,19.643,0.385,22.9c5.63,3.25,14.598-1.724,20.02-11.122C29.792,55.939,29.621,45.683,23.982,42.425z"/>
<path fill-rule="evenodd" clip-rule="evenodd" fill="#FFFFFF" d="M7.023,35.025c-5.638-3.258-5.807-13.517-0.385-22.913
	c3.938-6.817,9.74-11.29,14.781-11.995C15.888-0.75,8.623,4.044,3.962,12.112c-5.433,9.396-5.254,19.655,0.385,22.913
	c1.542,0.889,3.337,1.143,5.239,0.875C8.68,35.76,7.816,35.481,7.023,35.025z"/>
<path fill-rule="evenodd" clip-rule="evenodd" fill="#FFFFFF" d="M15.741,35.025c-5.64-3.258-5.809-13.517-0.385-22.913
	c3.823-6.618,9.403-11.029,14.342-11.926c-5.58-1.187-13.108,3.653-17.886,11.926c-5.425,9.396-5.246,19.655,0.385,22.913
	c1.663,0.958,3.62,1.184,5.687,0.807C17.131,35.672,16.411,35.411,15.741,35.025z"/>
<path fill-rule="evenodd" clip-rule="evenodd" fill="#FFFFFF" d="M24.099,35.025c-5.638-3.258-5.809-13.517-0.384-22.913
	c3.739-6.473,9.162-10.847,14.017-11.876C32.136-1.097,24.5,3.749,19.668,12.112c-5.422,9.396-5.253,19.655,0.385,22.913
	c1.751,1.008,3.825,1.221,6.012,0.757C25.377,35.62,24.716,35.38,24.099,35.025z"/>
<path fill-rule="evenodd" clip-rule="evenodd" fill="#FFFFFF" d="M33.004,35.025c-5.638-3.258-5.817-13.517-0.385-22.913
	c3.603-6.238,8.764-10.509,13.479-11.734c-5.636-1.766-13.593,3.116-18.571,11.734c-5.424,9.396-5.254,19.655,0.385,22.913
	c1.893,1.09,4.164,1.235,6.547,0.615C33.957,35.482,33.466,35.292,33.004,35.025z"/>
<path fill-rule="evenodd" clip-rule="evenodd" fill="#FFFFFF" d="M55.416,0.994c5.638,3.258,5.808,13.506,0.385,22.904
	c-5.423,9.398-14.392,14.374-20.03,11.126c-5.639-3.258-5.808-13.517-0.385-22.913C40.81,2.723,49.777-2.255,55.416,0.994z"/>
</svg>
