<?xml version="1.0" encoding="utf-8"?>
<!-- Generator: Adobe Illustrator 16.0.0, SVG Export Plug-In . SVG Version: 6.00 Build 0)  -->
<!DOCTYPE svg PUBLIC "-//W3C//DTD SVG 1.1//EN" "http://www.w3.org/Graphics/SVG/1.1/DTD/svg11.dtd">
<svg version="1.1" id="Layer_1" xmlns="http://www.w3.org/2000/svg" xmlns:xlink="http://www.w3.org/1999/xlink" x="0px" y="0px"
	 width="50px" height="50px" viewBox="-315.5 -315.5 50 50" enable-background="new -315.5 -315.5 50 50" xml:space="preserve">
<path d="M-299.161-290.5l-3.84,5.225l-3.839-5.225h2.339c0-7.72,6.281-14.001,14.001-14.001v3c-6.066,0-11.001,4.935-11.001,11.001
	H-299.161z M-277.999-295.724l-3.84,5.225h2.34c0,6.065-4.935,11-11.001,11v3c7.72,0,14.001-6.28,14.001-14h2.339L-277.999-295.724z
	 M-290.412-297.862c0-3.038,2.462-5.5,5.5-5.5c3.037,0,5.5,2.462,5.5,5.5c0,3.037-2.463,5.5-5.5,5.5
	C-287.95-292.362-290.412-294.825-290.412-297.862z M-287.602-300.914l0.975,1.73h-0.765v0.854h1.226l0.429,0.742h-1.654v0.854
	h1.851v1.922h1.158v-1.922h1.945v-0.854h-1.734l0.446-0.742h1.288v-0.854h-0.805l1.02-1.73h-1.355l-1.354,2.589h-0.036l-1.318-2.589
	H-287.602z M-289.516-284.184c0,3.037-2.463,5.5-5.5,5.5c-3.038,0-5.5-2.463-5.5-5.5c0-3.038,2.462-5.5,5.5-5.5
	C-291.979-289.684-289.516-287.222-289.516-284.184z M-292.506-283.393h-1.052l0.008,0.246c0.011,0.359-0.066,0.596-0.23,0.712
	c-0.154,0.108-0.492,0.162-1.015,0.162c-0.588,0-0.94-0.097-1.056-0.291c-0.06-0.1-0.104-0.3-0.134-0.599h1.586l0.101-0.679h-1.723
	c-0.006-0.197-0.008-0.396-0.008-0.599v-0.081h1.832l0.101-0.679h-1.905c0.03-0.337,0.087-0.556,0.17-0.656
	c0.133-0.159,0.495-0.238,1.088-0.238c0.442,0,0.727,0.035,0.854,0.105c0.188,0.105,0.284,0.352,0.284,0.74v0.142h1.051
	l-0.004-0.125c-0.024-0.723-0.156-1.192-0.396-1.407c-0.262-0.235-0.787-0.352-1.577-0.352c-1.03,0-1.714,0.143-2.051,0.429
	c-0.281,0.237-0.445,0.691-0.493,1.363h-0.349l-0.101,0.679h0.433c0.003,0.251,0.008,0.477,0.017,0.68h-0.349l-0.101,0.679h0.497
	c0.063,0.629,0.166,1.046,0.312,1.254c0.251,0.356,0.895,0.534,1.93,0.534c0.887,0,1.465-0.088,1.735-0.263
	c0.363-0.234,0.546-0.756,0.546-1.565V-283.393z"/>
</svg>
