<?xml version="1.0" encoding="utf-8"?>
<!-- Generator: Adobe Illustrator 16.0.0, SVG Export Plug-In . SVG Version: 6.00 Build 0)  -->
<!DOCTYPE svg PUBLIC "-//W3C//DTD SVG 1.1//EN" "http://www.w3.org/Graphics/SVG/1.1/DTD/svg11.dtd">
<svg version="1.1" id="Layer_1" xmlns="http://www.w3.org/2000/svg" xmlns:xlink="http://www.w3.org/1999/xlink" x="0px" y="0px"
	 width="50px" height="50px" viewBox="-245.5 -315.5 50 50" enable-background="new -245.5 -315.5 50 50" xml:space="preserve">
<path d="M-229.161-290.5l-3.84,5.225l-3.839-5.225h2.339c0-7.72,6.281-14.001,14.001-14.001v3c-6.066,0-11.001,4.935-11.001,11.001
	H-229.161z M-207.999-295.724l-3.84,5.225h2.34c0,6.065-4.935,11-11.001,11v3c7.72,0,14.001-6.28,14.001-14h2.339L-207.999-295.724z
	 M-219.593-284.267c0,3.037-2.462,5.5-5.5,5.5s-5.5-2.463-5.5-5.5c0-3.038,2.462-5.5,5.5-5.5S-219.593-287.305-219.593-284.267z
	 M-222.831-282.699l-3.262,0.02v-0.028c0.178-0.112,0.29-0.233,0.335-0.363l0.056-0.387l-0.004-0.288v-0.18h1.478v-0.763h-1.478
	v-0.894c0-0.368,0.06-0.606,0.178-0.717c0.119-0.111,0.377-0.166,0.777-0.166c0.351,0,0.578,0.048,0.681,0.144
	c0.103,0.096,0.154,0.307,0.154,0.635l0.004,0.116h1.034l0.004-0.268c0-0.596-0.133-0.998-0.399-1.204
	c-0.266-0.207-0.781-0.31-1.545-0.31c-1.115,0-1.737,0.33-1.864,0.99l-0.056,0.643v0.231v0.798h-0.67v0.763h0.67v0.352
	c0,0.554-0.173,0.852-0.519,0.895v0.838h4.428V-282.699z M-220.509-298.017c0-3.038,2.462-5.5,5.5-5.5s5.5,2.462,5.5,5.5
	c0,3.037-2.462,5.5-5.5,5.5S-220.509-294.98-220.509-298.017z M-217.505-300.758l0.975,1.73h-0.765v0.854h1.225l0.429,0.742h-1.654
	v0.854h1.851v1.922h1.158v-1.922h1.945v-0.854h-1.734l0.446-0.742h1.288v-0.854h-0.804l1.019-1.73h-1.355l-1.355,2.589h-0.036
	l-1.319-2.589H-217.505z"/>
</svg>
