<?xml version="1.0" encoding="utf-8"?>
<!-- Generator: Adobe Illustrator 16.0.0, SVG Export Plug-In . SVG Version: 6.00 Build 0)  -->
<!DOCTYPE svg PUBLIC "-//W3C//DTD SVG 1.1//EN" "http://www.w3.org/Graphics/SVG/1.1/DTD/svg11.dtd">
<svg version="1.1" id="Layer_1" xmlns="http://www.w3.org/2000/svg" xmlns:xlink="http://www.w3.org/1999/xlink" x="0px" y="0px"
	 width="50px" height="50px" viewBox="-175.5 -315.5 50 50" enable-background="new -175.5 -315.5 50 50" xml:space="preserve">
<path d="M-159.161-290.5l-3.84,5.225l-3.839-5.225h2.339c0-7.72,6.281-14.001,14.001-14.001v3c-6.066,0-11.001,4.935-11.001,11.001
	H-159.161z M-137.999-295.724l-3.84,5.225h2.34c0,6.065-4.935,11-11.001,11v3c7.72,0,14.001-6.28,14.001-14h2.339L-137.999-295.724z
	 M-150.509-298.017c0-3.038,2.462-5.5,5.5-5.5s5.5,2.462,5.5,5.5c0,3.037-2.462,5.5-5.5,5.5S-150.509-294.98-150.509-298.017z
	 M-147.095-297.425h-0.349l-0.101,0.679h0.498c0.062,0.629,0.166,1.046,0.312,1.254c0.25,0.356,0.894,0.534,1.929,0.534
	c0.887,0,1.465-0.088,1.735-0.263c0.364-0.234,0.546-0.756,0.546-1.565v-0.19h-1.052l0.008,0.246
	c0.011,0.359-0.066,0.596-0.23,0.712c-0.154,0.108-0.492,0.162-1.015,0.162c-0.588,0-0.94-0.097-1.056-0.291
	c-0.06-0.1-0.104-0.3-0.134-0.599h1.586l0.101-0.679h-1.723c-0.006-0.197-0.008-0.396-0.008-0.599v-0.081h1.832l0.101-0.679h-1.905
	c0.03-0.337,0.086-0.556,0.17-0.656c0.132-0.159,0.495-0.238,1.088-0.238c0.442,0,0.727,0.035,0.854,0.105
	c0.188,0.105,0.284,0.352,0.284,0.74v0.142h1.051l-0.004-0.125c-0.024-0.723-0.156-1.192-0.396-1.407
	c-0.262-0.235-0.788-0.352-1.578-0.352c-1.03,0-1.713,0.143-2.05,0.429c-0.281,0.237-0.445,0.691-0.494,1.363h-0.349l-0.101,0.679
	h0.433C-147.108-297.854-147.104-297.627-147.095-297.425z M-149.593-284.267c0,3.037-2.462,5.5-5.5,5.5s-5.5-2.463-5.5-5.5
	c0-3.038,2.462-5.5,5.5-5.5S-149.593-287.305-149.593-284.267z M-152.831-282.699l-3.262,0.02v-0.028
	c0.178-0.112,0.29-0.233,0.335-0.363l0.056-0.387l-0.004-0.288v-0.18h1.478v-0.763h-1.478v-0.894c0-0.368,0.06-0.606,0.178-0.717
	c0.119-0.111,0.377-0.166,0.777-0.166c0.351,0,0.578,0.048,0.681,0.144c0.103,0.096,0.154,0.307,0.154,0.635l0.004,0.116h1.034
	l0.004-0.268c0-0.596-0.133-0.998-0.399-1.204c-0.266-0.207-0.781-0.31-1.545-0.31c-1.115,0-1.737,0.33-1.864,0.99l-0.056,0.643
	v0.231v0.798h-0.67v0.763h0.67v0.352c0,0.554-0.173,0.852-0.519,0.895v0.838h4.428V-282.699z"/>
</svg>
