<?xml version="1.0" encoding="utf-8"?>
<!-- Generator: Adobe Illustrator 16.0.0, SVG Export Plug-In . SVG Version: 6.00 Build 0)  -->
<!DOCTYPE svg PUBLIC "-//W3C//DTD SVG 1.1//EN" "http://www.w3.org/Graphics/SVG/1.1/DTD/svg11.dtd">
<svg version="1.1" id="Layer_1" xmlns="http://www.w3.org/2000/svg" xmlns:xlink="http://www.w3.org/1999/xlink" x="0px" y="0px"
	 width="50px" height="50px" viewBox="-105.5 -315.5 50 50" enable-background="new -105.5 -315.5 50 50" xml:space="preserve">
<path d="M-89.161-290.5l-3.84,5.225l-3.839-5.225h2.339c0-7.72,6.281-14.001,14.001-14.001v3c-6.066,0-11.001,4.935-11.001,11.001
	H-89.161z M-67.999-295.724l-3.84,5.225h2.34c0,6.065-4.935,11-11.001,11v3c7.72,0,14.001-6.28,14.001-14h2.339L-67.999-295.724z
	 M-75.266-299.593l-0.128,0.004c-0.527,0-0.79,0.208-0.79,0.625c0,0.437,0.262,0.654,0.786,0.654c0.005,0,0.049,0.002,0.132,0.007
	V-299.593z M-80.509-298.017c0-3.038,2.462-5.5,5.5-5.5s5.5,2.462,5.5,5.5c0,3.037-2.462,5.5-5.5,5.5S-80.509-294.98-80.509-298.017
	z M-77.138-296.79c0,0.531,0.127,0.904,0.382,1.119c0.254,0.214,0.695,0.321,1.321,0.321l0.168,0.004v0.589h0.6v-0.589l0.183-0.004
	c0.629,0,1.069-0.112,1.322-0.336c0.252-0.225,0.378-0.614,0.378-1.17c0-0.517-0.116-0.872-0.347-1.065
	c-0.232-0.194-0.678-0.31-1.338-0.346l-0.197-0.008v-1.315h0.139c0.488,0,0.731,0.194,0.731,0.585l0.003,0.095h0.859v-0.121
	c0-0.517-0.122-0.87-0.367-1.06c-0.245-0.19-0.7-0.285-1.365-0.285v-0.512h-0.6v0.512c-0.697,0-1.174,0.1-1.431,0.298
	c-0.257,0.198-0.386,0.567-0.386,1.105c0,0.556,0.128,0.935,0.384,1.138c0.256,0.202,0.733,0.303,1.433,0.303v1.426l-0.132-0.003
	c-0.358,0-0.589-0.047-0.692-0.142c-0.104-0.094-0.156-0.303-0.156-0.627v-0.091h-0.888L-77.138-296.79z M-73.683-296.84
	c0-0.269-0.063-0.444-0.19-0.53c-0.127-0.085-0.392-0.128-0.793-0.128v1.393h0.127C-73.968-296.106-73.683-296.351-73.683-296.84z
	 M-79.593-284.267c0,3.037-2.462,5.5-5.5,5.5s-5.5-2.463-5.5-5.5c0-3.038,2.462-5.5,5.5-5.5S-79.593-287.305-79.593-284.267z
	 M-82.834-283.499h-1.02l0.007,0.239c0.011,0.348-0.063,0.578-0.223,0.69c-0.149,0.104-0.478,0.156-0.985,0.156
	c-0.57,0-0.911-0.094-1.023-0.282c-0.057-0.097-0.101-0.29-0.129-0.58h1.538l0.097-0.659h-1.67c-0.005-0.191-0.008-0.385-0.008-0.58
	v-0.079h1.777l0.098-0.659h-1.847c0.029-0.327,0.084-0.538,0.165-0.635c0.128-0.154,0.48-0.231,1.055-0.231
	c0.429,0,0.705,0.034,0.828,0.102c0.182,0.103,0.274,0.341,0.274,0.718v0.138h1.02l-0.004-0.122c-0.023-0.7-0.151-1.155-0.385-1.365
	c-0.253-0.228-0.763-0.341-1.529-0.341c-0.999,0-1.662,0.139-1.989,0.416c-0.272,0.23-0.432,0.67-0.478,1.321h-0.338l-0.098,0.659
	h0.419c0.003,0.243,0.008,0.463,0.016,0.659h-0.338l-0.098,0.659h0.482c0.06,0.609,0.161,1.015,0.302,1.215
	c0.243,0.346,0.867,0.519,1.871,0.519c0.861,0,1.421-0.085,1.684-0.255c0.352-0.228,0.529-0.733,0.529-1.519V-283.499z"/>
</svg>
