<?xml version="1.0" encoding="utf-8"?>
<!-- Generator: Adobe Illustrator 16.0.0, SVG Export Plug-In . SVG Version: 6.00 Build 0)  -->
<!DOCTYPE svg PUBLIC "-//W3C//DTD SVG 1.1//EN" "http://www.w3.org/Graphics/SVG/1.1/DTD/svg11.dtd">
<svg version="1.1" id="Layer_1" xmlns="http://www.w3.org/2000/svg" xmlns:xlink="http://www.w3.org/1999/xlink" x="0px" y="0px"
	 width="50px" height="50px" viewBox="-35.5 -315.5 50 50" enable-background="new -35.5 -315.5 50 50" xml:space="preserve">
<path d="M5.374-289.583l-0.061-0.114v-0.022H5.3l-5.546-10.375h0.808v-1H-0.78l-0.032-0.061l-0.032,0.061h-19.311l-0.032-0.061
	l-0.032,0.061h-1.343v1h0.808L-26.3-289.72h-0.012v0.022l-0.061,0.114l0.061,0.033v0.331c0,3.309,2.748,6,6.125,6
	s6.125-2.691,6.125-6v-0.331l0.061-0.033l-0.061-0.114v-0.022h-0.012l-5.546-10.375h8.121v0.625h-4.063v1h4.063v16.625h-4.063v2
	h10.125v-2H-9.5v-16.625h4.063v-1H-9.5v-0.625h8.121l-5.546,10.375h-0.012v0.022l-0.061,0.114l0.061,0.033v0.331
	c0,3.309,2.748,6,6.125,6s6.125-2.691,6.125-6v-0.331L5.374-289.583z M-25.167-289.72l4.979-9.314l4.979,9.314H-25.167z
	 M-0.813-299.034l4.979,9.314h-9.958L-0.813-299.034z"/>
</svg>
