<?xml version="1.0" encoding="utf-8"?>
<!-- Generator: Adobe Illustrator 16.0.0, SVG Export Plug-In . SVG Version: 6.00 Build 0)  -->
<!DOCTYPE svg PUBLIC "-//W3C//DTD SVG 1.1//EN" "http://www.w3.org/Graphics/SVG/1.1/DTD/svg11.dtd">
<svg version="1.1" id="Layer_1" xmlns="http://www.w3.org/2000/svg" xmlns:xlink="http://www.w3.org/1999/xlink" x="0px" y="0px"
	 width="50px" height="50px" viewBox="34.5 -315.5 50 50" enable-background="new 34.5 -315.5 50 50" xml:space="preserve">
<path d="M67.063-304.512l-0.641,0.64l-1.414-1.413l-1.334,1.333l-1.416-1.416l-19.633,19.634l10.02,10.02l1.334-1.333l1.416,1.416
	l1.348-1.348l0.707,0.707l18.926-18.927L67.063-304.512z M52.645-277.129l-8.605-8.605l18.219-18.22l0.709,0.709l-17.592,17.594
	l7.896,7.896L52.645-277.129z M48.137-285.585l7.898,7.898l-0.641,0.641l-8.605-8.605l18.219-18.22l0.707,0.706L48.137-285.585z
	 M65.445-287.202c-1.762,1.762-4.617,1.762-6.379,0s-1.762-4.617,0-6.379c1.762-1.763,4.617-1.762,6.379,0
	S67.207-288.965,65.445-287.202z M61.117-292.023l1.096,1.096l0.17-0.158c0.58-0.52,1.047-0.795,1.4-0.826s0.746,0.168,1.176,0.598
	c0.463,0.462,0.682,0.892,0.658,1.288s-0.297,0.856-0.82,1.38l-0.148,0.154l0.49,0.49l-0.498,0.499l-0.49-0.49l-0.143,0.138
	c-0.521,0.521-0.977,0.798-1.367,0.831c-0.391,0.034-0.807-0.171-1.248-0.612l-0.146-0.152l0.738-0.739l0.076,0.076
	c0.27,0.27,0.486,0.4,0.65,0.392c0.164-0.007,0.396-0.16,0.693-0.458l0.113-0.107l-1.186-1.186
	c-0.582,0.582-1.064,0.895-1.445,0.939s-0.803-0.164-1.266-0.627c-0.447-0.448-0.648-0.861-0.6-1.24s0.363-0.859,0.943-1.439
	l-0.426-0.426l0.498-0.498l0.426,0.426c0.555-0.554,1.012-0.854,1.375-0.899c0.361-0.046,0.758,0.147,1.188,0.577l0.1,0.1
	l-0.715,0.715l-0.082-0.076c-0.324-0.324-0.689-0.284-1.096,0.122L61.117-292.023z M60.615-291.527l-0.104,0.109
	c-0.438,0.438-0.482,0.831-0.137,1.178c0.363,0.362,0.764,0.326,1.199-0.109c0.004-0.005,0.043-0.039,0.115-0.104L60.615-291.527z
	 M64.016-289.124l0.107-0.106c0.475-0.476,0.508-0.916,0.1-1.323c-0.223-0.224-0.422-0.317-0.6-0.283
	c-0.176,0.035-0.432,0.219-0.766,0.554L64.016-289.124z"/>
</svg>
