<?xml version="1.0" encoding="utf-8"?>
<!-- Generator: Adobe Illustrator 16.0.0, SVG Export Plug-In . SVG Version: 6.00 Build 0)  -->
<!DOCTYPE svg PUBLIC "-//W3C//DTD SVG 1.1//EN" "http://www.w3.org/Graphics/SVG/1.1/DTD/svg11.dtd">
<svg version="1.1" id="Layer_1" xmlns="http://www.w3.org/2000/svg" xmlns:xlink="http://www.w3.org/1999/xlink" x="0px" y="0px"
	 width="50px" height="50px" viewBox="104.5 -315.5 50 50" enable-background="new 104.5 -315.5 50 50" xml:space="preserve">
<path d="M129.273-300.754c-0.126-0.007-0.19-0.01-0.199-0.01c-0.785,0-1.178-0.327-1.178-0.981c0-0.625,0.394-0.938,1.184-0.938
	l0.193-0.006V-300.754z M142.388-294.747v14.881l-12.888,7.44l-12.888-7.44v-14.881l5.209-3.007
	c-0.266-0.81-0.414-1.672-0.414-2.571c0-4.557,3.694-8.25,8.25-8.25s8.25,3.693,8.25,8.25c0,0.955-0.171,1.868-0.469,2.721
	L142.388-294.747z M126.464-298.483c0,0.797,0.192,1.356,0.574,1.679c0.381,0.321,1.043,0.482,1.982,0.482l0.253,0.006v0.883h0.899
	v-0.883l0.272-0.006c0.943,0,1.605-0.168,1.983-0.504c0.378-0.337,0.568-0.921,0.568-1.755c0-0.775-0.174-1.308-0.521-1.598
	c-0.349-0.292-1.017-0.464-2.007-0.519l-0.296-0.012v-1.973h0.208c0.73,0,1.096,0.292,1.096,0.877l0.006,0.142h1.289v-0.182
	c0-0.775-0.185-1.305-0.551-1.589c-0.368-0.286-1.051-0.428-2.048-0.428v-0.768h-0.899v0.768c-1.046,0-1.762,0.149-2.147,0.447
	c-0.387,0.297-0.58,0.851-0.58,1.658c0,0.833,0.193,1.402,0.577,1.707c0.384,0.303,1.101,0.454,2.15,0.454v2.139l-0.199-0.004
	c-0.536,0-0.884-0.07-1.037-0.212c-0.155-0.141-0.234-0.454-0.234-0.94v-0.136h-1.333L126.464-298.483z M128.5-287.002l-9.888-5.708
	v11.69l9.888,5.708V-287.002z M129.5-288.735l9.65-5.571l-2.596-1.499c-1.475,2.245-4.012,3.73-6.897,3.73
	c-2.942,0-5.519-1.546-6.979-3.865l-2.829,1.633L129.5-288.735z M140.388-292.71l-9.888,5.708v11.69l9.888-5.708V-292.71z
	 M131.646-298.56c0-0.403-0.094-0.667-0.284-0.795c-0.19-0.127-0.587-0.192-1.189-0.192v2.089h0.19
	C131.219-297.458,131.646-297.826,131.646-298.56z"/>
</svg>
