<?xml version="1.0" encoding="utf-8"?>
<!-- Generator: Adobe Illustrator 16.0.0, SVG Export Plug-In . SVG Version: 6.00 Build 0)  -->
<!DOCTYPE svg PUBLIC "-//W3C//DTD SVG 1.1//EN" "http://www.w3.org/Graphics/SVG/1.1/DTD/svg11.dtd">
<svg version="1.1" id="Layer_1" xmlns="http://www.w3.org/2000/svg" xmlns:xlink="http://www.w3.org/1999/xlink" x="0px" y="0px"
	 width="50px" height="50px" viewBox="244.5 -315.5 50 50" enable-background="new 244.5 -315.5 50 50" xml:space="preserve">
<path d="M274.031-304.782l-0.64,0.64l-1.414-1.414l-19.634,19.634l10.02,10.02l1.348-1.348l0.707,0.707l18.927-18.927
	L274.031-304.782z M255.105-285.855l7.898,7.899l-0.641,0.641l-8.605-8.606l18.22-18.22l0.707,0.707L255.105-285.855z
	 M272.414-287.472c-1.762,1.762-4.617,1.762-6.379,0s-1.762-4.617,0-6.379c1.762-1.762,4.617-1.762,6.379,0
	S274.176-289.234,272.414-287.472z M270.753-292.182c-0.354,0.032-0.821,0.307-1.401,0.826l-0.17,0.158l-1.096-1.095l0.116-0.116
	c0.405-0.406,0.771-0.446,1.095-0.122l0.082,0.076l0.715-0.715l-0.1-0.1c-0.43-0.43-0.826-0.623-1.188-0.577
	c-0.363,0.046-0.82,0.346-1.375,0.899l-0.426-0.426l-0.498,0.499l0.426,0.426c-0.58,0.58-0.895,1.06-0.943,1.439
	c-0.048,0.379,0.152,0.792,0.6,1.241c0.463,0.462,0.885,0.671,1.266,0.627c0.381-0.045,0.863-0.358,1.445-0.94l1.186,1.186
	l-0.112,0.107c-0.298,0.298-0.53,0.451-0.693,0.458c-0.165,0.008-0.382-0.122-0.651-0.392l-0.076-0.076l-0.738,0.739l0.146,0.152
	c0.441,0.442,0.857,0.646,1.248,0.613s0.846-0.311,1.367-0.832l0.143-0.138l0.49,0.49l0.498-0.499l-0.49-0.49l0.149-0.154
	c0.523-0.523,0.797-0.983,0.82-1.38c0.023-0.396-0.196-0.826-0.659-1.288C271.498-292.014,271.106-292.213,270.753-292.182z
	 M268.543-290.62c-0.436,0.436-0.836,0.472-1.199,0.109c-0.346-0.347-0.301-0.739,0.138-1.178l0.103-0.109l1.074,1.074
	C268.586-290.658,268.547-290.625,268.543-290.62z M271.092-289.5l-0.107,0.106l-1.158-1.159c0.335-0.335,0.59-0.519,0.767-0.554
	s0.376,0.06,0.599,0.283C271.6-290.417,271.566-289.976,271.092-289.5z M272.822-277.445h13.834v2h-13.834V-277.445z
	 M272.822-280.778h13.834v2h-13.834V-280.778z M286.656-284.112v2h-13.834v-2H286.656z"/>
</svg>
