<?xml version="1.0" encoding="utf-8"?>
<!-- Generator: Adobe Illustrator 16.0.0, SVG Export Plug-In . SVG Version: 6.00 Build 0)  -->
<!DOCTYPE svg PUBLIC "-//W3C//DTD SVG 1.1//EN" "http://www.w3.org/Graphics/SVG/1.1/DTD/svg11.dtd">
<svg version="1.1" id="Layer_1" xmlns="http://www.w3.org/2000/svg" xmlns:xlink="http://www.w3.org/1999/xlink" x="0px" y="0px"
	 width="50px" height="50px" viewBox="314.5 -315.5 50 50" enable-background="new 314.5 -315.5 50 50" xml:space="preserve">
<path d="M354.667-306.708h-30.334v23.167h30.334V-306.708z M352.667-285.542h-26.334v-19.167h26.334V-285.542z M349.167-287.958h-20
	v-13.833h1v12.833h19V-287.958z M331.897-290.056l-0.701-0.712l6.209-6.12l2.942,3.057l5.209-4.988l-1.14-1.14h2.917v2.917
	l-1.07-1.07l-5.945,5.692l-2.933-3.046L331.897-290.056z M356-282.208h-8.083v7.917h-2v-7.917h-12.834v7.917h-2v-7.917H323v-1h33
	V-282.208z"/>
</svg>
