<?xml version="1.0" encoding="utf-8"?>
<!-- Generator: Adobe Illustrator 16.0.0, SVG Export Plug-In . SVG Version: 6.00 Build 0)  -->
<!DOCTYPE svg PUBLIC "-//W3C//DTD SVG 1.1//EN" "http://www.w3.org/Graphics/SVG/1.1/DTD/svg11.dtd">
<svg version="1.1" id="Layer_1" xmlns="http://www.w3.org/2000/svg" xmlns:xlink="http://www.w3.org/1999/xlink" x="0px" y="0px"
	 width="50px" height="50px" viewBox="314.5 314.5 50 50" enable-background="new 314.5 314.5 50 50" xml:space="preserve">
<path d="M348.538,331.129l-4.482-4.482l-6.963,6.963c-0.512-0.266-1.09-0.42-1.707-0.42h-1.499c1.935-1.127,3.284-3.148,3.47-5.504
	h-13.973c0.185,2.355,1.533,4.377,3.469,5.504h-1.5c-2.059,0-3.729,1.67-3.729,3.73v9.678c0,2.061,1.67,2.146,3.729,2.146
	l2.899-0.064l1.368,1.367L348.538,331.129z M345.71,331.129l-16.09,16.09l-1.655-1.654l16.091-16.09L345.71,331.129z
	 M349.368,331.957l-18.919,18.92l8.008,8.008l18.919-18.92L349.368,331.957z M333.277,350.877l16.091-16.092l5.18,5.18
	l-16.091,16.092L333.277,350.877z M352.907,339.66l-3.086,3.086l-3.418-3.418l3.086-3.086L352.907,339.66z M339.839,347.133
	l-4.438,4.438l-0.707-0.707l4.438-4.438L339.839,347.133z M341.334,348.629l-4.437,4.436l-0.707-0.707l4.437-4.436L341.334,348.629z
	 M342.122,349.418l0.707,0.707l-4.436,4.436l-0.707-0.707L342.122,349.418z M336.676,324.074h-12.612
	c1.137-2.34,3.529-3.959,6.307-3.959S335.54,321.734,336.676,324.074z M327.626,324.977c0.614,0,1.111,0.498,1.111,1.111
	s-0.497,1.111-1.111,1.111c-0.613,0-1.111-0.498-1.111-1.111S327.013,324.977,327.626,324.977z M333.113,324.977
	c0.613,0,1.11,0.498,1.11,1.111s-0.497,1.111-1.11,1.111c-0.614,0-1.112-0.498-1.112-1.111S332.499,324.977,333.113,324.977z"/>
</svg>
