<?xml version="1.0" encoding="utf-8"?>
<!-- Generator: Adobe Illustrator 16.0.0, SVG Export Plug-In . SVG Version: 6.00 Build 0)  -->
<!DOCTYPE svg PUBLIC "-//W3C//DTD SVG 1.1//EN" "http://www.w3.org/Graphics/SVG/1.1/DTD/svg11.dtd">
<svg version="1.1" id="Layer_1" xmlns="http://www.w3.org/2000/svg" xmlns:xlink="http://www.w3.org/1999/xlink" x="0px" y="0px"
	 width="50px" height="50px" viewBox="-315.5 -245.5 50 50" enable-background="new -315.5 -245.5 50 50" xml:space="preserve">
<path d="M-291.14-217.404l-1.761,2.989h1.39v1.476h-2.225l-0.772,1.282h2.997v1.476h-3.36v3.321h-2.002v-3.321h-3.197v-1.476h2.858
	l-0.742-1.282h-2.116v-1.476h1.321l-1.685-2.989h2.271l2.279,4.473h0.062l2.341-4.473H-291.14z M-289.921-226.708h0.989
	c0.123,1.25,0.329,2.08,0.619,2.493c0.498,0.708,1.777,1.062,3.835,1.062c1.764,0,2.913-0.174,3.45-0.523
	c0.723-0.466,1.085-1.504,1.085-3.111v-0.378h-2.091l0.016,0.49c0.021,0.713-0.131,1.185-0.457,1.415
	c-0.307,0.214-0.979,0.322-2.019,0.322c-1.169,0-1.868-0.193-2.099-0.579c-0.118-0.199-0.207-0.595-0.266-1.19h3.152l0.2-1.351
	h-3.425c-0.012-0.392-0.016-0.788-0.016-1.19v-0.161h3.643l0.2-1.351h-3.787c0.06-0.67,0.172-1.104,0.338-1.303
	c0.263-0.316,0.983-0.474,2.163-0.474c0.879,0,1.444,0.07,1.696,0.209c0.375,0.209,0.563,0.699,0.563,1.471v0.281h2.09l-0.008-0.249
	c-0.049-1.437-0.311-2.37-0.788-2.798c-0.521-0.466-1.565-0.7-3.136-0.7c-2.048,0-3.406,0.284-4.076,0.852
	c-0.559,0.472-0.885,1.375-0.981,2.71h-0.692l-0.2,1.351h0.86c0.006,0.498,0.016,0.948,0.032,1.351h-0.692L-289.921-226.708z
	 M-301.501-220.5c0-6.066,4.935-11,11.001-11v-3c-7.72,0-14.001,6.281-14.001,14h-2.339l3.839,5.225l3.84-5.225H-301.501z
	 M-277.999-225.725l-3.84,5.225h2.34c0,6.066-4.935,11-11.001,11v3c7.72,0,14.001-6.281,14.001-14h2.339L-277.999-225.725z"/>
</svg>
