<?xml version="1.0" encoding="utf-8"?>
<!-- Generator: Adobe Illustrator 16.0.0, SVG Export Plug-In . SVG Version: 6.00 Build 0)  -->
<!DOCTYPE svg PUBLIC "-//W3C//DTD SVG 1.1//EN" "http://www.w3.org/Graphics/SVG/1.1/DTD/svg11.dtd">
<svg version="1.1" id="Layer_1" xmlns="http://www.w3.org/2000/svg" xmlns:xlink="http://www.w3.org/1999/xlink" x="0px" y="0px"
	 width="50px" height="50px" viewBox="-245.5 -245.5 50 50" enable-background="new -245.5 -245.5 50 50" xml:space="preserve">
<path d="M-219.899-210.825h-3.551v3.51h-2.115v-3.51h-3.379v-1.56h3.021l-0.784-1.355h-2.236v-1.56h1.396l-1.78-3.159h2.4
	l2.408,4.727h0.065l2.474-4.727h2.475l-1.861,3.159h1.469v1.56h-2.352l-0.815,1.355h3.167V-210.825z M-218.469-227.104
	c0,1.101-0.344,1.693-1.032,1.778v1.667h8.803v-1.707l-6.484,0.04v-0.056c0.354-0.222,0.576-0.463,0.666-0.722l0.111-0.77
	l-0.008-0.571v-0.357h2.938v-1.516h-2.938v-1.778c0-0.73,0.118-1.205,0.354-1.425s0.75-0.33,1.544-0.33
	c0.698,0,1.149,0.095,1.354,0.286s0.306,0.611,0.306,1.262l0.008,0.23h2.056l0.008-0.532c0-1.185-0.265-1.983-0.794-2.393
	s-1.553-0.615-3.072-0.615c-2.217,0-3.452,0.656-3.706,1.969l-0.111,1.278v0.46v1.587h-1.333v1.516h1.333V-227.104z
	 M-231.501-220.387c0-6.066,4.935-11,11.001-11v-3c-7.72,0-14.001,6.281-14.001,14h-2.339l3.839,5.225l3.84-5.225H-231.501z
	 M-207.999-225.611l-3.84,5.225h2.34c0,6.066-4.935,11-11.001,11v3c7.72,0,14.001-6.281,14.001-14h2.339L-207.999-225.611z"/>
</svg>
