<?xml version="1.0" encoding="utf-8"?>
<!-- Generator: Adobe Illustrator 16.0.0, SVG Export Plug-In . SVG Version: 6.00 Build 0)  -->
<!DOCTYPE svg PUBLIC "-//W3C//DTD SVG 1.1//EN" "http://www.w3.org/Graphics/SVG/1.1/DTD/svg11.dtd">
<svg version="1.1" id="Layer_1" xmlns="http://www.w3.org/2000/svg" xmlns:xlink="http://www.w3.org/1999/xlink" x="0px" y="0px"
	 width="50px" height="50px" viewBox="-175.5 -245.5 50 50" enable-background="new -175.5 -245.5 50 50" xml:space="preserve">
<path d="M-149.599-228.249h0.692c-0.017-0.402-0.026-0.853-0.032-1.351h-0.86l0.2-1.351h0.692c0.097-1.335,0.423-2.238,0.981-2.71
	c0.67-0.568,2.028-0.852,4.076-0.852c1.57,0,2.615,0.233,3.136,0.7c0.478,0.428,0.739,1.361,0.788,2.798l0.008,0.249h-2.09v-0.281
	c0-0.772-0.188-1.262-0.563-1.471c-0.252-0.139-0.817-0.209-1.696-0.209c-1.18,0-1.9,0.158-2.163,0.474
	c-0.166,0.198-0.278,0.632-0.338,1.303h3.787l-0.2,1.351h-3.643v0.161c0,0.402,0.004,0.798,0.016,1.19h3.425l-0.2,1.351h-3.152
	c0.059,0.595,0.147,0.992,0.266,1.19c0.23,0.386,0.93,0.579,2.099,0.579c1.04,0,1.712-0.107,2.019-0.322
	c0.326-0.23,0.479-0.702,0.457-1.415l-0.016-0.49h2.091v0.378c0,1.607-0.362,2.645-1.085,3.111c-0.537,0.349-1.687,0.523-3.45,0.523
	c-2.058,0-3.337-0.354-3.835-1.062c-0.29-0.413-0.496-1.243-0.619-2.493h-0.989L-149.599-228.249z M-159.183-208.734
	c0.354-0.222,0.576-0.463,0.666-0.722l0.111-0.77l-0.008-0.571v-0.357h2.938v-1.516h-2.938v-1.778c0-0.73,0.118-1.205,0.354-1.425
	s0.75-0.33,1.544-0.33c0.698,0,1.149,0.095,1.354,0.286s0.306,0.611,0.306,1.262l0.008,0.23h2.056l0.008-0.532
	c0-1.185-0.265-1.983-0.794-2.393s-1.553-0.615-3.072-0.615c-2.217,0-3.452,0.656-3.706,1.969l-0.111,1.278v0.46v1.587h-1.333v1.516
	h1.333v0.699c0,1.101-0.344,1.693-1.032,1.778v1.667h8.803v-1.707l-6.484,0.04V-208.734z M-161.5-220.488c0-6.066,4.935-11,11-11v-3
	c-7.72,0-14,6.281-14,14h-2.34l3.84,5.225l3.839-5.225H-161.5z M-138-225.713l-3.839,5.225h2.339c0,6.066-4.935,11-11,11v3
	c7.72,0,14-6.281,14-14h2.34L-138-225.713z"/>
</svg>
