<?xml version="1.0" encoding="utf-8"?>
<!-- Generator: Adobe Illustrator 16.0.0, SVG Export Plug-In . SVG Version: 6.00 Build 0)  -->
<!DOCTYPE svg PUBLIC "-//W3C//DTD SVG 1.1//EN" "http://www.w3.org/Graphics/SVG/1.1/DTD/svg11.dtd">
<svg version="1.1" id="Layer_1" xmlns="http://www.w3.org/2000/svg" xmlns:xlink="http://www.w3.org/1999/xlink" x="0px" y="0px"
	 width="50px" height="50px" viewBox="-105.5 -245.5 50 50" enable-background="new -105.5 -245.5 50 50" xml:space="preserve">
<path d="M-75.421-223.304l0.354,0.007v1.237h1.26v-1.237l0.384-0.007c1.321,0,2.247-0.236,2.777-0.707
	c0.529-0.471,0.795-1.29,0.795-2.458c0-1.086-0.243-1.832-0.729-2.239c-0.487-0.407-1.424-0.649-2.812-0.726l-0.415-0.016v-2.765
	h0.292c1.024,0,1.536,0.41,1.536,1.229l0.008,0.2h1.805v-0.253c0-1.085-0.257-1.828-0.771-2.228s-1.471-0.599-2.869-0.599v-1.075
	h-1.26v1.075c-1.464,0-2.467,0.209-3.007,0.626c-0.54,0.417-0.811,1.192-0.811,2.324c0,1.167,0.27,1.963,0.807,2.389
	c0.538,0.425,1.541,0.637,3.011,0.637v2.996l-0.276-0.007c-0.753,0-1.238-0.099-1.455-0.296c-0.218-0.197-0.327-0.636-0.327-1.317
	v-0.192h-1.866L-79-226.33c0,1.116,0.268,1.9,0.803,2.35C-77.663-223.529-76.737-223.304-75.421-223.304z M-73.808-227.82
	c0.845,0,1.4,0.09,1.667,0.269s0.399,0.55,0.399,1.114c0,1.029-0.6,1.543-1.798,1.543h-0.269V-227.82z M-75.344-229.525
	c-1.101,0-1.651-0.458-1.651-1.375c0-0.875,0.553-1.313,1.659-1.313l0.269-0.008v2.711
	C-75.242-229.521-75.333-229.525-75.344-229.525z M-84.162-210.678h2.091v0.378c0,1.607-0.362,2.645-1.085,3.111
	c-0.537,0.349-1.687,0.523-3.45,0.523c-2.058,0-3.337-0.354-3.835-1.062c-0.29-0.413-0.496-1.243-0.619-2.493h-0.989l0.2-1.351
	h0.692c-0.017-0.402-0.026-0.853-0.032-1.351h-0.86l0.2-1.351h0.692c0.097-1.335,0.423-2.238,0.981-2.71
	c0.67-0.568,2.028-0.852,4.076-0.852c1.57,0,2.615,0.233,3.136,0.7c0.478,0.428,0.739,1.361,0.788,2.798l0.008,0.249h-2.09v-0.281
	c0-0.772-0.188-1.262-0.563-1.471c-0.252-0.139-0.817-0.209-1.696-0.209c-1.18,0-1.9,0.158-2.163,0.474
	c-0.166,0.198-0.278,0.632-0.338,1.303h3.787l-0.2,1.351h-3.643v0.161c0,0.402,0.004,0.798,0.016,1.19h3.425l-0.2,1.351h-3.152
	c0.059,0.595,0.147,0.992,0.266,1.19c0.23,0.386,0.93,0.579,2.099,0.579c1.04,0,1.712-0.107,2.019-0.322
	c0.326-0.23,0.479-0.702,0.457-1.415L-84.162-210.678z M-89.161-220.06L-93-214.835l-3.84-5.225h2.34c0-7.72,6.28-14,14-14v3
	c-6.065,0-11,4.935-11,11H-89.161z M-64.16-220.06h-2.34c0,7.72-6.28,14-14,14v-3c6.065,0,11-4.935,11-11h-2.339l3.839-5.225
	L-64.16-220.06z"/>
</svg>
