<?xml version="1.0" encoding="utf-8"?>
<!-- Generator: Adobe Illustrator 16.0.0, SVG Export Plug-In . SVG Version: 6.00 Build 0)  -->
<!DOCTYPE svg PUBLIC "-//W3C//DTD SVG 1.1//EN" "http://www.w3.org/Graphics/SVG/1.1/DTD/svg11.dtd">
<svg version="1.1" id="Layer_1" xmlns="http://www.w3.org/2000/svg" xmlns:xlink="http://www.w3.org/1999/xlink" x="0px" y="0px"
	 width="50px" height="50px" viewBox="34.5 -245.5 50 50" enable-background="new 34.5 -245.5 50 50" xml:space="preserve">
<path d="M52.731-221.691c2.134,0,3.449-0.313,3.949-0.941c0.499-0.626,0.749-2.282,0.749-4.965c0-2.679-0.25-4.331-0.749-4.958
	c-0.5-0.627-1.815-0.94-3.949-0.94c-2.133,0-3.449,0.313-3.948,0.94c-0.5,0.627-0.749,2.279-0.749,4.958
	c0,2.678,0.249,4.331,0.749,4.961C49.282-222.007,50.599-221.691,52.731-221.691z M50.229-229.113c0-1.083,0.135-1.77,0.404-2.06
	c0.27-0.289,0.912-0.434,1.928-0.434c1.339,0,2.122,0.168,2.349,0.502c0.228,0.335,0.341,1.48,0.341,3.438
	c0,1.94-0.119,3.106-0.357,3.498s-0.951,0.587-2.137,0.587c-1.14,0-1.847-0.139-2.119-0.417c-0.271-0.278-0.408-1.004-0.408-2.179
	l-0.017-1.413L50.229-229.113z M70.868-218.368c-0.5-0.627-1.815-0.94-3.949-0.94c-2.133,0-3.449,0.313-3.948,0.94
	c-0.5,0.627-0.749,2.279-0.749,4.958c0,2.678,0.249,4.331,0.749,4.961c0.499,0.63,1.815,0.945,3.948,0.945
	c2.134,0,3.449-0.313,3.949-0.941c0.499-0.626,0.749-2.282,0.749-4.965C71.617-216.089,71.367-217.741,70.868-218.368z
	 M69.081-209.98c-0.238,0.392-0.951,0.587-2.137,0.587c-1.14,0-1.847-0.139-2.119-0.417c-0.271-0.278-0.408-1.004-0.408-2.179
	l-0.017-1.413l0.017-1.523c0-1.083,0.135-1.77,0.404-2.06c0.27-0.289,0.912-0.434,1.928-0.434c1.339,0,2.122,0.168,2.349,0.502
	c0.228,0.335,0.341,1.48,0.341,3.438C69.438-211.538,69.319-210.372,69.081-209.98z M52.183-211.159l2.632,2.632h-7.432v-7.432
	l2.633,2.633l18.817-18.817L71-229.977L52.183-211.159z"/>
</svg>
