<?xml version="1.0" encoding="utf-8"?>
<!-- Generator: Adobe Illustrator 16.0.0, SVG Export Plug-In . SVG Version: 6.00 Build 0)  -->
<!DOCTYPE svg PUBLIC "-//W3C//DTD SVG 1.1//EN" "http://www.w3.org/Graphics/SVG/1.1/DTD/svg11.dtd">
<svg version="1.1" id="Layer_1" xmlns="http://www.w3.org/2000/svg" xmlns:xlink="http://www.w3.org/1999/xlink" x="0px" y="0px"
	 width="50px" height="50px" viewBox="104.5 -245.5 50 50" enable-background="new 104.5 -245.5 50 50" xml:space="preserve">
<path d="M128.353-214.928v-3.51h-3.379v-1.56h3.021l-0.784-1.355h-2.236v-1.56h1.396l-1.78-3.159h2.4l2.408,4.727h0.065l2.474-4.727
	h2.475l-1.861,3.159h1.469v1.56h-2.352l-0.815,1.355h3.167v1.56h-3.551v3.51H128.353z M129.5-231.5v-3
	c-7.72,0-14.001,6.281-14.001,14h-2.339l3.839,5.225l3.84-5.225h-2.34C118.499-226.566,123.434-231.5,129.5-231.5z M142.001-225.725
	l-3.84,5.225h2.34c0,6.066-4.935,11-11.001,11v3c7.72,0,14.001-6.281,14.001-14h2.339L142.001-225.725z"/>
</svg>
