<?xml version="1.0" encoding="utf-8"?>
<!-- Generator: Adobe Illustrator 16.0.0, SVG Export Plug-In . SVG Version: 6.00 Build 0)  -->
<!DOCTYPE svg PUBLIC "-//W3C//DTD SVG 1.1//EN" "http://www.w3.org/Graphics/SVG/1.1/DTD/svg11.dtd">
<svg version="1.1" id="Layer_1" xmlns="http://www.w3.org/2000/svg" xmlns:xlink="http://www.w3.org/1999/xlink" x="0px" y="0px"
	 width="50px" height="50px" viewBox="174.5 -245.5 50 50" enable-background="new 174.5 -245.5 50 50" xml:space="preserve">
<path d="M196.281-218.468v-0.699h-1.333v-1.516h1.333v-1.587v-0.46l0.111-1.278c0.254-1.313,1.489-1.969,3.706-1.969
	c1.52,0,2.543,0.205,3.072,0.615s0.794,1.208,0.794,2.393l-0.008,0.532h-2.056l-0.008-0.23c0-0.651-0.102-1.072-0.306-1.262
	s-0.655-0.286-1.354-0.286c-0.794,0-1.309,0.11-1.544,0.33s-0.354,0.694-0.354,1.425v1.778h2.938v1.516h-2.938v0.357l0.008,0.571
	l-0.111,0.77c-0.09,0.259-0.312,0.5-0.666,0.722v0.056l6.484-0.04v1.707h-8.803v-1.667
	C195.938-216.774,196.281-217.367,196.281-218.468z M199.5-231.5v-3c-7.72,0-14.001,6.281-14.001,14h-2.339l3.839,5.225l3.84-5.225
	h-2.34C188.499-226.566,193.434-231.5,199.5-231.5z M212.001-225.725l-3.84,5.225h2.34c0,6.066-4.935,11-11.001,11v3
	c7.72,0,14.001-6.281,14.001-14h2.339L212.001-225.725z"/>
</svg>
