<?xml version="1.0" encoding="utf-8"?>
<!-- Generator: Adobe Illustrator 16.0.0, SVG Export Plug-In . SVG Version: 6.00 Build 0)  -->
<!DOCTYPE svg PUBLIC "-//W3C//DTD SVG 1.1//EN" "http://www.w3.org/Graphics/SVG/1.1/DTD/svg11.dtd">
<svg version="1.1" id="Layer_1" xmlns="http://www.w3.org/2000/svg" xmlns:xlink="http://www.w3.org/1999/xlink" x="0px" y="0px"
	 width="50px" height="50px" viewBox="244.5 -245.5 50 50" enable-background="new 244.5 -245.5 50 50" xml:space="preserve">
<path d="M269.954-215.127c-2.058,0-3.337-0.354-3.835-1.062c-0.29-0.413-0.496-1.243-0.619-2.493h-0.989l0.2-1.351h0.692
	c-0.017-0.402-0.026-0.853-0.032-1.351h-0.86l0.2-1.351h0.692c0.097-1.335,0.423-2.238,0.981-2.71
	c0.67-0.568,2.028-0.852,4.076-0.852c1.57,0,2.615,0.233,3.136,0.7c0.478,0.428,0.739,1.361,0.788,2.798l0.008,0.249h-2.09v-0.281
	c0-0.772-0.188-1.262-0.563-1.471c-0.252-0.139-0.817-0.209-1.696-0.209c-1.18,0-1.9,0.158-2.163,0.474
	c-0.166,0.198-0.278,0.632-0.338,1.303h3.787l-0.2,1.351h-3.643v0.161c0,0.402,0.004,0.798,0.016,1.19h3.425l-0.2,1.351h-3.152
	c0.059,0.595,0.147,0.992,0.266,1.19c0.23,0.386,0.93,0.579,2.099,0.579c1.04,0,1.712-0.107,2.019-0.322
	c0.326-0.23,0.479-0.702,0.457-1.415l-0.016-0.49h2.091v0.378c0,1.607-0.362,2.645-1.085,3.111
	C272.867-215.302,271.718-215.127,269.954-215.127z M269.5-231.5v-3c-7.72,0-14,6.281-14,14h-2.34l3.84,5.225l3.839-5.225H258.5
	C258.5-226.566,263.435-231.5,269.5-231.5z M282-225.725l-3.839,5.225h2.339c0,6.066-4.935,11-11,11v3c7.72,0,14-6.281,14-14h2.34
	L282-225.725z"/>
</svg>
