<?xml version="1.0" encoding="utf-8"?>
<!-- Generator: Adobe Illustrator 16.0.0, SVG Export Plug-In . SVG Version: 6.00 Build 0)  -->
<!DOCTYPE svg PUBLIC "-//W3C//DTD SVG 1.1//EN" "http://www.w3.org/Graphics/SVG/1.1/DTD/svg11.dtd">
<svg version="1.1" id="Layer_1" xmlns="http://www.w3.org/2000/svg" xmlns:xlink="http://www.w3.org/1999/xlink" x="0px" y="0px"
	 width="50px" height="50px" viewBox="314.5 -245.5 50 50" enable-background="new 314.5 -245.5 50 50" xml:space="preserve">
<path d="M340.118-214.06v-1.237l0.384-0.007c1.321,0,2.247-0.236,2.777-0.707c0.529-0.471,0.795-1.29,0.795-2.458
	c0-1.086-0.243-1.832-0.729-2.239c-0.487-0.407-1.424-0.649-2.812-0.726l-0.415-0.016v-2.765h0.292c1.024,0,1.536,0.41,1.536,1.229
	l0.008,0.2h1.805v-0.253c0-1.085-0.257-1.828-0.771-2.228s-1.471-0.599-2.869-0.599v-1.075h-1.26v1.075
	c-1.464,0-2.467,0.209-3.007,0.626c-0.54,0.417-0.811,1.192-0.811,2.324c0,1.167,0.27,1.963,0.807,2.389
	c0.538,0.425,1.541,0.637,3.011,0.637v2.996l-0.276-0.007c-0.753,0-1.238-0.099-1.455-0.296c-0.218-0.197-0.327-0.636-0.327-1.317
	v-0.192h-1.866l-0.008,0.376c0,1.116,0.268,1.9,0.803,2.35c0.535,0.451,1.461,0.676,2.776,0.676l0.354,0.007v1.237H340.118z
	 M340.118-219.82c0.845,0,1.4,0.09,1.667,0.269s0.399,0.55,0.399,1.114c0,1.029-0.6,1.543-1.798,1.543h-0.269V-219.82z
	 M338.582-221.525c-1.101,0-1.651-0.458-1.651-1.375c0-0.875,0.553-1.313,1.659-1.313l0.269-0.008v2.711
	C338.685-221.521,338.593-221.525,338.582-221.525z M328.5-220.5h2.339L327-215.275l-3.84-5.225h2.34c0-7.72,6.28-14,14-14v3
	C333.435-231.5,328.5-226.566,328.5-220.5z M355.84-220.5h-2.34c0,7.72-6.28,14-14,14v-3c6.065,0,11-4.935,11-11h-2.339l3.839-5.225
	L355.84-220.5z"/>
</svg>
