<?xml version="1.0" encoding="utf-8"?>
<!-- Generator: Adobe Illustrator 16.0.0, SVG Export Plug-In . SVG Version: 6.00 Build 0)  -->
<!DOCTYPE svg PUBLIC "-//W3C//DTD SVG 1.1//EN" "http://www.w3.org/Graphics/SVG/1.1/DTD/svg11.dtd">
<svg version="1.1" id="Layer_1" xmlns="http://www.w3.org/2000/svg" xmlns:xlink="http://www.w3.org/1999/xlink" x="0px" y="0px"
	 width="50px" height="50px" viewBox="-315.5 -175.5 50 50" enable-background="new -315.5 -175.5 50 50" xml:space="preserve">
<path d="M-281.201-166.104l-0.544,0.544l-1.311-1.311l-1.205,1.205l-1.28-1.28l-0.874,0.874v-0.699h-21.798v32.716h22.798v-11.007
	l12.628-12.628L-281.201-166.104z M-283.057-165.456l0.604,0.604l-15.846,15.847l7.102,7.102l-0.545,0.545l-7.706-7.706
	L-283.057-165.456z M-285.541-165.531l0.573,0.573l-15.894,15.894l7.134,7.134l-0.498,0.498l-7.706-7.707L-285.541-165.531z
	 M-297.04-135.281c-0.707,0-1.28-0.573-1.28-1.279c0-0.707,0.573-1.28,1.28-1.28s1.28,0.573,1.28,1.28
	C-295.76-135.854-296.333-135.281-297.04-135.281z M-287.415-139.446h-18.798v-25.324h18.497l-15.631,15.631l9.12,9.121l1.205-1.205
	l1.279,1.279l1.252-1.252l0.604,0.605l2.471-2.471V-139.446z M-282.662-150.466c-1.592,1.592-4.171,1.592-5.763,0
	c-1.592-1.591-1.592-4.171,0-5.763c1.591-1.592,4.171-1.591,5.763,0C-281.071-154.637-281.071-152.058-282.662-150.466z
	 M-286.572-154.821l0.99,0.989l0.154-0.143c0.524-0.47,0.946-0.718,1.266-0.747c0.32-0.028,0.673,0.152,1.062,0.54
	c0.418,0.417,0.617,0.806,0.596,1.164c-0.021,0.359-0.269,0.774-0.741,1.247l-0.135,0.139l0.443,0.443l-0.45,0.45l-0.443-0.443
	l-0.129,0.125c-0.471,0.47-0.882,0.721-1.235,0.751c-0.353,0.03-0.729-0.154-1.127-0.554l-0.132-0.138l0.667-0.667l0.069,0.069
	c0.244,0.243,0.439,0.361,0.589,0.354c0.147-0.006,0.357-0.145,0.626-0.414l0.102-0.097l-1.071-1.071
	c-0.526,0.525-0.962,0.808-1.306,0.849c-0.344,0.04-0.726-0.149-1.144-0.566c-0.404-0.405-0.585-0.779-0.542-1.121
	c0.044-0.342,0.328-0.776,0.852-1.3l-0.385-0.385l0.45-0.45l0.384,0.384c0.501-0.5,0.914-0.771,1.242-0.813
	c0.327-0.041,0.685,0.133,1.073,0.521l0.09,0.09l-0.646,0.646l-0.074-0.069c-0.292-0.293-0.623-0.257-0.989,0.11L-286.572-154.821z
	 M-287.026-154.373l-0.092,0.099c-0.396,0.396-0.437,0.751-0.125,1.064c0.328,0.328,0.69,0.295,1.083-0.099
	c0.003-0.004,0.039-0.035,0.104-0.094L-287.026-154.373z M-283.954-152.202l0.097-0.096c0.429-0.429,0.459-0.828,0.09-1.196
	c-0.201-0.202-0.381-0.287-0.541-0.255s-0.39,0.198-0.692,0.5L-283.954-152.202z"/>
</svg>
