<?xml version="1.0" encoding="utf-8"?>
<!-- Generator: Adobe Illustrator 16.0.0, SVG Export Plug-In . SVG Version: 6.00 Build 0)  -->
<!DOCTYPE svg PUBLIC "-//W3C//DTD SVG 1.1//EN" "http://www.w3.org/Graphics/SVG/1.1/DTD/svg11.dtd">
<svg version="1.1" id="Layer_1" xmlns="http://www.w3.org/2000/svg" xmlns:xlink="http://www.w3.org/1999/xlink" x="0px" y="0px"
	 width="50px" height="50px" viewBox="-245.5 -175.5 50 50" enable-background="new -245.5 -175.5 50 50" xml:space="preserve">
<path d="M-219.036-147.421c0.17,0.115,0.255,0.352,0.255,0.714c0,0.657-0.384,0.987-1.151,0.987h-0.171v-1.873
	C-219.563-147.593-219.208-147.535-219.036-147.421z M-222.145-149.564c0,0.587,0.352,0.88,1.057,0.88
	c0.007,0,0.065,0.002,0.177,0.009v-1.734l-0.172,0.005C-221.792-150.405-222.145-150.125-222.145-149.564z M-214-148.259
	c0,3.59-2.911,6.501-6.5,6.501s-6.5-2.911-6.5-6.501c0-3.591,2.911-6.5,6.5-6.5S-214-151.85-214-148.259z M-217.572-146.728
	c0-0.694-0.155-1.173-0.467-1.433c-0.312-0.262-0.911-0.416-1.8-0.465l-0.266-0.011v-1.77h0.187c0.656,0,0.983,0.262,0.983,0.787
	l0.004,0.128h1.156v-0.164c0-0.694-0.165-1.17-0.494-1.425c-0.33-0.256-0.941-0.383-1.837-0.383v-0.688h-0.807v0.688
	c-0.937,0-1.579,0.133-1.924,0.4c-0.347,0.267-0.52,0.763-0.52,1.486c0,0.747,0.173,1.257,0.517,1.53
	c0.344,0.271,0.986,0.407,1.927,0.407v1.918l-0.177-0.004c-0.482,0-0.793-0.063-0.932-0.19c-0.139-0.126-0.209-0.407-0.209-0.844
	v-0.122h-1.195l-0.005,0.241c0,0.714,0.171,1.216,0.515,1.505c0.341,0.287,0.935,0.432,1.777,0.432l0.226,0.006v0.792h0.807v-0.792
	l0.246-0.006c0.846,0,1.438-0.151,1.778-0.451C-217.742-145.456-217.572-145.979-217.572-146.728z M-205.375-158.353v19.594h-30.25
	v-19.594h8.686v-3.889h12.878v3.889H-205.375z M-224.939-158.353h8.878v-1.889h-8.878V-158.353z M-207.375-156.353h-26.25v15.594
	h26.25V-156.353z"/>
</svg>
