<?xml version="1.0" encoding="utf-8"?>
<!-- Generator: Adobe Illustrator 16.0.0, SVG Export Plug-In . SVG Version: 6.00 Build 0)  -->
<!DOCTYPE svg PUBLIC "-//W3C//DTD SVG 1.1//EN" "http://www.w3.org/Graphics/SVG/1.1/DTD/svg11.dtd">
<svg version="1.1" id="Layer_1" xmlns="http://www.w3.org/2000/svg" xmlns:xlink="http://www.w3.org/1999/xlink" x="0px" y="0px"
	 width="50px" height="50px" viewBox="-175.5 -175.5 50 50" enable-background="new -175.5 -175.5 50 50" xml:space="preserve">
<path d="M-146.59-139.963h-8.844v-2.382c0-1.234,0.222-2.054,0.664-2.459c0.443-0.405,1.496-0.757,3.159-1.054
	c1.376-0.246,2.192-0.47,2.446-0.672c0.254-0.204,0.382-0.728,0.382-1.573c0-0.812-0.127-1.326-0.382-1.543
	c-0.253-0.216-0.858-0.325-1.812-0.325c-0.983,0-1.602,0.11-1.859,0.329c-0.257,0.221-0.386,0.757-0.386,1.607v0.497h-2.177v-0.488
	c0-1.468,0.302-2.457,0.908-2.965c0.606-0.509,1.78-0.763,3.522-0.763c1.703,0,2.858,0.257,3.466,0.771
	c0.609,0.515,0.914,1.491,0.914,2.931c0,1.36-0.231,2.27-0.695,2.729c-0.463,0.46-1.528,0.845-3.196,1.153
	c-1.377,0.251-2.176,0.464-2.399,0.639c-0.223,0.174-0.334,0.672-0.334,1.495v0.317h6.625V-139.963z M-135.09-144.188v1.714h-1.346
	v2.511h-2.219v-2.511h-6.316v-2.494l5.108-6.692h3.428v7.473H-135.09z M-138.655-149.981h-0.069l-4.43,5.793h4.499V-149.981z
	 M-147.823-154.989c0.527,0.526,0.664,1.517,1.33,1.438c1.667-0.198,6.114-2.627,6.573-4.321c0.309-1.135-1.731-3.065-2.453-3.787
	c-2.446-2.447-7.108-1.75-10.415,1.556l-11.372,11.371c-3.306,3.306-4.001,7.967-1.554,10.414c0.721,0.722,2.651,2.762,3.786,2.454
	c1.692-0.46,4.11-4.901,4.313-6.566c0.083-0.671-0.906-0.813-1.43-1.337c-1.744-1.744-0.645-5.667,2.454-8.767
	C-153.492-155.633-149.566-156.733-147.823-154.989z M-152.305-136.482h-1.93v-1.68h-0.781v4.117h0.781v-1.779h1.93v1.779h0.781
	v-4.117h-0.781V-136.482z M-147.645-137.826c0.215,0.249,0.322,0.804,0.322,1.667c0,0.943-0.107,1.537-0.324,1.783
	c-0.216,0.245-0.739,0.368-1.569,0.368c-0.748,0-1.231-0.121-1.451-0.363c-0.219-0.242-0.328-0.776-0.328-1.6
	c0-0.981,0.107-1.598,0.322-1.849c0.215-0.251,0.743-0.377,1.584-0.377C-148.342-138.198-147.86-138.074-147.645-137.826z
	 M-148.116-136.117c0-0.689-0.046-1.097-0.137-1.223c-0.092-0.126-0.391-0.188-0.897-0.188c-0.525,0-0.832,0.067-0.92,0.202
	c-0.089,0.135-0.133,0.602-0.133,1.4c0,0.591,0.052,0.947,0.155,1.067s0.408,0.181,0.915,0.181c0.484,0,0.775-0.068,0.872-0.204
	S-148.116-135.429-148.116-136.117z M-144.146-135.408c0,0.322-0.053,0.524-0.159,0.606c-0.105,0.082-0.364,0.124-0.776,0.124
	c-0.402,0-0.657-0.041-0.766-0.122c-0.109-0.082-0.163-0.274-0.163-0.578v-2.784h-0.781v2.784c0,0.563,0.111,0.932,0.335,1.107
	c0.223,0.175,0.693,0.262,1.411,0.262c0.68,0,1.13-0.092,1.35-0.277c0.221-0.185,0.33-0.564,0.33-1.137v-2.739h-0.78V-135.408z
	 M-140.014-135.779v0.027c0.456,0.028,0.685,0.294,0.685,0.799v0.908h-0.781v-0.751c0-0.424-0.209-0.636-0.627-0.636h-1.125v1.387
	h-0.781v-4.117h2.029c0.505,0,0.853,0.088,1.044,0.263s0.286,0.492,0.286,0.95c0,0.416-0.047,0.701-0.143,0.854
	S-139.718-135.837-140.014-135.779z M-140.078-136.808c0-0.293-0.037-0.483-0.113-0.568c-0.075-0.085-0.24-0.128-0.496-0.128h-1.176
	v1.415h1.122c0.268,0,0.444-0.048,0.532-0.143C-140.122-136.329-140.078-136.52-140.078-136.808z M-136.967-136.449
	c-0.52-0.028-0.825-0.068-0.917-0.121c-0.093-0.052-0.139-0.208-0.139-0.468c0-0.219,0.057-0.363,0.17-0.431
	s0.355-0.103,0.726-0.103c0.313,0,0.513,0.03,0.597,0.089c0.085,0.06,0.136,0.205,0.154,0.436c0,0.018,0.002,0.046,0.006,0.084
	h0.764v-0.157c0-0.426-0.108-0.713-0.323-0.86c-0.215-0.146-0.633-0.22-1.252-0.22c-0.653,0-1.089,0.08-1.308,0.24
	c-0.218,0.16-0.327,0.48-0.327,0.961c0,0.47,0.091,0.777,0.271,0.92c0.182,0.143,0.598,0.233,1.249,0.271l0.432,0.027
	c0.243,0.014,0.401,0.054,0.475,0.119s0.11,0.198,0.11,0.396c0,0.27-0.049,0.441-0.145,0.516c-0.097,0.074-0.32,0.111-0.67,0.111
	c-0.448,0-0.723-0.032-0.823-0.096c-0.101-0.064-0.151-0.24-0.151-0.528l-0.003-0.087h-0.76l0.003,0.15
	c0,0.479,0.106,0.796,0.318,0.953c0.212,0.157,0.642,0.235,1.289,0.235c0.72,0,1.186-0.08,1.396-0.24s0.316-0.513,0.316-1.06
	c0-0.444-0.09-0.737-0.27-0.878C-135.958-136.327-136.354-136.415-136.967-136.449z"/>
</svg>
