<?xml version="1.0" encoding="utf-8"?>
<!-- Generator: Adobe Illustrator 16.0.0, SVG Export Plug-In . SVG Version: 6.00 Build 0)  -->
<!DOCTYPE svg PUBLIC "-//W3C//DTD SVG 1.1//EN" "http://www.w3.org/Graphics/SVG/1.1/DTD/svg11.dtd">
<svg version="1.1" id="Layer_1" xmlns="http://www.w3.org/2000/svg" xmlns:xlink="http://www.w3.org/1999/xlink" x="0px" y="0px"
	 width="50px" height="50px" viewBox="-105.5 -175.5 50 50" enable-background="new -105.5 -175.5 50 50" xml:space="preserve">
<path d="M-78.95-164.418l-5.152,2.975l-9.026-5.347l-6.102,10.297l3.234,1.916l-0.134,0.078v20.26h1.465l0.016,0.029l0.054-0.029
	h31.288l0.054,0.029l0.017-0.029h1.465v-20.26L-78.95-164.418z M-78.95-162.108l14.187,8.19l-11.729,6.771l4.292-7.246l-9.927-5.881
	L-78.95-162.108z M-89.242-157.532c1.154-1.948,3.667-2.592,5.616-1.438c1.949,1.154,2.593,3.669,1.438,5.617
	c-1.154,1.948-3.668,2.592-5.617,1.438C-89.753-153.069-90.396-155.583-89.242-157.532z M-94.129-152.182l13.669,7.892
	l-13.669,7.513V-152.182z M-90.955-136.239l12.004-6.598l12.005,6.598H-90.955z M-63.771-136.776l-13.67-7.513l13.67-7.893V-136.776
	z M-87.553-153.329l0.152,0.096l-0.32,0.541l0.551,0.327l0.321-0.542l0.169,0.097c0.579,0.343,1.045,0.48,1.4,0.412
	c0.353-0.07,0.682-0.359,0.986-0.871c0.282-0.476,0.368-0.865,0.261-1.169c-0.107-0.306-0.455-0.655-1.042-1.048l-0.179-0.114
	l0.718-1.211l0.128,0.075c0.449,0.267,0.566,0.578,0.354,0.937l-0.049,0.09l0.79,0.468l0.066-0.11
	c0.281-0.475,0.362-0.868,0.24-1.175c-0.122-0.31-0.489-0.646-1.101-1.008l0.278-0.471l-0.55-0.327l-0.279,0.471
	c-0.642-0.379-1.134-0.549-1.48-0.507c-0.344,0.044-0.663,0.313-0.957,0.809c-0.303,0.512-0.391,0.931-0.267,1.255
	c0.126,0.325,0.51,0.681,1.153,1.062l-0.776,1.312l-0.12-0.075c-0.33-0.195-0.517-0.365-0.56-0.507
	c-0.044-0.144,0.022-0.364,0.198-0.663l0.05-0.084l-0.817-0.484l-0.102,0.165c-0.289,0.487-0.376,0.9-0.257,1.236
	C-88.476-154.009-88.129-153.669-87.553-153.329z M-86.272-157.063c0.227-0.384,0.583-0.433,1.068-0.145l0.12,0.065l-0.704,1.188
	c-0.074-0.05-0.113-0.077-0.117-0.079C-86.387-156.317-86.51-156.663-86.272-157.063z M-85.675-154.888
	c0.37,0.22,0.59,0.401,0.659,0.55c0.07,0.147,0.034,0.345-0.114,0.591c-0.266,0.451-0.662,0.521-1.188,0.21l-0.117-0.069
	L-85.675-154.888z"/>
</svg>
