<?xml version="1.0" encoding="utf-8"?>
<!-- Generator: Adobe Illustrator 16.0.0, SVG Export Plug-In . SVG Version: 6.00 Build 0)  -->
<!DOCTYPE svg PUBLIC "-//W3C//DTD SVG 1.1//EN" "http://www.w3.org/Graphics/SVG/1.1/DTD/svg11.dtd">
<svg version="1.1" id="Layer_1" xmlns="http://www.w3.org/2000/svg" xmlns:xlink="http://www.w3.org/1999/xlink" x="0px" y="0px"
	 width="50px" height="50px" viewBox="-35.5 -175.5 50 50" enable-background="new -35.5 -175.5 50 50" xml:space="preserve">
<path d="M-3.663-162.473l0,1.471h-1.562v1.596h-0.669v20.869H4.375v-0.596h1.668v-1.471h1.562v-21.868L-3.663-162.473z
	 M-0.76-145.455c-1.942,0-3.517-1.574-3.517-3.517c0-1.943,1.574-3.517,3.517-3.517c1.943,0,3.517,1.573,3.517,3.517
	C2.757-147.029,1.183-145.455-0.76-145.455z M5.043-140.133H4.375l-0.001-19.272l-8.599-0.001v-0.596h9.268V-140.133z
	 M6.605-141.604H6.043v-19.398h-8.707l0-0.471l9.268,0.001V-141.604z M1.215-150.563c-0.183-0.235-0.521-0.353-1.015-0.354
	c-0.51,0-0.858,0.118-1.043,0.352c-0.185,0.235-0.279,0.674-0.279,1.315h-1.307l0.002-0.121c0-0.328,0.044-0.541,0.13-0.635
	c0.086-0.096,0.278-0.144,0.575-0.144h0.083v-0.814l-0.165-0.003c-0.487,0-0.829,0.116-1.026,0.351
	c-0.197,0.233-0.295,0.638-0.295,1.212l-0.003,0.154h-0.54v0.55h0.541l0.003,0.167c0,0.577,0.103,0.981,0.309,1.214
	c0.206,0.23,0.563,0.347,1.074,0.347c0.474,0,0.799-0.106,0.977-0.318c0.178-0.213,0.284-0.622,0.317-1.228l0.006-0.182h1.208
	l0,0.128c0,0.447-0.179,0.671-0.536,0.671l-0.087,0.003v0.788h0.11c0.473,0,0.798-0.112,0.972-0.337
	c0.175-0.226,0.262-0.643,0.262-1.253h0.469v-0.55h-0.47C1.487-149.89,1.397-150.327,1.215-150.563z M-1.27-147.973
	c-0.078,0.116-0.24,0.175-0.486,0.174c-0.449,0.001-0.674-0.261-0.674-0.784l0-0.117h1.277
	C-1.152-148.331-1.191-148.089-1.27-147.973z M-0.414-149.25c0.004-0.076,0.007-0.116,0.006-0.121c0-0.479,0.201-0.721,0.601-0.721
	c0.382,0,0.574,0.241,0.574,0.725l0.004,0.117H-0.414z M-26.829-147.043l4.568-3.042l-4.568-3.042v-6.275h10.327v6.275l-4.568,3.042
	l4.568,3.042v6.276h-10.327V-147.043z M-28.605-161.644h13.879v2h-13.879V-161.644z M-28.605-140.527h13.879v2h-13.879V-140.527z
	 M-14.726-153.901h6.361v2h-6.361V-153.901z M-14.726-149.997h6.361v2h-6.361V-149.997z"/>
</svg>
