<?xml version="1.0" encoding="utf-8"?>
<!-- Generator: Adobe Illustrator 16.0.0, SVG Export Plug-In . SVG Version: 6.00 Build 0)  -->
<!DOCTYPE svg PUBLIC "-//W3C//DTD SVG 1.1//EN" "http://www.w3.org/Graphics/SVG/1.1/DTD/svg11.dtd">
<svg version="1.1" id="Layer_1" xmlns="http://www.w3.org/2000/svg" xmlns:xlink="http://www.w3.org/1999/xlink" x="0px" y="0px"
	 width="50px" height="50px" viewBox="34.5 -175.5 50 50" enable-background="new 34.5 -175.5 50 50" xml:space="preserve">
<path d="M72.466-160.639c-8.06,0-12.636-5.146-12.636-5.146s-5.236,5.146-13.296,5.146c0,0-0.82,10.136,1.868,15.958
	c1.875,4.061,5.666,7.504,11.097,9.467c5.433-1.962,9.224-5.247,11.101-9.307C73.286-150.344,72.466-160.639,72.466-160.639z
	 M59.5-142.625c-4.35,0-7.875-3.526-7.875-7.875s3.525-7.875,7.875-7.875s7.875,3.526,7.875,7.875S63.85-142.625,59.5-142.625z
	 M60.029-153.686v2.372l0.357,0.014c1.189,0.065,1.993,0.273,2.412,0.622c0.416,0.35,0.625,0.99,0.625,1.921
	c0,1.001-0.228,1.705-0.682,2.109c-0.455,0.404-1.25,0.606-2.383,0.606l-0.33,0.006v1.061h-1.08v-1.061l-0.303-0.006
	c-1.129,0-1.923-0.193-2.383-0.58c-0.458-0.386-0.688-1.058-0.688-2.016l0.007-0.323h1.601v0.165c0,0.584,0.094,0.961,0.281,1.13
	c0.186,0.169,0.602,0.254,1.248,0.254l0.236,0.006v-2.57c-1.26,0-2.121-0.182-2.582-0.546s-0.691-1.048-0.691-2.049
	c0-0.971,0.23-1.635,0.694-1.993c0.464-0.357,1.323-0.537,2.579-0.537v-0.922h1.08v0.922c1.201,0,2.021,0.172,2.463,0.514
	c0.441,0.343,0.661,0.98,0.661,1.911v0.218h-1.548l-0.008-0.171c0-0.704-0.438-1.055-1.316-1.055H60.029z M58.949-153.693
	l-0.23,0.007c-0.949,0-1.423,0.376-1.423,1.127c0,0.786,0.473,1.18,1.417,1.18c0.009,0,0.088,0.004,0.236,0.013V-153.693z
	 M60.029-147.407h0.231c1.028,0,1.542-0.441,1.542-1.324c0-0.484-0.113-0.802-0.343-0.956c-0.229-0.154-0.705-0.231-1.431-0.231
	V-147.407z"/>
</svg>
