<?xml version="1.0" encoding="utf-8"?>
<!-- Generator: Adobe Illustrator 16.0.0, SVG Export Plug-In . SVG Version: 6.00 Build 0)  -->
<!DOCTYPE svg PUBLIC "-//W3C//DTD SVG 1.1//EN" "http://www.w3.org/Graphics/SVG/1.1/DTD/svg11.dtd">
<svg version="1.1" id="Layer_1" xmlns="http://www.w3.org/2000/svg" xmlns:xlink="http://www.w3.org/1999/xlink" x="0px" y="0px"
	 width="50px" height="50px" viewBox="174.5 -175.5 50 50" enable-background="new 174.5 -175.5 50 50" xml:space="preserve">
<path d="M200.608-145.887l-0.445-0.017v-2.967h0.313c1.099,0,1.647,0.44,1.647,1.319l0.009,0.214h1.937v-0.272
	c0-1.165-0.275-1.961-0.828-2.39c-0.552-0.428-1.578-0.643-3.078-0.643v-1.154h-1.352v1.154c-1.57,0-2.646,0.224-3.227,0.671
	c-0.578,0.448-0.869,1.279-0.869,2.493c0,1.253,0.289,2.107,0.865,2.563c0.578,0.456,1.654,0.684,3.23,0.684v3.214l-0.297-0.008
	c-0.807,0-1.328-0.105-1.561-0.317c-0.234-0.211-0.352-0.683-0.352-1.414v-0.206h-2.002l-0.008,0.404
	c0,1.198,0.287,2.039,0.861,2.521c0.574,0.483,1.566,0.726,2.979,0.726l0.379,0.008v1.327h1.352v-1.327l0.412-0.008
	c1.418,0,2.41-0.253,2.979-0.759c0.567-0.505,0.853-1.384,0.853-2.637c0-1.165-0.26-1.965-0.782-2.402
	S202.097-145.805,200.608-145.887z M198.812-145.97c-0.187-0.011-0.285-0.016-0.297-0.016c-1.18,0-1.771-0.492-1.771-1.475
	c0-0.939,0.594-1.41,1.78-1.41l0.288-0.008V-145.97z M200.451-141.018h-0.288v-3.14c0.906,0,1.502,0.097,1.789,0.289
	c0.285,0.192,0.428,0.59,0.428,1.195C202.38-141.569,201.737-141.018,200.451-141.018z M203.915-157.833h-8.83
	c-3.627,0-6.578,2.951-6.578,6.578v12.782c0,3.627,2.951,6.578,6.578,6.578h8.83c3.627,0,6.578-2.951,6.578-6.578v-12.782
	C210.493-154.882,207.542-157.833,203.915-157.833z M208.493-138.474c0,2.524-2.054,4.578-4.578,4.578h-8.83
	c-2.524,0-4.578-2.054-4.578-4.578v-12.782c0-2.524,2.054-4.578,4.578-4.578h8.83c2.524,0,4.578,2.054,4.578,4.578V-138.474z
	 M203.965-160.388l3.299-8.716h-15.527l3.299,8.716H203.965z M204.369-167.104l-1.785,4.716h-6.168l-1.785-4.716H204.369z
	 M192.761-159.541h13.479v1h-13.479V-159.541z"/>
</svg>
