<?xml version="1.0" encoding="utf-8"?>
<!-- Generator: Adobe Illustrator 16.0.0, SVG Export Plug-In . SVG Version: 6.00 Build 0)  -->
<!DOCTYPE svg PUBLIC "-//W3C//DTD SVG 1.1//EN" "http://www.w3.org/Graphics/SVG/1.1/DTD/svg11.dtd">
<svg version="1.1" id="Layer_1" xmlns="http://www.w3.org/2000/svg" xmlns:xlink="http://www.w3.org/1999/xlink" x="0px" y="0px"
	 width="50px" height="50px" viewBox="314.5 -175.5 50 50" enable-background="new 314.5 -175.5 50 50" xml:space="preserve">
<path d="M326.477-154.588v15.519h26.047v-15.519H326.477z M350.523-147.828h-4.128v-4.76h4.128V-147.828z M338.5-145.828v4.759
	h-3.896v-4.759H338.5z M334.604-147.828v-4.76h3.896v4.76H334.604z M340.5-145.828h3.896v4.759H340.5V-145.828z M340.5-147.828
	v-4.76h3.896v4.76H340.5z M332.604-152.588v4.76h-4.128v-4.76H332.604z M328.477-145.828h4.128v4.759h-4.128V-145.828z
	 M346.396-141.069v-4.759h4.128v4.759H346.396z M353.333-157.245v2h-27.666v-2h8.829l-4.55-6.155l1.607-1.188l5.429,7.344h5.035
	l5.429-7.344l1.607,1.188l-4.55,6.155H353.333z M325.667-138.411h27.666v2h-27.666V-138.411z"/>
</svg>
