<?xml version="1.0" encoding="utf-8"?>
<!-- Generator: Adobe Illustrator 16.0.0, SVG Export Plug-In . SVG Version: 6.00 Build 0)  -->
<!DOCTYPE svg PUBLIC "-//W3C//DTD SVG 1.1//EN" "http://www.w3.org/Graphics/SVG/1.1/DTD/svg11.dtd">
<svg version="1.1" id="Layer_1" xmlns="http://www.w3.org/2000/svg" xmlns:xlink="http://www.w3.org/1999/xlink" x="0px" y="0px"
	 width="50px" height="50px" viewBox="-315.5 -105.5 50 50" enable-background="new -315.5 -105.5 50 50" xml:space="preserve">
<path d="M-277.356-71.585h-2v-1h1v-1h1V-71.585z M-300.206-75.563c0,0.723,0.433,1.083,1.301,1.083c0.008,0,0.08,0.003,0.218,0.011
	v-2.135l-0.212,0.006C-299.772-76.598-300.206-76.252-300.206-75.563z M-280.215-79.92c1.174,0,2.126-0.951,2.126-2.126
	c0-1.174-0.952-2.126-2.126-2.126c-1.175,0-2.127,0.952-2.127,2.126C-282.342-80.871-281.39-79.92-280.215-79.92z M-286.125-71.585
	h3.384v-1h-3.384V-71.585z M-296.381-72.924c-0.211-0.141-0.648-0.212-1.314-0.212v2.306h0.211c0.944,0,1.417-0.406,1.417-1.216
	C-296.067-72.491-296.172-72.782-296.381-72.924z M-289.51-92.507h-3.384v1h3.384V-92.507z M-297.278-87.123h-1v3.385h1V-87.123z
	 M-274.817-95.046v26h-17.057c-1.464,1.878-3.742,3.092-6.308,3.092c-4.418,0-8-3.583-8-8.001c0-3.495,2.244-6.457,5.365-7.547
	v-13.544H-274.817z M-294.578-72.071c0-0.854-0.191-1.443-0.575-1.763c-0.383-0.322-1.121-0.512-2.215-0.572l-0.327-0.014v-2.178
	h0.23c0.808,0,1.21,0.322,1.21,0.969l0.006,0.158h1.422v-0.202c0-0.854-0.202-1.44-0.606-1.754
	c-0.406-0.314-1.159-0.471-2.262-0.471v-0.848h-0.992v0.848c-1.153,0-1.943,0.163-2.369,0.492c-0.426,0.328-0.64,0.939-0.64,1.83
	c0,0.919,0.214,1.546,0.637,1.883c0.424,0.334,1.214,0.501,2.372,0.501v2.361l-0.218-0.005c-0.594,0-0.977-0.078-1.146-0.234
	c-0.171-0.155-0.258-0.502-0.258-1.039v-0.15h-1.47l-0.007,0.297c0,0.879,0.21,1.497,0.633,1.853
	c0.421,0.354,1.151,0.531,2.188,0.531l0.278,0.007v0.975h0.992v-0.975l0.303-0.007c1.041,0,1.771-0.187,2.188-0.556
	C-294.787-70.506-294.578-71.15-294.578-72.071z M-276.817-85.201h-7.086v6.311h7.086V-85.201z M-276.817-93.046h-22v11.123
	c0.21-0.017,0.42-0.032,0.635-0.032c4.418,0,8.001,3.58,8.001,8c0,0.468-0.048,0.924-0.125,1.37h0.798v1h-1.03
	c-0.057,0.184-0.127,0.361-0.196,0.539h13.918v-6.845h-0.539v1.48h-1v-1.48h-6.547v-8.311h6.547v-0.781h1v0.781h0.539V-93.046z
	 M-278.356-90.507h1v-2h-2v1h1V-90.507z M-282.741-92.507h-3.385v1h3.385V-92.507z M-297.278-91.507h1v-1h-2v2h1V-91.507z"/>
</svg>
