<?xml version="1.0" encoding="utf-8"?>
<!-- Generator: Adobe Illustrator 16.0.0, SVG Export Plug-In . SVG Version: 6.00 Build 0)  -->
<!DOCTYPE svg PUBLIC "-//W3C//DTD SVG 1.1//EN" "http://www.w3.org/Graphics/SVG/1.1/DTD/svg11.dtd">
<svg version="1.1" id="Layer_1" xmlns="http://www.w3.org/2000/svg" xmlns:xlink="http://www.w3.org/1999/xlink" x="0px" y="0px"
	 width="50px" height="50px" viewBox="-245.5 -105.5 50 50" enable-background="new -245.5 -105.5 50 50" xml:space="preserve">
<path d="M-213.302-95.254l-0.64,0.64l-1.413-1.413l-1.334,1.334l-1.417-1.417l-19.633,19.633l10.02,10.021l1.333-1.333l1.417,1.417
	l1.348-1.348l0.707,0.707l18.927-18.927L-213.302-95.254z M-227.72-67.87l-8.605-8.607l18.219-18.219l0.71,0.71l-17.593,17.593
	l7.896,7.897L-227.72-67.87z M-232.229-76.327l7.899,7.899l-0.641,0.641l-8.605-8.606l18.22-18.22l0.706,0.706L-232.229-76.327z
	 M-214.919-77.944c-1.762,1.762-4.617,1.762-6.379,0c-1.761-1.762-1.761-4.617,0.001-6.379c1.761-1.763,4.617-1.762,6.378-0.001
	C-213.157-82.562-213.157-79.707-214.919-77.944z M-219.264-82.753l1.106,1.084l0.169-0.16c0.574-0.526,1.038-0.805,1.393-0.84
	c0.353-0.035,0.747,0.16,1.18,0.585c0.467,0.458,0.692,0.886,0.671,1.282c-0.018,0.397-0.287,0.859-0.805,1.388l-0.148,0.156
	l0.495,0.485l-0.493,0.504l-0.495-0.485l-0.142,0.139c-0.515,0.526-0.968,0.808-1.358,0.845c-0.39,0.038-0.808-0.163-1.254-0.6
	l-0.148-0.151l0.731-0.747l0.077,0.077c0.272,0.266,0.49,0.394,0.655,0.384c0.163-0.008,0.395-0.164,0.689-0.465l0.112-0.108
	l-1.198-1.174c-0.577,0.588-1.055,0.905-1.436,0.955c-0.381,0.048-0.805-0.157-1.272-0.615c-0.452-0.443-0.656-0.855-0.612-1.234
	c0.045-0.379,0.355-0.863,0.929-1.449l-0.431-0.421l0.493-0.503l0.43,0.421c0.549-0.559,1.003-0.864,1.366-0.913
	c0.361-0.05,0.759,0.14,1.193,0.565l0.1,0.099l-0.708,0.722l-0.083-0.075c-0.327-0.322-0.692-0.277-1.093,0.132L-219.264-82.753z
	 M-219.762-82.252l-0.101,0.11c-0.434,0.443-0.475,0.836-0.125,1.178c0.367,0.359,0.766,0.319,1.197-0.121
	c0.004-0.005,0.042-0.04,0.114-0.105L-219.762-82.252z M-216.338-79.883l0.107-0.107c0.47-0.48,0.499-0.921,0.087-1.325
	c-0.226-0.22-0.425-0.312-0.602-0.276c-0.176,0.037-0.429,0.223-0.761,0.561L-216.338-79.883z M-204.719-74.528v-3.361h-6.723v3.361
	h-1.458v9.639h9.639v-9.639H-204.719z M-206.364-67.907l-1.716,1.516l-1.716-1.516l0.431-1.611
	c-0.316-0.324-0.513-0.766-0.513-1.254c0-0.993,0.804-1.798,1.797-1.798s1.797,0.805,1.797,1.798c0,0.488-0.197,0.93-0.513,1.254
	L-206.364-67.907z M-205.719-74.528h-4.723v-2.361h4.723V-74.528z"/>
</svg>
