<?xml version="1.0" encoding="utf-8"?>
<!-- Generator: Adobe Illustrator 16.0.0, SVG Export Plug-In . SVG Version: 6.00 Build 0)  -->
<!DOCTYPE svg PUBLIC "-//W3C//DTD SVG 1.1//EN" "http://www.w3.org/Graphics/SVG/1.1/DTD/svg11.dtd">
<svg version="1.1" id="Layer_1" xmlns="http://www.w3.org/2000/svg" xmlns:xlink="http://www.w3.org/1999/xlink" x="0px" y="0px"
	 width="50px" height="50px" viewBox="-175.5 -105.5 50 50" enable-background="new -175.5 -105.5 50 50" xml:space="preserve">
<path d="M-150.88-77.338c0,1.34-0.783,2.013-2.347,2.013h-0.35v-3.818c1.102,0,1.828,0.118,2.177,0.351
	C-151.053-78.558-150.88-78.077-150.88-77.338z M-133.366-85.421h-8.721c0.174,0.434,0.322,0.879,0.45,1.333h8.271v2h-7.871
	c0.053,0.438,0.083,0.883,0.091,1.333h7.779v2h-7.895c-0.044,0.336-0.091,0.672-0.16,1h8.055v2h-8.657
	c-0.176,0.457-0.372,0.903-0.595,1.333h9.252v2h-10.532c-0.361,0.468-0.744,0.918-1.164,1.333h11.695v2h-14.309
	c-1.969,1.161-4.257,1.838-6.708,1.838c-7.317,0-13.25-5.934-13.25-13.251c0-7.319,5.933-13.25,13.25-13.25
	c4.778,0,8.953,2.537,11.284,6.329h9.733V-85.421z M-148.415-77.38c0-1.415-0.316-2.391-0.952-2.92
	c-0.635-0.534-1.857-0.848-3.668-0.948l-0.542-0.022v-3.607h0.381c1.337,0,2.004,0.534,2.004,1.604l0.009,0.261h2.356v-0.334
	c0-1.415-0.335-2.385-1.006-2.904c-0.672-0.521-1.919-0.78-3.745-0.78v-1.403h-1.644v1.403c-1.91,0-3.219,0.271-3.923,0.816
	c-0.707,0.543-1.06,1.555-1.06,3.03c0,1.522,0.353,2.562,1.054,3.119c0.702,0.553,2.011,0.83,3.929,0.83v3.91l-0.36-0.008
	c-0.983,0-1.617-0.129-1.899-0.388c-0.284-0.257-0.426-0.83-0.426-1.72v-0.249h-2.436l-0.011,0.492c0,1.455,0.348,2.479,1.049,3.068
	c0.696,0.585,1.906,0.88,3.622,0.88l0.461,0.012v1.614h1.644v-1.614l0.5-0.012c1.724,0,2.933-0.309,3.624-0.92
	C-148.761-74.788-148.415-75.855-148.415-77.38z M-157.735-83.163c0,1.196,0.717,1.794,2.155,1.794c0.014,0,0.132,0.004,0.36,0.018
	v-3.535l-0.351,0.01C-157.016-84.876-157.735-84.305-157.735-83.163z"/>
</svg>
