<?xml version="1.0" encoding="utf-8"?>
<!-- Generator: Adobe Illustrator 16.0.0, SVG Export Plug-In . SVG Version: 6.00 Build 0)  -->
<!DOCTYPE svg PUBLIC "-//W3C//DTD SVG 1.1//EN" "http://www.w3.org/Graphics/SVG/1.1/DTD/svg11.dtd">
<svg version="1.1" id="Layer_1" xmlns="http://www.w3.org/2000/svg" xmlns:xlink="http://www.w3.org/1999/xlink" x="0px" y="0px"
	 width="50px" height="50px" viewBox="-105.5 -105.5 50 50" enable-background="new -105.5 -105.5 50 50" xml:space="preserve">
<path d="M-72.085-72.064c2.211-2.177,3.585-5.202,3.585-8.55c0-2.74-0.929-5.258-2.475-7.278c1.825-2.03,1.681-5.241,1.681-5.241
	s-3.421-0.159-5.434,1.854c-0.031,0.031-0.057,0.065-0.087,0.097c-1.692-0.913-3.628-1.432-5.686-1.432s-3.994,0.52-5.686,1.432
	c-0.03-0.032-0.056-0.066-0.087-0.097c-2.012-2.013-5.434-1.854-5.434-1.854s-0.144,3.211,1.681,5.241
	c-1.546,2.02-2.475,4.538-2.475,7.278c0,3.348,1.374,6.373,3.585,8.55c-0.682,0.386-1.148,1.11-1.148,1.95
	c0,1.243,1.007,2.25,2.25,2.25c1.123,0,2.045-0.824,2.214-1.898c1.549,0.729,3.272,1.148,5.098,1.148s3.549-0.419,5.098-1.148
	c0.169,1.074,1.092,1.898,2.214,1.898c1.243,0,2.25-1.007,2.25-2.25C-70.938-70.954-71.403-71.678-72.085-72.064z M-84.167-88.114
	h7.333v1h-7.333V-88.114z M-86.25-82.239c0-0.656,0.532-1.188,1.188-1.188s1.188,0.532,1.188,1.188s-0.532,1.188-1.188,1.188
	S-86.25-81.583-86.25-82.239z M-80.5-71.614c-2.416,0-4.375-1.959-4.375-4.375s1.959-4.375,4.375-4.375s4.375,1.959,4.375,4.375
	S-78.084-71.614-80.5-71.614z M-75.938-81.052c-0.656,0-1.188-0.532-1.188-1.188s0.532-1.188,1.188-1.188s1.188,0.532,1.188,1.188
	S-75.282-81.052-75.938-81.052z M-81.219-76.864c0,0.708-0.574,1.281-1.281,1.281s-1.281-0.574-1.281-1.281s0.574-1.281,1.281-1.281
	S-81.219-77.572-81.219-76.864z M-77.219-76.864c0,0.708-0.574,1.281-1.281,1.281s-1.281-0.574-1.281-1.281s0.574-1.281,1.281-1.281
	S-77.219-77.572-77.219-76.864z"/>
</svg>
