<?xml version="1.0" encoding="utf-8"?>
<!-- Generator: Adobe Illustrator 16.0.0, SVG Export Plug-In . SVG Version: 6.00 Build 0)  -->
<!DOCTYPE svg PUBLIC "-//W3C//DTD SVG 1.1//EN" "http://www.w3.org/Graphics/SVG/1.1/DTD/svg11.dtd">
<svg version="1.1" id="Layer_1" xmlns="http://www.w3.org/2000/svg" xmlns:xlink="http://www.w3.org/1999/xlink" x="0px" y="0px"
	 width="50px" height="50px" viewBox="-35.5 -105.5 50 50" enable-background="new -35.5 -105.5 50 50" xml:space="preserve">
<path d="M-18.151-65.926l16.323-0.006l2.687-25.154l-22.686,0.065L-18.151-65.926z M-10.329-82.636
	c3.896-0.043,6.928,1.814,6.771,4.151c-0.154,2.339-3.109,4.25-6.598,4.271c-3.49,0.021-6.521-1.838-6.773-4.154
	C-17.18-80.682-14.225-82.593-10.329-82.636z M3.797-95.074v9.421h-2v-7.421h-24.594v7.421h-2v-9.421H3.797z M-7.347-78.123
	l-2.287,0.019l-0.007,0.218c-0.055,0.727-0.245,1.219-0.571,1.475c-0.322,0.256-0.917,0.389-1.792,0.396
	c-0.939,0.006-1.605-0.129-2.006-0.399c-0.403-0.275-0.63-0.757-0.687-1.446l-0.022-0.198l-1.02,0.008l-0.063-0.656l1.03-0.009
	l-0.006-0.184c-0.057-0.686,0.097-1.17,0.458-1.453c0.364-0.283,1.029-0.429,1.982-0.438h0.323l0.042,0.974l-0.162,0.002
	c-0.576,0.007-0.943,0.066-1.105,0.182c-0.157,0.114-0.227,0.368-0.201,0.761l0.002,0.146l2.496-0.022
	c-0.022-0.769,0.145-1.294,0.497-1.581c0.357-0.281,1.036-0.431,2.034-0.441c0.968-0.008,1.628,0.126,1.977,0.404
	c0.346,0.281,0.501,0.805,0.476,1.574l0.897-0.009l-0.033,0.66l-0.89,0.008c-0.024,0.732-0.205,1.235-0.538,1.509
	c-0.328,0.271-0.934,0.412-1.806,0.418l-0.203,0.002l0.002-0.945l0.164-0.005c0.668-0.006,1.005-0.275,1.016-0.813L-7.347-78.123z
	 M-7.327-78.784l-0.004-0.14c0.01-0.581-0.355-0.866-1.095-0.859c-0.773,0.007-1.159,0.3-1.151,0.875
	c0.001,0.005-0.005,0.053-0.013,0.145L-7.327-78.784z M-13.396-78.072l0.009,0.14c0.039,0.626,0.477,0.936,1.314,0.928
	c0.459-0.001,0.76-0.074,0.9-0.216c0.145-0.14,0.207-0.429,0.194-0.871L-13.396-78.072z"/>
</svg>
