<?xml version="1.0" encoding="utf-8"?>
<!-- Generator: Adobe Illustrator 16.0.0, SVG Export Plug-In . SVG Version: 6.00 Build 0)  -->
<!DOCTYPE svg PUBLIC "-//W3C//DTD SVG 1.1//EN" "http://www.w3.org/Graphics/SVG/1.1/DTD/svg11.dtd">
<svg version="1.1" id="Layer_1" xmlns="http://www.w3.org/2000/svg" xmlns:xlink="http://www.w3.org/1999/xlink" x="0px" y="0px"
	 width="50px" height="50px" viewBox="34.5 -105.5 50 50" enable-background="new 34.5 -105.5 50 50" xml:space="preserve">
<path d="M55.946-87.759l-2.687-7.095h12.48l-2.687,7.095H55.946z M54.388-86.479h10.225v-1H54.388V-86.479z M67.77-83.46
	l-1.604-4.242h7.545l-1.604,4.242H67.77z M67.612-86.702l0.849,2.242h2.953l0.849-2.242H67.612z M46.895-83.46l-1.604-4.242h7.545
	L51.23-83.46H46.895z M46.737-86.702l0.849,2.242h2.953l0.849-2.242H46.737z M61.36-75.469c-0.218-0.146-0.67-0.219-1.357-0.219
	v2.382h0.219c0.976,0,1.463-0.419,1.463-1.256C61.685-75.021,61.577-75.324,61.36-75.469z M57.409-78.195
	c0,0.746,0.448,1.119,1.344,1.119c0.008,0,0.084,0.004,0.225,0.012v-2.207l-0.219,0.006C57.859-79.264,57.409-78.908,57.409-78.195z
	 M75.261-79.069v6.17c0,1.76-1.432,3.192-3.192,3.192h-4.239c-0.701,2.063-2.635,3.561-4.932,3.561h-6.699
	c-2.299,0-4.235-1.501-4.935-3.568c-0.023,0-0.046,0.007-0.07,0.007h-4.262c-1.761,0-3.192-1.432-3.192-3.192v-6.17
	c0-1.76,1.432-3.192,3.192-3.192h4.185c0.005-0.022,0.016-0.042,0.021-0.065H45.81v-1h5.698c0.843-1.754,2.617-2.978,4.69-2.978
	h6.699c2.073,0,3.848,1.223,4.69,2.978h5.603v1h-5.232c0.006,0.022,0.017,0.042,0.021,0.065h4.089
	C73.829-82.262,75.261-80.83,75.261-79.069z M51.035-70.707c-0.028-0.222-0.067-0.44-0.067-0.67v-9.696
	c0-0.064,0.017-0.125,0.02-0.188h-4.056c-1.209,0-2.192,0.983-2.192,2.192v6.17c0,1.209,0.983,2.192,2.192,2.192H51.035z
	 M63.223-74.588c0-0.884-0.197-1.491-0.594-1.822c-0.396-0.332-1.159-0.528-2.288-0.591l-0.338-0.013v-2.25h0.238
	c0.833,0,1.25,0.333,1.25,1l0.006,0.163h1.469v-0.207c0-0.883-0.209-1.488-0.628-1.813c-0.419-0.325-1.197-0.488-2.335-0.488v-0.875
	h-1.025v0.875c-1.191,0-2.008,0.17-2.447,0.51c-0.438,0.34-0.66,0.97-0.66,1.891c0,0.95,0.221,1.598,0.657,1.944
	c0.438,0.345,1.255,0.519,2.45,0.519v2.438l-0.225-0.006c-0.612,0-1.008-0.08-1.184-0.241c-0.178-0.16-0.268-0.518-0.268-1.072
	v-0.156h-1.519l-0.006,0.306c0,0.909,0.218,1.546,0.653,1.913s1.188,0.55,2.26,0.55l0.287,0.006V-71h1.025v-1.007l0.313-0.006
	c1.076,0,1.828-0.192,2.26-0.576C63.007-72.971,63.223-73.638,63.223-74.588z M74.261-79.069c0-1.209-0.983-2.192-2.192-2.192h-3.96
	c0.003,0.064,0.02,0.124,0.02,0.188v9.696c0,0.229-0.039,0.448-0.067,0.67h4.008c1.209,0,2.192-0.983,2.192-2.192V-79.069z"/>
</svg>
