<?xml version="1.0" encoding="utf-8"?>
<!-- Generator: Adobe Illustrator 16.0.0, SVG Export Plug-In . SVG Version: 6.00 Build 0)  -->
<!DOCTYPE svg PUBLIC "-//W3C//DTD SVG 1.1//EN" "http://www.w3.org/Graphics/SVG/1.1/DTD/svg11.dtd">
<svg version="1.1" id="Layer_1" xmlns="http://www.w3.org/2000/svg" xmlns:xlink="http://www.w3.org/1999/xlink" x="0px" y="0px"
	 width="50px" height="50px" viewBox="104.5 -105.5 50 50" enable-background="new 104.5 -105.5 50 50" xml:space="preserve">
<path d="M123.12-78.056l-0.713-0.701l6.349-6.452l2.351,2.44l4.072-3.9l-1.187-1.187h3.024v3.024l-1.131-1.13l-4.809,4.604
	l-2.329-2.419L123.12-78.056z M125.059-73.413h3.645v-5.129h-3.645V-73.413z M130.12-73.413h3.644v-6.748h-3.644V-73.413z
	 M135.182-73.413h3.645v-10.123h-3.645V-73.413z M144.75-91.149v21.298h-30.5v-21.298H144.75z M117.836-80.709
	c0-0.656-0.533-1.187-1.188-1.187s-1.187,0.531-1.187,1.187c0,0.655,0.531,1.188,1.187,1.188S117.836-80.054,117.836-80.709z
	 M142.75-89.149h-23.424v17.298h23.424V-89.149z"/>
</svg>
