<?xml version="1.0" encoding="utf-8"?>
<!-- Generator: Adobe Illustrator 16.0.0, SVG Export Plug-In . SVG Version: 6.00 Build 0)  -->
<!DOCTYPE svg PUBLIC "-//W3C//DTD SVG 1.1//EN" "http://www.w3.org/Graphics/SVG/1.1/DTD/svg11.dtd">
<svg version="1.1" id="Layer_1" xmlns="http://www.w3.org/2000/svg" xmlns:xlink="http://www.w3.org/1999/xlink" x="0px" y="0px"
	 width="50px" height="50px" viewBox="174.5 -105.5 50 50" enable-background="new 174.5 -105.5 50 50" xml:space="preserve">
<path d="M205.358-91.473h-0.744v0.635c-0.865,0-1.457,0.123-1.775,0.369c-0.318,0.247-0.479,0.704-0.479,1.373
	c0,0.689,0.158,1.16,0.477,1.41c0.317,0.251,0.909,0.376,1.777,0.376v1.769l-0.163-0.005c-0.444,0-0.731-0.058-0.859-0.175
	c-0.128-0.116-0.192-0.376-0.192-0.777v-0.114h-1.103l-0.005,0.223c0,0.659,0.158,1.121,0.475,1.387
	c0.315,0.267,0.862,0.399,1.639,0.399l0.209,0.005v0.73h0.744v-0.73l0.227-0.005c0.779,0,1.326-0.139,1.64-0.417
	c0.313-0.278,0.47-0.762,0.47-1.451c0-0.642-0.145-1.082-0.432-1.322c-0.287-0.241-0.841-0.383-1.66-0.428l-0.244-0.01v-1.633h0.172
	c0.605,0,0.907,0.242,0.907,0.726l0.005,0.118h1.065v-0.149c0-0.641-0.151-1.08-0.456-1.316c-0.304-0.235-0.867-0.353-1.693-0.353
	V-91.473z M204.614-88.267c-0.104-0.006-0.156-0.009-0.163-0.009c-0.649,0-0.976-0.271-0.976-0.812c0-0.518,0.326-0.776,0.98-0.776
	l0.158-0.004V-88.267z M206.343-87.11c0.156,0.105,0.235,0.325,0.235,0.658c0,0.607-0.354,0.911-1.062,0.911h-0.158v-1.729
	C205.856-87.27,206.185-87.216,206.343-87.11z M194.706-77.675h0.408c-0.01-0.237-0.016-0.502-0.02-0.797h-0.508l0.119-0.797h0.408
	c0.057-0.789,0.25-1.323,0.58-1.601c0.395-0.335,1.197-0.503,2.406-0.503c0.928,0,1.544,0.138,1.852,0.413
	c0.282,0.252,0.437,0.804,0.465,1.652l0.006,0.147h-1.234v-0.166c0-0.456-0.111-0.745-0.332-0.869
	c-0.149-0.082-0.484-0.124-1.002-0.124c-0.697,0-1.123,0.094-1.277,0.28c-0.099,0.117-0.164,0.374-0.2,0.77h2.237l-0.119,0.797
	h-2.15v0.095c0,0.237,0.002,0.472,0.009,0.702h2.022l-0.118,0.798h-1.862c0.035,0.351,0.088,0.585,0.157,0.703
	c0.136,0.227,0.55,0.341,1.239,0.341c0.614,0,1.011-0.063,1.191-0.19c0.193-0.136,0.283-0.415,0.271-0.835l-0.009-0.29h1.234v0.223
	c0,0.95-0.215,1.562-0.641,1.837c-0.317,0.206-0.996,0.309-2.037,0.309c-1.215,0-1.971-0.209-2.264-0.626
	c-0.172-0.244-0.293-0.734-0.367-1.472h-0.584L194.706-77.675z M201.407-89.568c-3.794,0-6.881,3.087-6.881,6.881h1.766
	l-2.266,3.085l-2.268-3.085h1.768c0-4.346,3.535-7.881,7.881-7.881V-89.568z M211.055-82.687h-1.767
	c0,4.346-3.535,7.881-7.881,7.881v-1c3.794,0,6.881-3.087,6.881-6.881h-1.768l2.268-3.085L211.055-82.687z M205.968-71.022h-16.022
	v-21.811h17.022v-2h-19.022v28.616h20.022V-74.5h-2V-71.022z M197.761-67.413c-0.612,0-1.109-0.497-1.109-1.109
	s0.497-1.109,1.109-1.109s1.109,0.497,1.109,1.109S198.373-67.413,197.761-67.413z"/>
</svg>
