<?xml version="1.0" encoding="utf-8"?>
<!-- Generator: Adobe Illustrator 16.0.0, SVG Export Plug-In . SVG Version: 6.00 Build 0)  -->
<!DOCTYPE svg PUBLIC "-//W3C//DTD SVG 1.1//EN" "http://www.w3.org/Graphics/SVG/1.1/DTD/svg11.dtd">
<svg version="1.1" id="Layer_1" xmlns="http://www.w3.org/2000/svg" xmlns:xlink="http://www.w3.org/1999/xlink" x="0px" y="0px"
	 width="50px" height="50px" viewBox="244.5 -105.5 50 50" enable-background="new 244.5 -105.5 50 50" xml:space="preserve">
<path d="M269.5-78.647c-4.072,0-7.373-5.844-7.373-9.917c0-4.072,3.301-7.373,7.373-7.373s7.373,3.301,7.373,7.373
	C276.873-84.491,273.572-78.647,269.5-78.647z M267.861-77.144c-2.291-0.364-4.336-1.465-5.873-3.064l-5.975,3.45v11.695h10.678
	l1.908-8.584l-2.301-2.082L267.861-77.144z M277.014-80.208c-1.539,1.6-3.584,2.7-5.875,3.064l1.564,1.415l-2.303,2.082l1.908,8.584
	h10.678v-11.695L277.014-80.208z"/>
</svg>
