<?xml version="1.0" encoding="utf-8"?>
<!-- Generator: Adobe Illustrator 16.0.0, SVG Export Plug-In . SVG Version: 6.00 Build 0)  -->
<!DOCTYPE svg PUBLIC "-//W3C//DTD SVG 1.1//EN" "http://www.w3.org/Graphics/SVG/1.1/DTD/svg11.dtd">
<svg version="1.1" id="Layer_1" xmlns="http://www.w3.org/2000/svg" xmlns:xlink="http://www.w3.org/1999/xlink" x="0px" y="0px"
	 width="50px" height="50px" viewBox="314.5 -105.5 50 50" enable-background="new 314.5 -105.5 50 50" xml:space="preserve">
<path d="M332.342-83.03l0.238,0.069l-0.037,2.38c-0.154-0.06-0.232-0.088-0.242-0.091c-0.967-0.316-1.443-0.876-1.434-1.682
	C330.876-83.123,331.367-83.349,332.342-83.03z M352.462-94.321l-0.439-0.898l-11.552,5.649l-11.552-5.649l-0.439,0.898
	l11.991,5.864L352.462-94.321z M333.621-78.734l-0.046,2.569l0.233,0.076c1.043,0.343,1.575,0.063,1.594-0.838
	c0.011-0.497-0.098-0.86-0.327-1.093C334.845-78.254,334.359-78.493,333.621-78.734z M354.204-93.571v20.626l-13.733,6.715
	l-13.732-6.715v-20.626l13.732,6.716L354.204-93.571z M337.053-76.413c0.023-0.952-0.174-1.679-0.591-2.174
	c-0.419-0.499-1.235-0.979-2.451-1.444l-0.364-0.133l0.043-2.427l0.259,0.084c0.903,0.293,1.346,0.799,1.331,1.52l0.002,0.178
	l1.587,0.519l0.007-0.225c0.021-0.953-0.188-1.678-0.635-2.176c-0.447-0.499-1.289-0.947-2.525-1.348l0.018-0.945l-1.115-0.362
	l-0.016,0.944c-1.294-0.419-2.183-0.525-2.663-0.313c-0.481,0.21-0.726,0.813-0.735,1.806c-0.008,1.024,0.223,1.802,0.689,2.331
	c0.467,0.527,1.342,1.001,2.627,1.422l-0.04,2.631l-0.24-0.084c-0.655-0.216-1.076-0.442-1.263-0.679
	c-0.188-0.235-0.277-0.651-0.271-1.251l0.003-0.167l-1.629-0.535l-0.012,0.328c-0.009,0.979,0.219,1.745,0.681,2.294
	c0.46,0.547,1.263,1.012,2.402,1.388l0.306,0.11l-0.016,1.086l1.09,0.361l0.02-1.086l0.334,0.101
	c1.145,0.38,1.953,0.438,2.424,0.179C336.777-74.746,337.026-75.388,337.053-76.413z"/>
</svg>
