<?xml version="1.0" encoding="utf-8"?>
<!-- Generator: Adobe Illustrator 16.0.0, SVG Export Plug-In . SVG Version: 6.00 Build 0)  -->
<!DOCTYPE svg PUBLIC "-//W3C//DTD SVG 1.1//EN" "http://www.w3.org/Graphics/SVG/1.1/DTD/svg11.dtd">
<svg version="1.1" id="Layer_1" xmlns="http://www.w3.org/2000/svg" xmlns:xlink="http://www.w3.org/1999/xlink" x="0px" y="0px"
	 width="50px" height="50px" viewBox="-315.5 -35.5 50 50" enable-background="new -315.5 -35.5 50 50" xml:space="preserve">
<path d="M-282.867-9.491l-0.005,0.212c0,0.628,0.15,1.069,0.452,1.323c0.301,0.253,0.823,0.38,1.563,0.38l0.198,0.005v0.697h0.71
	v-0.697l0.216-0.005c0.743,0,1.265-0.133,1.563-0.396c0.298-0.267,0.447-0.727,0.447-1.385c0-0.61-0.137-1.031-0.411-1.26
	c-0.273-0.229-0.801-0.365-1.582-0.408l-0.233-0.01v-1.556h0.164c0.577,0,0.864,0.23,0.864,0.692l0.004,0.112h1.017v-0.145
	c0-0.61-0.145-1.028-0.434-1.253c-0.29-0.226-0.828-0.336-1.615-0.336v-0.606h-0.71v0.606c-0.823,0-1.389,0.116-1.691,0.352
	c-0.306,0.234-0.458,0.671-0.458,1.308c0,0.656,0.152,1.104,0.455,1.345c0.303,0.239,0.867,0.358,1.694,0.358v1.687l-0.155-0.004
	c-0.424,0-0.697-0.056-0.819-0.167s-0.184-0.358-0.184-0.742v-0.107H-282.867z M-279.948-10.118c0.475,0,0.788,0.051,0.938,0.151
	c0.149,0.102,0.224,0.31,0.224,0.628c0,0.578-0.337,0.868-1.012,0.868h-0.15V-10.118z M-280.813-11.078
	c-0.62,0-0.93-0.258-0.93-0.773c0-0.493,0.311-0.739,0.934-0.739l0.151-0.004v1.524C-280.756-11.076-280.808-11.078-280.813-11.078z
	 M-293.305-9.491l-0.005,0.212c0,0.628,0.15,1.069,0.452,1.323c0.301,0.253,0.823,0.38,1.563,0.38l0.198,0.005v0.697h0.71v-0.697
	l0.216-0.005c0.743,0,1.265-0.133,1.563-0.396c0.298-0.267,0.447-0.727,0.447-1.385c0-0.61-0.137-1.031-0.411-1.26
	c-0.273-0.229-0.801-0.365-1.582-0.408l-0.233-0.01v-1.556h0.164c0.577,0,0.864,0.23,0.864,0.692l0.004,0.112h1.017v-0.145
	c0-0.61-0.145-1.028-0.434-1.253c-0.29-0.226-0.828-0.336-1.615-0.336v-0.606h-0.71v0.606c-0.823,0-1.389,0.116-1.691,0.352
	c-0.306,0.234-0.458,0.671-0.458,1.308c0,0.656,0.152,1.104,0.455,1.345c0.303,0.239,0.867,0.358,1.694,0.358v1.687l-0.155-0.004
	c-0.424,0-0.697-0.056-0.819-0.167s-0.184-0.358-0.184-0.742v-0.107H-293.305z M-290.386-10.118c0.475,0,0.788,0.051,0.938,0.151
	c0.149,0.102,0.224,0.31,0.224,0.628c0,0.578-0.337,0.868-1.012,0.868h-0.15V-10.118z M-291.251-11.078
	c-0.62,0-0.93-0.258-0.93-0.773c0-0.493,0.311-0.739,0.934-0.739l0.151-0.004v1.524C-291.193-11.076-291.245-11.078-291.251-11.078z
	 M-298.539-10.617c-0.273-0.229-0.801-0.365-1.582-0.408l-0.233-0.01v-1.556h0.164c0.577,0,0.864,0.23,0.864,0.692l0.004,0.112
	h1.017v-0.145c0-0.61-0.145-1.028-0.434-1.253c-0.29-0.226-0.828-0.336-1.615-0.336v-0.606h-0.71v0.606
	c-0.823,0-1.389,0.116-1.691,0.352c-0.306,0.234-0.458,0.671-0.458,1.308c0,0.656,0.152,1.104,0.455,1.345
	c0.303,0.239,0.867,0.358,1.694,0.358v1.687l-0.155-0.004c-0.424,0-0.697-0.056-0.819-0.167s-0.184-0.358-0.184-0.742v-0.107h-1.051
	l-0.005,0.212c0,0.628,0.15,1.069,0.452,1.323c0.301,0.253,0.823,0.38,1.563,0.38l0.198,0.005v0.697h0.71v-0.697l0.216-0.005
	c0.743,0,1.265-0.133,1.563-0.396c0.298-0.267,0.447-0.727,0.447-1.385C-298.128-9.968-298.265-10.389-298.539-10.617z
	 M-301.064-11.07c-0.098-0.006-0.149-0.008-0.155-0.008c-0.62,0-0.93-0.258-0.93-0.773c0-0.493,0.311-0.739,0.934-0.739l0.151-0.004
	V-11.07z M-300.204-8.471h-0.15v-1.647c0.475,0,0.788,0.051,0.938,0.151c0.149,0.102,0.224,0.31,0.224,0.628
	C-299.192-8.761-299.529-8.471-300.204-8.471z M-272.875-14.125h-1.688v-5.469h-31.875v5.469h-1.688v7.25h1.688v5.156h31.875v-5.156
	h1.688V-14.125z M-286.179-17.594v13.875h-8.643v-13.875H-286.179z M-304.438-17.594h7.616v13.875h-7.616V-17.594z M-276.563-3.719
	h-7.616v-13.875h7.616V-3.719z"/>
</svg>
