<?xml version="1.0" encoding="utf-8"?>
<!-- Generator: Adobe Illustrator 16.0.0, SVG Export Plug-In . SVG Version: 6.00 Build 0)  -->
<!DOCTYPE svg PUBLIC "-//W3C//DTD SVG 1.1//EN" "http://www.w3.org/Graphics/SVG/1.1/DTD/svg11.dtd">
<svg version="1.1" id="Layer_1" xmlns="http://www.w3.org/2000/svg" xmlns:xlink="http://www.w3.org/1999/xlink" x="0px" y="0px"
	 width="50px" height="50px" viewBox="-245.5 -35.5 50 50" enable-background="new -245.5 -35.5 50 50" xml:space="preserve">
<path d="M-204.472-15.657c-0.333-0.269-0.665-0.508-0.998-0.729v-2.203l-0.244-0.146c-0.577-0.344-1.169-0.609-1.769-0.838v-2.166
	l-0.338-0.116c-4.438-1.518-8.858,0.269-13.134,1.999c-5.271,2.133-10.25,4.148-15.279,0.472l-0.795-0.581l-0.001,15.285l0.205,0.15
	c0.585,0.428,1.192,0.785,1.806,1.089v2.155l0.291,0.134c0.559,0.257,1.13,0.448,1.71,0.603c0,0.365,0,0.73,0,1.096
	c9.516,2.679,19.031-9.856,28.547-2.155C-204.471-6.291-204.472-10.974-204.472-15.657z M-235.018-16.432l-0.001,11.868
	c-0.341-0.189-0.679-0.394-1.011-0.626l0.001-12.847c5.213,3.251,10.413,1.147,15.45-0.891c4.175-1.69,8.126-3.289,12.096-2.088v1.1
	c-0.92-0.249-1.874-0.375-2.875-0.375c-3.233,0-6.468,1.309-9.596,2.575c-3.04,1.229-6.182,2.501-9.221,2.501
	c-1.479,0-2.831-0.291-4.133-0.89L-235.018-16.432z M-218.745-4.626c-2.657,1.062-4.811-0.229-4.812-2.91
	c0.001-2.634,2.154-5.649,4.812-6.711c2.657-1.071,4.811,0.665,4.812,3.336C-213.935-8.269-216.087-5.696-218.745-4.626z
	 M-206.47-16.979c-8.85-4.687-17.7,5.97-26.549,3.479c0,3.975,0,7.949,0.001,11.924c-0.338-0.101-0.671-0.216-1.001-0.355
	l0.001-12.969c1.218,0.46,2.482,0.685,3.842,0.685c3.233,0,6.468-1.309,9.596-2.574c3.04-1.229,6.182-2.501,9.221-2.501
	c1.76,0,3.363,0.418,4.888,1.275V-16.979z M-218.373-11.668c0,0.55,0,1.101,0,1.652c0.082-0.029,0.165-0.057,0.247-0.084
	c0.83-0.265,1.389-0.302,1.68-0.151c0.291,0.15,0.437,0.552,0.437,1.2c0,0.699-0.158,1.235-0.476,1.617
	c-0.316,0.383-0.869,0.707-1.659,1.001c-0.076,0.029-0.152,0.06-0.229,0.09c0,0.247,0,0.493,0,0.74
	c-0.251,0.095-0.502,0.192-0.752,0.291c0-0.247,0-0.493,0-0.74c-0.071,0.026-0.142,0.053-0.212,0.079
	c-0.785,0.312-1.338,0.403-1.658,0.262c-0.32-0.139-0.479-0.543-0.479-1.209c0.001-0.076,0.002-0.151,0.004-0.228
	c0.371-0.149,0.743-0.301,1.114-0.451c0,0.039-0.001,0.078-0.001,0.116c0.001,0.405,0.066,0.64,0.196,0.706
	c0.129,0.066,0.42,0.009,0.869-0.169c0.056-0.02,0.11-0.041,0.166-0.061c0-0.596,0-1.192,0-1.789
	c-0.879,0.346-1.478,0.464-1.799,0.34c-0.321-0.124-0.482-0.535-0.482-1.233c0-0.674,0.163-1.204,0.484-1.582
	c0.322-0.379,0.922-0.75,1.797-1.095c0-0.215,0-0.429,0-0.643c0.25-0.099,0.5-0.195,0.751-0.29c0,0.214,0,0.428,0,0.642
	c0.835-0.316,1.406-0.388,1.715-0.25c0.308,0.138,0.46,0.536,0.461,1.184c0,0.05,0,0.101,0,0.15c-0.359,0.111-0.72,0.23-1.079,0.356
	c-0.001-0.039-0.003-0.078-0.005-0.117c0.001-0.489-0.306-0.63-0.916-0.402C-218.257-11.712-218.315-11.69-218.373-11.668z
	 M-219.127-11.383c-0.053,0.022-0.105,0.045-0.159,0.068c-0.661,0.262-0.991,0.659-0.99,1.181c0,0.548,0.327,0.688,0.985,0.428
	c0.006-0.003,0.062-0.021,0.166-0.057C-219.126-10.304-219.126-10.843-219.127-11.383z M-218.374-7.296
	c0.053-0.02,0.107-0.04,0.161-0.059c0.717-0.269,1.074-0.694,1.074-1.311c-0.001-0.336-0.08-0.529-0.239-0.581
	c-0.159-0.05-0.49,0.013-0.995,0.204C-218.374-8.461-218.374-7.878-218.374-7.296z"/>
</svg>
