<?xml version="1.0" encoding="utf-8"?>
<!-- Generator: Adobe Illustrator 16.0.0, SVG Export Plug-In . SVG Version: 6.00 Build 0)  -->
<!DOCTYPE svg PUBLIC "-//W3C//DTD SVG 1.1//EN" "http://www.w3.org/Graphics/SVG/1.1/DTD/svg11.dtd">
<svg version="1.1" id="Layer_1" xmlns="http://www.w3.org/2000/svg" xmlns:xlink="http://www.w3.org/1999/xlink" x="0px" y="0px"
	 width="50px" height="50px" viewBox="-175.5 -35.5 50 50" enable-background="new -175.5 -35.5 50 50" xml:space="preserve">
<path d="M-149.449-9.587v-0.693l0.215-0.003c0.74,0,1.259-0.132,1.556-0.396c0.297-0.263,0.445-0.723,0.445-1.377
	c0-0.607-0.137-1.024-0.408-1.252c-0.273-0.229-0.798-0.365-1.575-0.407l-0.232-0.009v-1.549l0.164,0.001
	c0.573,0,0.86,0.229,0.859,0.688l0.005,0.111h1.011v-0.141c0-0.608-0.144-1.025-0.432-1.248c-0.289-0.225-0.824-0.336-1.608-0.336
	v-0.602h-0.704v0.603c-0.82,0-1.382,0.117-1.685,0.351c-0.302,0.233-0.453,0.668-0.453,1.301c0,0.654,0.15,1.101,0.451,1.339
	c0.302,0.237,0.863,0.356,1.687,0.357v1.676l-0.155-0.003c-0.421,0-0.694-0.056-0.814-0.167c-0.122-0.111-0.184-0.356-0.184-0.736
	v-0.109l-1.045,0l-0.004,0.211c0,0.625,0.149,1.063,0.449,1.315c0.3,0.253,0.818,0.379,1.555,0.379l0.198,0.004v0.693
	L-149.449-9.587z M-149.449-12.813c0.474,0,0.784,0.05,0.934,0.15c0.149,0.101,0.224,0.308,0.224,0.623
	c0,0.578-0.335,0.865-1.007,0.866l-0.151-0.001L-149.449-12.813z M-150.309-13.768c-0.616,0-0.925-0.257-0.925-0.771
	c0-0.489,0.31-0.735,0.93-0.735l0.149-0.005l0.001,1.519C-150.251-13.766-150.303-13.769-150.309-13.768z M-153.48-6.23h17.566
	l-0.001-14.171h-1.404V-21.9h-27.767l-0.001,14.17l1.406,0v1.499h8.237l-4.057,6.011l1.658,1.119l4.322-6.405l-0.31-0.209
	L-153.48-6.23z M-164.086-8.73l0.001-12.17h25.767v0.499l-25.361,0V-8.73H-164.086z M-162.68-19.401l25.766,0l0.001,12.171h-15.892
	l0.8-1.185c0.676,0.306,1.419,0.485,2.208,0.485c2.97,0,5.386-2.416,5.386-5.386c0-1.438-0.56-2.791-1.577-3.807
	c-1.017-1.017-2.37-1.577-3.809-1.577c-2.97,0-5.386,2.416-5.386,5.385c0,1.823,0.915,3.431,2.305,4.406l-1.134,1.68h-8.668V-19.401
	z M-154.183-13.316c0-2.418,1.968-4.385,4.388-4.385c2.417,0,4.384,1.967,4.384,4.384c0,2.418-1.967,4.386-4.386,4.386
	S-154.183-10.897-154.183-13.316z"/>
</svg>
