<?xml version="1.0" encoding="utf-8"?>
<!-- Generator: Adobe Illustrator 16.0.0, SVG Export Plug-In . SVG Version: 6.00 Build 0)  -->
<!DOCTYPE svg PUBLIC "-//W3C//DTD SVG 1.1//EN" "http://www.w3.org/Graphics/SVG/1.1/DTD/svg11.dtd">
<svg version="1.1" id="Layer_1" xmlns="http://www.w3.org/2000/svg" xmlns:xlink="http://www.w3.org/1999/xlink" x="0px" y="0px"
	 width="50px" height="50px" viewBox="-105.5 -35.5 50 50" enable-background="new -105.5 -35.5 50 50" xml:space="preserve">
<path d="M-78.147,3.875c0,1.212-0.983,2.195-2.194,2.195c-1.213,0-2.196-0.983-2.196-2.195c0-1.213,0.983-2.195,2.196-2.195
	C-79.13,1.68-78.147,2.662-78.147,3.875z M-88.13,1.68c-1.213,0-2.196,0.982-2.196,2.195c0,1.212,0.983,2.195,2.196,2.195
	c1.212,0,2.195-0.983,2.195-2.195C-85.935,2.662-86.918,1.68-88.13,1.68z M-64.231-14.776l-4.25,1.309l-6.276,14.521h-19.046v-2
	h5.494l-8.46-8.461l17.662-17.662l1.27,1.27l1.195-1.195l1.303,1.303l0.536-0.536l8.344,8.342l-2.462,2.462l4.103-1.262
	L-64.231-14.776z M-76.252-16.438c-1.578-1.577-4.136-1.578-5.714,0.001c-1.578,1.578-1.578,4.136-0.001,5.715
	c1.579,1.578,4.137,1.578,5.715,0C-74.673-12.302-74.673-14.859-76.252-16.438z M-87.232-2.259l-7.073-7.075l15.761-15.76
	l-0.563-0.563L-95.355-9.409l7.636,7.637L-87.232-2.259z M-85.92-0.947l-0.604-0.604l-0.604,0.604H-85.92z M-84.718-2.235
	l-7.04-7.039l15.712-15.712l-0.596-0.596L-92.891-9.333l7.635,7.636L-84.718-2.235z M-83.43-0.947l-0.581-0.581l-0.581,0.581H-83.43
	z M-70.494-13.853L-83.399-0.947h7.327L-70.494-13.853z M-80.025-15.145c0.363-0.363,0.69-0.4,0.98-0.109l0.073,0.067l0.641-0.64
	l-0.089-0.089c-0.386-0.385-0.74-0.558-1.064-0.517c-0.325,0.041-0.734,0.31-1.231,0.806l-0.382-0.381l-0.446,0.446l0.382,0.381
	c-0.52,0.52-0.801,0.95-0.845,1.29c-0.043,0.338,0.136,0.71,0.537,1.111c0.414,0.415,0.792,0.602,1.134,0.563
	c0.341-0.042,0.772-0.321,1.295-0.843l1.062,1.062l-0.101,0.096c-0.267,0.267-0.476,0.404-0.621,0.411
	c-0.148,0.007-0.342-0.109-0.583-0.35l-0.069-0.069l-0.661,0.663l0.132,0.136c0.396,0.396,0.768,0.579,1.117,0.549
	c0.351-0.03,0.759-0.278,1.225-0.745l0.128-0.124l0.439,0.439l0.446-0.447l-0.439-0.439l0.135-0.138
	c0.469-0.469,0.714-0.881,0.733-1.236c0.022-0.355-0.175-0.74-0.59-1.155c-0.384-0.385-0.735-0.563-1.052-0.535
	c-0.318,0.028-0.736,0.274-1.256,0.74l-0.152,0.142l-0.981-0.981L-80.025-15.145z M-79.617-13.636
	c-0.065,0.059-0.1,0.089-0.104,0.094c-0.391,0.39-0.748,0.422-1.073,0.097c-0.311-0.31-0.271-0.662,0.122-1.054l0.092-0.098
	L-79.617-13.636z M-78.57-13.483c0.3-0.3,0.528-0.465,0.687-0.496c0.158-0.031,0.337,0.053,0.536,0.253
	c0.366,0.366,0.336,0.76-0.09,1.186l-0.097,0.095L-78.57-13.483z"/>
</svg>
