<?xml version="1.0" encoding="utf-8"?>
<!-- Generator: Adobe Illustrator 16.0.0, SVG Export Plug-In . SVG Version: 6.00 Build 0)  -->
<!DOCTYPE svg PUBLIC "-//W3C//DTD SVG 1.1//EN" "http://www.w3.org/Graphics/SVG/1.1/DTD/svg11.dtd">
<svg version="1.1" id="Layer_1" xmlns="http://www.w3.org/2000/svg" xmlns:xlink="http://www.w3.org/1999/xlink" x="0px" y="0px"
	 width="50px" height="50px" viewBox="-35.5 -35.5 50 50" enable-background="new -35.5 -35.5 50 50" xml:space="preserve">
<path d="M1.313-23.438v-4.625h-26.25v26.25h4.625v2.625h17.5l6.75,6.25v-30.5H1.313z M-20.313-3.813h-2.625v-22.25h22.25v2.625
	h-19.625V-3.813z M-8.043-3.421c-4.418,0-8-3.583-8-8.001c0-4.42,3.582-8,8-8s8.001,3.58,8.001,8
	C-0.042-7.004-3.625-3.421-8.043-3.421z M-7.556-14.064v2.178l0.327,0.014c1.094,0.061,1.832,0.25,2.215,0.572
	c0.384,0.319,0.575,0.908,0.575,1.763c0,0.921-0.209,1.565-0.627,1.938c-0.417,0.369-1.146,0.556-2.188,0.556l-0.303,0.007v0.975
	h-0.992v-0.975l-0.278-0.007c-1.036,0-1.767-0.178-2.188-0.531c-0.423-0.355-0.633-0.974-0.633-1.853l0.007-0.297h1.47v0.15
	c0,0.537,0.087,0.884,0.258,1.039c0.17,0.156,0.553,0.234,1.146,0.234l0.218,0.005v-2.361c-1.158,0-1.948-0.167-2.372-0.501
	c-0.423-0.337-0.637-0.964-0.637-1.883c0-0.891,0.214-1.502,0.64-1.83c0.426-0.329,1.216-0.492,2.369-0.492v-0.848h0.992v0.848
	c1.103,0,1.855,0.156,2.262,0.471c0.404,0.313,0.606,0.899,0.606,1.754v0.202h-1.422l-0.006-0.158c0-0.646-0.402-0.969-1.21-0.969
	H-7.556z M-8.548-14.07l-0.212,0.006c-0.873,0-1.307,0.346-1.307,1.035c0,0.723,0.433,1.083,1.301,1.083
	c0.008,0,0.08,0.003,0.218,0.011V-14.07z M-7.556-8.297h0.211c0.944,0,1.417-0.406,1.417-1.216c0-0.445-0.104-0.736-0.313-0.878
	c-0.211-0.141-0.648-0.212-1.314-0.212V-8.297z"/>
</svg>
