<?xml version="1.0" encoding="utf-8"?>
<!-- Generator: Adobe Illustrator 16.0.0, SVG Export Plug-In . SVG Version: 6.00 Build 0)  -->
<!DOCTYPE svg PUBLIC "-//W3C//DTD SVG 1.1//EN" "http://www.w3.org/Graphics/SVG/1.1/DTD/svg11.dtd">
<svg version="1.1" id="Layer_1" xmlns="http://www.w3.org/2000/svg" xmlns:xlink="http://www.w3.org/1999/xlink" x="0px" y="0px"
	 width="50px" height="50px" viewBox="34.5 -35.5 50 50" enable-background="new 34.5 -35.5 50 50" xml:space="preserve">
<path d="M53.006-20.602l-2.627-6.933h12.176l-2.623,6.933H53.006z M51.518-19.377h9.9v-1h-9.9V-19.377z M54.443-11.372
	c0,0.722,0.434,1.083,1.301,1.083c0.008,0,0.082,0.004,0.217,0.012v-2.137l-0.211,0.006C54.879-12.407,54.443-12.063,54.443-11.372z
	 M58.375,1.634c-1.355,0-2.451,1.097-2.451,2.45c0,1.353,1.096,2.451,2.451,2.451c1.352,0,2.449-1.098,2.449-2.451
	C60.824,2.731,59.727,1.634,58.375,1.634z M49.68,1.634c-1.354,0-2.451,1.097-2.451,2.45c0,1.353,1.098,2.451,2.451,2.451
	s2.451-1.098,2.451-2.451C52.131,2.731,51.033,1.634,49.68,1.634z M58.27-8.732c-0.211-0.142-0.648-0.213-1.314-0.213v2.307h0.211
	c0.945,0,1.416-0.406,1.416-1.217C58.582-8.299,58.479-8.592,58.27-8.732z M76.324-16.846l-4.795,1.476L64.531,0.818H43.348v-2
	h1.539c-1.262-0.308-2.211-1.547-2.211-3.03v-5.975c0-1.713,1.266-3.106,2.818-3.106h2.68v-0.031h-3.645v-1h3.662
	c0-0.033,0.008-0.064,0.01-0.097H45.4l-1.393-4.139h6.643l-0.023,0.065c0.773-0.473,1.672-0.76,2.643-0.76h6.488
	c2.811,0,5.096,2.286,5.096,5.097v9.19l5.205-12.042l5.678-1.747L76.324-16.846z M48.352-15.422
	c0.152-0.593,0.396-1.147,0.736-1.636l0.17-0.503H45.4l0.719,2.139H48.352z M48.947-2.105c-0.482-0.778-0.773-1.685-0.773-2.665
	v-7.523h-2.68c-1.002,0-1.818,0.945-1.818,2.106v5.975c0,1.162,0.816,2.107,1.818,2.107H48.947z M60.072-7.879
	c0-0.856-0.191-1.444-0.574-1.765c-0.383-0.321-1.123-0.511-2.217-0.572l-0.326-0.012v-2.179h0.23c0.807,0,1.209,0.323,1.209,0.969
	l0.008,0.157h1.422v-0.2c0-0.855-0.203-1.441-0.609-1.756c-0.404-0.314-1.158-0.472-2.26-0.472v-0.847h-0.994v0.847
	c-1.152,0-1.943,0.165-2.369,0.494c-0.424,0.329-0.639,0.939-0.639,1.831c0,0.92,0.213,1.547,0.637,1.882
	C54.014-9.167,54.805-9,55.961-9v2.361l-0.217-0.006c-0.594,0-0.977-0.078-1.146-0.233c-0.172-0.155-0.258-0.501-0.258-1.038v-0.151
	h-1.473l-0.004,0.296c0,0.88,0.211,1.498,0.631,1.853c0.424,0.355,1.152,0.533,2.189,0.533l0.277,0.006v0.975h0.994v-0.975
	l0.303-0.006c1.041,0,1.77-0.186,2.188-0.558C59.863-6.313,60.072-6.959,60.072-7.879z"/>
</svg>
