<?xml version="1.0" encoding="utf-8"?>
<!-- Generator: Adobe Illustrator 16.0.0, SVG Export Plug-In . SVG Version: 6.00 Build 0)  -->
<!DOCTYPE svg PUBLIC "-//W3C//DTD SVG 1.1//EN" "http://www.w3.org/Graphics/SVG/1.1/DTD/svg11.dtd">
<svg version="1.1" id="Layer_1" xmlns="http://www.w3.org/2000/svg" xmlns:xlink="http://www.w3.org/1999/xlink" x="0px" y="0px"
	 width="50px" height="50px" viewBox="104.5 -35.5 50 50" enable-background="new 104.5 -35.5 50 50" xml:space="preserve">
<path d="M119.612-3.507l0.278,0.007v0.975h0.992V-3.5l0.303-0.007c1.041,0,1.771-0.187,2.188-0.556C123.791-4.435,124-5.079,124-6
	c0-0.854-0.191-1.443-0.575-1.763c-0.383-0.322-1.121-0.512-2.215-0.572l-0.327-0.014v-2.178h0.23c0.808,0,1.21,0.322,1.21,0.969
	l0.006,0.158h1.422v-0.202c0-0.854-0.202-1.44-0.606-1.754c-0.406-0.314-1.159-0.471-2.262-0.471v-0.848h-0.992v0.848
	c-1.153,0-1.943,0.163-2.369,0.492c-0.426,0.328-0.64,0.939-0.64,1.83c0,0.919,0.214,1.546,0.637,1.883
	c0.424,0.334,1.214,0.501,2.372,0.501v2.361l-0.218-0.005c-0.594,0-0.977-0.078-1.146-0.234c-0.171-0.155-0.258-0.502-0.258-1.039
	v-0.15h-1.47l-0.007,0.297c0,0.879,0.21,1.497,0.633,1.853C117.846-3.685,118.576-3.507,119.612-3.507z M120.883-7.064
	c0.666,0,1.104,0.071,1.314,0.212c0.209,0.142,0.313,0.433,0.313,0.878c0,0.81-0.473,1.216-1.417,1.216h-0.211V-7.064z
	 M119.673-8.408c-0.868,0-1.301-0.36-1.301-1.083c0-0.689,0.434-1.035,1.307-1.035l0.212-0.006v2.135
	C119.753-8.405,119.681-8.408,119.673-8.408z M112.75-22V1h33.5v-23H112.75z M144.25-1h-29.5v-19h29.5V-1z M141-15h-20v-1h20V-15z
	 M126.75-12.5H141v1h-14.25V-12.5z M126.75-9H141v1h-14.25V-9z M126.75-5.5H141v1h-14.25V-5.5z"/>
</svg>
