<?xml version="1.0" encoding="utf-8"?>
<!-- Generator: Adobe Illustrator 16.0.0, SVG Export Plug-In . SVG Version: 6.00 Build 0)  -->
<!DOCTYPE svg PUBLIC "-//W3C//DTD SVG 1.1//EN" "http://www.w3.org/Graphics/SVG/1.1/DTD/svg11.dtd">
<svg version="1.1" id="Layer_1" xmlns="http://www.w3.org/2000/svg" xmlns:xlink="http://www.w3.org/1999/xlink" x="0px" y="0px"
	 width="50px" height="50px" viewBox="174.5 -35.5 50 50" enable-background="new 174.5 -35.5 50 50" xml:space="preserve">
<path d="M198.802-17.687l0.136-0.004v1.368c-0.088-0.005-0.135-0.008-0.139-0.008c-0.557,0-0.834-0.23-0.834-0.693
	C197.965-17.466,198.242-17.687,198.802-17.687z M199.573-15.469v1.478h0.136c0.604,0,0.906-0.261,0.906-0.779
	c0-0.285-0.066-0.472-0.2-0.563C200.28-15.424,200-15.469,199.573-15.469z M204.387-15.994c0,2.831-2.295,5.126-5.126,5.126
	c-2.83,0-5.125-2.295-5.125-5.126s2.295-5.125,5.125-5.125C202.092-21.119,204.387-18.825,204.387-15.994z M201.57-14.786
	c0-0.548-0.123-0.926-0.369-1.13c-0.245-0.206-0.718-0.328-1.418-0.366l-0.21-0.01v-1.395h0.147c0.518,0,0.775,0.206,0.775,0.62
	l0.004,0.102h0.91v-0.13c0-0.547-0.129-0.922-0.389-1.123s-0.742-0.301-1.448-0.301v-0.544h-0.636v0.544
	c-0.738,0-1.245,0.104-1.518,0.314c-0.273,0.21-0.41,0.602-0.41,1.172c0,0.59,0.137,0.991,0.408,1.207
	c0.271,0.214,0.777,0.32,1.52,0.32v1.514l-0.139-0.004c-0.381,0-0.627-0.05-0.736-0.149s-0.164-0.321-0.164-0.666v-0.096h-0.941
	l-0.005,0.189c0,0.563,0.135,0.959,0.405,1.187c0.27,0.227,0.738,0.341,1.402,0.341l0.178,0.005v0.624h0.636v-0.624l0.194-0.005
	c0.666,0,1.134-0.12,1.401-0.355C201.436-13.784,201.57-14.196,201.57-14.786z M206.087-18.549v2h9.163v-2H206.087z M206.087-12.382
	h9.163v-2h-9.163V-12.382z M206.087-8.215h9.163v-2h-9.163V-8.215z M206.087-4.048h9.163v-2h-9.163V-4.048z M206.087,0.119h9.163v-2
	h-9.163V0.119z M194.918-8.215h9.164v-2h-9.164V-8.215z M194.918-4.048h9.164v-2h-9.164V-4.048z M194.918,0.119h9.164v-2h-9.164
	V0.119z M183.75-4.048h9.163v-2h-9.163V-4.048z M183.75,0.119h9.163v-2h-9.163V0.119z"/>
</svg>
