<?xml version="1.0" encoding="utf-8"?>
<!-- Generator: Adobe Illustrator 16.0.0, SVG Export Plug-In . SVG Version: 6.00 Build 0)  -->
<!DOCTYPE svg PUBLIC "-//W3C//DTD SVG 1.1//EN" "http://www.w3.org/Graphics/SVG/1.1/DTD/svg11.dtd">
<svg version="1.1" id="Layer_1" xmlns="http://www.w3.org/2000/svg" xmlns:xlink="http://www.w3.org/1999/xlink" x="0px" y="0px"
	 width="50px" height="50px" viewBox="244.5 -35.5 50 50" enable-background="new 244.5 -35.5 50 50" xml:space="preserve">
<path d="M286.396-20.81l-4.612,1.42l-6.755,15.628h-16.219l-6.207-14.897l15.71-0.025v5.601h3.215l-4.215,4.215l-4.215-4.215h3.215
	v-3.598l-10.712,0.018l4.543,10.902h13.57l6.599-15.269l5.495-1.69L286.396-20.81z M262.94-3.009c-1.307,0-2.365,1.059-2.365,2.365
	c0,1.306,1.059,2.364,2.365,2.364c1.306,0,2.365-1.059,2.365-2.364C265.306-1.95,264.246-3.009,262.94-3.009z M271.331-3.009
	c-1.307,0-2.365,1.059-2.365,2.365c0,1.306,1.059,2.364,2.365,2.364c1.305,0,2.364-1.059,2.364-2.364
	C273.695-1.95,272.636-3.009,271.331-3.009z"/>
</svg>
