<?xml version="1.0" encoding="utf-8"?>
<!-- Generator: Adobe Illustrator 16.0.0, SVG Export Plug-In . SVG Version: 6.00 Build 0)  -->
<!DOCTYPE svg PUBLIC "-//W3C//DTD SVG 1.1//EN" "http://www.w3.org/Graphics/SVG/1.1/DTD/svg11.dtd">
<svg version="1.1" id="Layer_1" xmlns="http://www.w3.org/2000/svg" xmlns:xlink="http://www.w3.org/1999/xlink" x="0px" y="0px"
	 width="50px" height="50px" viewBox="314.5 -35.5 50 50" enable-background="new 314.5 -35.5 50 50" xml:space="preserve">
<path d="M328.252-23.75v2.5h-5.279v24h32v-4.167h-2V0.75h-28v-1.333h25.334v-1h-25.334V-19.25h3.279v2.311h27.775v-6.811H328.252z
	 M354.027-18.939h-23.775v-2.811h23.775V-18.939z M328.252-3.083h27.775v-12.339h-27.775V-3.083z M330.252-13.422h23.775v8.339
	h-23.775V-13.422z M348.459-12.076h4.545v5.359h-4.545V-12.076z M331.346-12.158h6.533v1h-6.533V-12.158z M331.346-9.813h6.533v1
	h-6.533V-9.813z M331.346-7.468h6.533v1h-6.533V-7.468z"/>
</svg>
