<?xml version="1.0" encoding="utf-8"?>
<!-- Generator: Adobe Illustrator 16.0.0, SVG Export Plug-In . SVG Version: 6.00 Build 0)  -->
<!DOCTYPE svg PUBLIC "-//W3C//DTD SVG 1.1//EN" "http://www.w3.org/Graphics/SVG/1.1/DTD/svg11.dtd">
<svg version="1.1" id="Layer_1" xmlns="http://www.w3.org/2000/svg" xmlns:xlink="http://www.w3.org/1999/xlink" x="0px" y="0px"
	 width="50px" height="50px" viewBox="-245.5 34.5 50 50" enable-background="new -245.5 34.5 50 50" xml:space="preserve">
<path d="M-205.113,57.258h-0.868c-0.752-1.5-1.844-2.8-3.177-3.804v-5.341l-3.589,3.588c-0.907-0.25-1.842-0.425-2.829-0.425h-0.219
	c0.186-0.524,0.306-1.081,0.306-1.669c0-2.768-2.244-5.01-5.01-5.01c-2.768,0-5.012,2.242-5.012,5.01
	c0,0.59,0.121,1.148,0.308,1.674c-4.668,0.058-8.575,3.111-9.989,7.316c-0.142-0.011-0.282-0.022-0.429-0.022
	c-1.796,0-3.253,0.731-3.253,1.628c0,0.869,1.375,1.578,3.095,1.619c0,0.062-0.016,0.117-0.016,0.18
	c0,5.072,3.532,9.297,8.263,10.414v-0.388c0,1.311,1.063,2.374,2.374,2.374c1.311,0,2.374-1.063,2.374-2.374v0.698h4.748v-0.698
	c0,1.311,1.063,2.374,2.374,2.374s2.374-1.063,2.374-2.374v0.442c3.214-0.698,5.858-2.85,7.286-5.72h0.892
	c1.65,0,2.988-2.126,2.988-4.747C-202.125,59.385-203.462,57.258-205.113,57.258z M-211.531,58.62c-0.658,0-1.189-0.531-1.189-1.188
	c0-0.655,0.531-1.188,1.189-1.188c0.655,0,1.187,0.532,1.187,1.188C-210.345,58.089-210.876,58.62-211.531,58.62z"/>
</svg>
