<?xml version="1.0" encoding="utf-8"?>
<!-- Generator: Adobe Illustrator 16.0.0, SVG Export Plug-In . SVG Version: 6.00 Build 0)  -->
<!DOCTYPE svg PUBLIC "-//W3C//DTD SVG 1.1//EN" "http://www.w3.org/Graphics/SVG/1.1/DTD/svg11.dtd">
<svg version="1.1" id="Layer_1" xmlns="http://www.w3.org/2000/svg" xmlns:xlink="http://www.w3.org/1999/xlink" x="0px" y="0px"
	 width="50px" height="50px" viewBox="-175.5 34.5 50 50" enable-background="new -175.5 34.5 50 50" xml:space="preserve">
<path fill-rule="evenodd" clip-rule="evenodd" d="M-136.75,57.479c-0.506-0.009-0.878,0.046-1.17,0.287
	c-0.101,0.083-0.149,0.211-0.289,0.255c0.233-0.545,0.614-1.027,0.899-1.511c0.091-0.221,0.181-0.44,0.271-0.661
	c-0.016-0.012-0.033-0.022-0.05-0.034c-0.096,0.006-0.192,0.012-0.289,0.018c-0.542-0.129-0.947-0.143-1.29,0.271
	c-0.096,0.119-0.192,0.237-0.288,0.356c-1.123-0.67-2.07,0.81-2.426,1.577c-0.213-0.047-0.514-0.173-0.764-0.135
	c-0.939,0.14-1.411,1.203-1.833,1.883c-0.275,0.444-0.448,0.891-0.678,1.409c-0.21,0.39-0.419,0.78-0.628,1.17
	c-0.051,0.175-0.102,0.352-0.153,0.526c-0.289,0.508-0.795,0.945-1.171,1.391c-0.068,0.034-0.136,0.068-0.204,0.103
	c-0.175,0.136-0.351,0.271-0.526,0.406c-0.305,0.131-0.611,0.261-0.917,0.392c-1.071,0.546-2.57,1.382-3.105,2.443
	c-0.167,0.331-0.211,0.868-0.305,1.238c-0.005,0-0.011,0-0.017,0c-0.029-0.361-0.057-0.725-0.085-1.086
	c-0.074-0.263-0.259-0.498-0.391-0.713c-0.254-0.421-0.561-0.775-0.891-1.103c6.479-2.841,9.52-13.045,18.35-10.851
	c-1.618-3.466-3.238-6.93-4.856-10.396c-9.703-2.409-12.415,10.156-20.382,11.462c1.239,2.654,2.479,5.308,3.719,7.962
	c-0.009-0.004-0.019-0.007-0.028-0.01c-0.316-0.231-0.634-0.464-0.95-0.695c-0.384-0.363-0.789-0.704-1.154-1.086
	c-0.079-0.068-0.158-0.136-0.237-0.204c-0.371-0.576-0.809-1.202-1.392-1.561c-0.012-0.541-0.248-0.897-0.356-1.29
	c0.022-0.255,0.045-0.51,0.068-0.764c0.122-0.765-0.242-1.524-0.765-1.68c0.08-0.629-0.023-1.125-0.474-1.356
	c-0.108-0.023-0.215-0.046-0.323-0.068c-0.099-0.046-0.09-0.192-0.221-0.237c-0.211,0.777-0.394,1.813-0.526,2.681
	c-0.011,0-0.023,0-0.034,0c-0.142-1.495,0.522-2.681-1.153-3.106c-0.023-0.094-0.074-0.148-0.137-0.203
	c-0.011,0.006-0.021,0.012-0.033,0.017c-0.254,1.075-0.07,2.385-0.288,3.496c-0.006,0-0.012,0-0.018,0c-0.005,0-0.012,0-0.017,0
	c-0.131-0.447-0.846-1.018-1.324-1.136c-0.203-0.052-0.365,0.02-0.542,0.033c-0.042-0.054-0.081-0.095-0.153-0.119
	c0,0.012,0,0.022,0,0.034c-0.119,0.316,0.175,0.828,0.289,1.019c0.451,0.758,0.771,1.579,1.137,2.426
	c0.176,0.503,0.351,1.007,0.526,1.51c0.146,0.25,0.422,0.387,0.611,0.595c0.311,0.367,0.622,0.735,0.933,1.103
	c0.26,0.277,0.52,0.555,0.78,0.832c0.412,0.534,0.54,1.12,1.052,1.577c0.254,0.159,0.509,0.316,0.763,0.476
	c1.229,0.986,3.081,1.875,3.835,3.292c0.107,0.243,0.215,0.486,0.323,0.729c-0.012,0.367-0.023,0.735-0.034,1.103
	c0.065,0.524-0.097,1.119-0.221,1.578c-0.103,0.488-0.207,0.979-0.309,1.469h4.508c-0.002-0.229-0.005-0.458-0.008-0.688
	c-0.023-0.681,0.123-1.359,0.187-1.951c0.005,0.011,0.012,0.022,0.017,0.032c0.13,0.332,0.034,0.971,0.034,1.409
	c-0.009,0.399-0.017,0.798-0.026,1.197h4.469c-0.034-0.258-0.066-0.515-0.1-0.772c-0.29-1.396-0.486-2.562,0.153-3.717
	c0.384-0.694,1.096-1.193,1.731-1.646c0.862-0.613,1.657-1.358,2.528-1.968c0.368-0.211,0.735-0.419,1.103-0.629
	c0.426-0.36,0.677-1.031,1.018-1.476c0.195-0.254,0.47-0.44,0.68-0.679c0.282-0.328,0.564-0.656,0.848-0.984
	c0.227-0.22,0.453-0.441,0.679-0.662c0.305-0.679,0.611-1.356,0.916-2.036c0.315-0.534,0.63-1.021,0.968-1.543
	c0.19-0.295,0.486-0.534,0.526-0.984C-136.51,57.372-136.539,57.48-136.75,57.479z M-149.631,50.69
	c1.596-1.712,3.791-1.169,4.713,0.806c0.913,1.958,0.21,4.606-1.389,6.315c-1.599,1.704-3.639,1.491-4.566-0.491
	C-151.783,55.37-151.23,52.395-149.631,50.69z M-142.994,60.736c0-0.006,0-0.012,0-0.018c0.191-0.563,0.717-1.773,1.171-1.986
	C-141.9,59.031-142.783,60.645-142.994,60.736z M-141.484,58.055c0.017,0,0.035,0,0.051,0
	C-141.455,58.1-141.472,58.104-141.484,58.055z M-140.143,58.683c-0.179,0.377-0.271,0.933-0.561,1.205c-0.005,0-0.011,0-0.017,0
	c0-0.006,0-0.012,0-0.018c0.222-0.566,0.491-1.713,0.984-1.968C-139.872,58.162-140.008,58.423-140.143,58.683z M-148.464,52.471
	c0.19,0.408,0.38,0.814,0.571,1.224c0.051-0.05,0.103-0.1,0.153-0.147c0.523-0.483,0.924-0.703,1.192-0.691
	c0.267,0.011,0.513,0.257,0.737,0.735c0.242,0.518,0.31,0.969,0.207,1.361c-0.101,0.394-0.399,0.822-0.881,1.316
	c-0.046,0.047-0.093,0.096-0.138,0.145c0.085,0.182,0.169,0.363,0.255,0.548c-0.153,0.155-0.305,0.315-0.457,0.474
	c-0.085-0.181-0.17-0.364-0.255-0.545c-0.044,0.041-0.087,0.086-0.13,0.129c-0.474,0.503-0.85,0.763-1.136,0.769
	c-0.285,0.007-0.542-0.237-0.772-0.729c-0.026-0.058-0.051-0.112-0.076-0.169c0.223-0.24,0.445-0.48,0.668-0.721
	c0.013,0.029,0.026,0.059,0.04,0.089c0.141,0.297,0.271,0.449,0.389,0.452c0.119,0.006,0.313-0.138,0.585-0.426
	c0.034-0.034,0.067-0.066,0.101-0.101c-0.206-0.442-0.411-0.883-0.617-1.324c-0.531,0.561-0.934,0.854-1.214,0.873
	c-0.281,0.019-0.542-0.229-0.784-0.747c-0.232-0.498-0.295-0.947-0.188-1.339c0.108-0.39,0.423-0.872,0.952-1.43
	c-0.074-0.158-0.148-0.316-0.222-0.475c0.152-0.16,0.303-0.318,0.456-0.476c0.074,0.159,0.148,0.316,0.222,0.476
	c0.509-0.523,0.907-0.773,1.184-0.777c0.275-0.006,0.525,0.237,0.75,0.718c0.017,0.035,0.034,0.073,0.052,0.109
	c-0.229,0.207-0.454,0.419-0.677,0.638c-0.014-0.029-0.029-0.058-0.043-0.086c-0.169-0.361-0.444-0.359-0.818,0.021
	C-148.393,52.399-148.429,52.436-148.464,52.471z M-148.924,52.941c-0.031,0.037-0.063,0.07-0.094,0.106
	c-0.399,0.423-0.506,0.832-0.325,1.216c0.188,0.405,0.48,0.397,0.877-0.024c0.002-0.004,0.037-0.036,0.103-0.099
	C-148.55,53.741-148.736,53.342-148.924,52.941z M-146.955,55.707c0.033-0.032,0.066-0.067,0.099-0.101
	c0.438-0.446,0.556-0.883,0.342-1.339c-0.118-0.25-0.243-0.365-0.378-0.348c-0.135,0.017-0.358,0.179-0.666,0.493
	C-147.357,54.846-147.155,55.276-146.955,55.707z"/>
</svg>
