<?xml version="1.0" encoding="utf-8"?>
<!-- Generator: Adobe Illustrator 16.0.0, SVG Export Plug-In . SVG Version: 6.00 Build 0)  -->
<!DOCTYPE svg PUBLIC "-//W3C//DTD SVG 1.1//EN" "http://www.w3.org/Graphics/SVG/1.1/DTD/svg11.dtd">
<svg version="1.1" id="Layer_1" xmlns="http://www.w3.org/2000/svg" xmlns:xlink="http://www.w3.org/1999/xlink" x="0px" y="0px"
	 width="50px" height="50px" viewBox="-105.5 34.5 50 50" enable-background="new -105.5 34.5 50 50" xml:space="preserve">
<path d="M-80.552,65.635c2.97,0,5.386-2.416,5.386-5.387c0-1.438-0.56-2.789-1.577-3.807c-1.017-1.016-2.37-1.576-3.809-1.576
	c-2.97,0-5.386,2.416-5.386,5.385S-83.521,65.635-80.552,65.635z M-80.55,55.865c2.417,0,4.384,1.967,4.384,4.383
	c0,2.42-1.967,4.387-4.386,4.387s-4.386-1.967-4.386-4.385S-82.969,55.865-80.55,55.865z M-81.106,63.281l0.198,0.004v0.693h0.705
	v-0.693l0.215-0.004c0.74,0,1.259-0.131,1.556-0.396c0.297-0.264,0.445-0.723,0.445-1.377c0-0.607-0.137-1.025-0.408-1.252
	c-0.273-0.229-0.798-0.365-1.575-0.406l-0.232-0.01v-1.549h0.164c0.573,0,0.86,0.23,0.859,0.689l0.005,0.111h1.011v-0.141
	c0-0.609-0.144-1.025-0.432-1.248c-0.289-0.225-0.824-0.336-1.608-0.338v-0.602h-0.704v0.604c-0.82,0-1.382,0.117-1.685,0.35
	c-0.302,0.232-0.453,0.668-0.453,1.301c0,0.654,0.15,1.102,0.451,1.34c0.302,0.236,0.863,0.355,1.687,0.357v1.676l-0.155-0.004
	c-0.421,0-0.694-0.057-0.814-0.166c-0.122-0.111-0.184-0.357-0.184-0.736v-0.109h-1.045l-0.004,0.213
	c0,0.623,0.149,1.063,0.449,1.314C-82.361,63.156-81.843,63.281-81.106,63.281z M-80.203,60.752c0.474,0,0.784,0.051,0.934,0.15
	c0.149,0.102,0.224,0.309,0.224,0.623c0,0.578-0.335,0.865-1.007,0.865h-0.151L-80.203,60.752z M-81.063,59.797
	c-0.616,0-0.925-0.256-0.925-0.771c0-0.488,0.31-0.734,0.93-0.734l0.149-0.006l0.001,1.52
	C-81.006,59.799-81.058,59.797-81.063,59.797z M-66.264,61.369c0.926,1.059,0.288,1.654-0.132,1.854
	c-0.098,0.045-0.188,0.08-0.272,0.107l0-10.166h-1.404v-1.498H-95.84l-0.001,14.17h1.406v1.498h27.767v-1.236
	c0.255-0.191,0.501-0.42,0.734-0.693C-64.015,63.156-66.264,61.369-66.264,61.369z M-94.841,64.836l0.001-12.17h25.767v0.498
	h-25.361v11.672H-94.841z M-93.435,54.164h25.766v3.318c-0.029-0.01-0.051-0.016-0.051-0.016c0.02,0.023,0.033,0.043,0.051,0.064
	l0,1.816c-0.255,0.123-0.543,0.154-0.712,0.104c-2.365-0.693-0.728-4.365-0.728-4.365c-2.712,0.992-1.323,4.168-1.323,4.168
	c1.918,5.094,0.291,5.977-0.86,5.291c-1.719-1.025-0.396-4.432-0.396-4.432c-2.48,3.473-1.504,5.584-0.331,6.186
	c0.024,0.012,0.051,0.023,0.076,0.035h-14.951c0.336-0.221,0.66-0.494,0.961-0.846c1.918-2.25-0.331-4.035-0.331-4.035
	c0.926,1.057,0.288,1.652-0.132,1.852c-1.621,0.77-1.281-1.266-1.059-1.721c1.782-3.625-0.265-4.033-0.265-4.033
	c1.389,1.586-0.159,2.131-0.661,1.984c-2.365-0.695-0.728-4.367-0.728-4.367c-2.712,0.992-1.323,4.168-1.323,4.168
	c1.918,5.094,0.291,5.979-0.86,5.291c-1.719-1.023-0.396-4.432-0.396-4.432c-2.425,3.395-1.546,5.484-0.409,6.139h-1.337V54.164z"/>
</svg>
