<?xml version="1.0" encoding="utf-8"?>
<!-- Generator: Adobe Illustrator 16.0.0, SVG Export Plug-In . SVG Version: 6.00 Build 0)  -->
<!DOCTYPE svg PUBLIC "-//W3C//DTD SVG 1.1//EN" "http://www.w3.org/Graphics/SVG/1.1/DTD/svg11.dtd">
<svg version="1.1" id="Layer_1" xmlns="http://www.w3.org/2000/svg" xmlns:xlink="http://www.w3.org/1999/xlink" x="0px" y="0px"
	 width="50px" height="50px" viewBox="-35.5 34.5 50 50" enable-background="new -35.5 34.5 50 50" xml:space="preserve">
<path d="M-2.085,67.936C0.126,65.76,1.5,62.734,1.5,59.387c0-2.742-0.929-5.26-2.475-7.279c1.825-2.029,1.681-5.24,1.681-5.24
	s-3.421-0.158-5.434,1.854c-0.031,0.031-0.057,0.064-0.087,0.098c-1.692-0.912-3.628-1.432-5.686-1.432s-3.993,0.52-5.686,1.432
	c-0.03-0.033-0.056-0.066-0.087-0.098c-2.012-2.012-5.434-1.854-5.434-1.854s-0.144,3.211,1.681,5.24
	c-1.546,2.02-2.475,4.537-2.475,7.279c0,3.348,1.374,6.373,3.585,8.549c-0.682,0.387-1.148,1.109-1.148,1.951
	c0,1.242,1.007,2.25,2.25,2.25c1.122,0,2.045-0.824,2.215-1.898c1.549,0.729,3.272,1.148,5.098,1.148s3.549-0.42,5.098-1.148
	c0.17,1.074,1.093,1.898,2.215,1.898c1.243,0,2.25-1.008,2.25-2.25C-0.938,69.045-1.403,68.322-2.085,67.936z M-14.167,51.887h7.333
	v1h-7.333V51.887z M-16.25,57.762c0-0.656,0.532-1.188,1.188-1.188s1.188,0.531,1.188,1.188c0,0.654-0.532,1.188-1.188,1.188
	S-16.25,58.416-16.25,57.762z M-10.5,68.387c-2.416,0-4.375-1.959-4.375-4.375s1.959-4.375,4.375-4.375s4.375,1.959,4.375,4.375
	S-8.084,68.387-10.5,68.387z M-5.938,58.949c-0.656,0-1.188-0.533-1.188-1.188c0-0.656,0.532-1.188,1.188-1.188
	s1.188,0.531,1.188,1.188C-4.75,58.416-5.282,58.949-5.938,58.949z M-10.148,61.885v1.574l0.236,0.01
	c0.791,0.043,1.324,0.18,1.601,0.412c0.277,0.232,0.416,0.656,0.416,1.275c0,0.664-0.151,1.131-0.453,1.398
	c-0.301,0.268-0.828,0.402-1.581,0.402l-0.219,0.004v0.705h-0.717v-0.705l-0.201-0.004c-0.749,0-1.276-0.129-1.581-0.385
	c-0.305-0.256-0.457-0.703-0.457-1.338l0.005-0.215h1.062v0.109c0,0.387,0.063,0.639,0.186,0.75c0.123,0.113,0.399,0.17,0.829,0.17
	l0.157,0.004v-1.707c-0.837,0-1.408-0.121-1.714-0.361c-0.306-0.244-0.46-0.697-0.46-1.361c0-0.643,0.154-1.084,0.462-1.322
	c0.308-0.236,0.879-0.355,1.712-0.355v-0.611h0.717v0.611c0.797,0,1.341,0.113,1.634,0.34c0.292,0.227,0.438,0.65,0.438,1.268v0.146
	h-1.027l-0.004-0.115c0-0.467-0.291-0.699-0.875-0.699H-10.148z M-10.865,61.881l-0.153,0.004c-0.631,0-0.944,0.25-0.944,0.748
	c0,0.521,0.313,0.783,0.94,0.783c0.006,0,0.058,0.002,0.157,0.008V61.881z M-10.148,66.053h0.152c0.683,0,1.024-0.295,1.024-0.879
	c0-0.322-0.075-0.533-0.227-0.635c-0.152-0.102-0.468-0.152-0.95-0.152V66.053z"/>
</svg>
