<?xml version="1.0" encoding="utf-8"?>
<!-- Generator: Adobe Illustrator 16.0.0, SVG Export Plug-In . SVG Version: 6.00 Build 0)  -->
<!DOCTYPE svg PUBLIC "-//W3C//DTD SVG 1.1//EN" "http://www.w3.org/Graphics/SVG/1.1/DTD/svg11.dtd">
<svg version="1.1" id="Layer_1" xmlns="http://www.w3.org/2000/svg" xmlns:xlink="http://www.w3.org/1999/xlink" x="0px" y="0px"
	 width="50px" height="50px" viewBox="34.5 34.5 50 50" enable-background="new 34.5 34.5 50 50" xml:space="preserve">
<path d="M77.131,59.521c-2.182-3.834-4.363-7.668-6.545-11.5c-0.386-0.064-0.759-0.105-1.123-0.131l-1.044-1.834l-0.515-0.008
	c-0.558,0-1.086,0.051-1.598,0.129l-1.004-1.766l-0.351,0.066c-4.353,0.826-7.142,4.354-9.84,7.766
	c-3.317,4.195-6.439,8.158-12.265,7.492l-0.979-0.111l7.156,12.578l0.252,0.029c0.464,0.053,0.923,0.08,1.372,0.08
	c0.203,0,0.401-0.016,0.602-0.025l1.002,1.762l0.319-0.027c0.594-0.053,1.158-0.154,1.698-0.297
	c0.164,0.287,0.327,0.576,0.491,0.863c3.201-0.795,5.513-3.152,7.67-5.781v1.672h13.834v-2H62.7
	c0.357-0.441,0.711-0.887,1.064-1.334h12.501v-2H65.375C68.335,61.586,71.631,58.617,77.131,59.521z M49.642,71.266L43.69,60.803
	c5.756,0.195,9.037-3.93,12.206-7.938c2.624-3.318,5.105-6.459,8.894-7.33l0.485,0.854c-3.968,1.043-6.605,4.365-9.167,7.605
	c-2.903,3.67-5.646,7.139-10.165,7.529l-0.777,0.068l5.527,9.715C50.348,71.309,49.998,71.297,49.642,71.266z M48.217,63.086
	c1.847,3.244,3.692,6.49,5.539,9.734c-0.31,0.07-0.625,0.133-0.953,0.172l-6.012-10.566c4.503-0.732,7.347-4.328,10.102-7.813
	c3.063-3.871,5.955-7.531,10.94-7.564l0.468,0.822C58.9,48.186,56.613,61.006,48.217,63.086z M58.742,63.561
	c-1.227-2.158-0.867-5.629,0.813-7.736c1.678-2.115,4.25-1.697,5.494,0.49c1.23,2.164,0.666,5.273-1.012,7.387
	C62.357,65.811,59.992,65.754,58.742,63.561z M62.432,71.813h13.834v2H62.432V71.813z M61.063,57.764
	c0.256,0.449,0.512,0.9,0.77,1.352c0.053-0.063,0.109-0.123,0.162-0.184c0.557-0.604,0.996-0.895,1.305-0.906
	c0.309-0.014,0.615,0.25,0.918,0.779c0.324,0.572,0.445,1.086,0.363,1.547c-0.08,0.461-0.383,0.982-0.893,1.592
	c-0.049,0.061-0.096,0.119-0.145,0.18c0.115,0.203,0.23,0.404,0.344,0.605c-0.16,0.195-0.32,0.391-0.479,0.588
	c-0.115-0.201-0.23-0.402-0.346-0.605c-0.045,0.055-0.092,0.109-0.137,0.164c-0.498,0.621-0.908,0.953-1.234,0.986
	c-0.328,0.037-0.646-0.221-0.955-0.766c-0.035-0.063-0.07-0.125-0.104-0.188c0.234-0.297,0.469-0.594,0.703-0.889
	c0.018,0.031,0.035,0.064,0.053,0.096c0.189,0.332,0.354,0.492,0.49,0.486s0.348-0.189,0.633-0.545
	c0.035-0.041,0.07-0.084,0.107-0.127c-0.279-0.488-0.557-0.977-0.834-1.465c-0.559,0.693-0.994,1.068-1.314,1.117
	s-0.645-0.213-0.969-0.783c-0.314-0.555-0.428-1.064-0.342-1.521c0.088-0.461,0.406-1.045,0.961-1.734
	c-0.1-0.176-0.199-0.35-0.299-0.525c0.158-0.197,0.318-0.393,0.48-0.588c0.1,0.176,0.199,0.352,0.299,0.525
	c0.537-0.646,0.971-0.973,1.287-1.004c0.316-0.029,0.627,0.225,0.93,0.754c0.023,0.041,0.047,0.084,0.07,0.125
	c-0.244,0.256-0.482,0.523-0.719,0.793c-0.018-0.031-0.039-0.063-0.059-0.094c-0.227-0.4-0.545-0.373-0.938,0.098
	C61.137,57.672,61.098,57.717,61.063,57.764z M60.578,58.348c-0.033,0.043-0.066,0.086-0.1,0.129
	c-0.418,0.523-0.504,1.002-0.26,1.43c0.254,0.447,0.588,0.41,1.006-0.109c0.002-0.006,0.041-0.047,0.109-0.125
	C61.08,59.23,60.83,58.789,60.578,58.348z M63.098,61.342c0.033-0.039,0.07-0.082,0.105-0.123c0.461-0.555,0.555-1.068,0.268-1.574
	c-0.158-0.275-0.313-0.395-0.467-0.363s-0.395,0.24-0.719,0.631C62.555,60.389,62.826,60.865,63.098,61.342z"/>
</svg>
