<?xml version="1.0" encoding="utf-8"?>
<!-- Generator: Adobe Illustrator 16.0.0, SVG Export Plug-In . SVG Version: 6.00 Build 0)  -->
<!DOCTYPE svg PUBLIC "-//W3C//DTD SVG 1.1//EN" "http://www.w3.org/Graphics/SVG/1.1/DTD/svg11.dtd">
<svg version="1.1" id="Layer_1" xmlns="http://www.w3.org/2000/svg" xmlns:xlink="http://www.w3.org/1999/xlink" x="0px" y="0px"
	 width="50px" height="50px" viewBox="104.5 34.5 50 50" enable-background="new 104.5 34.5 50 50" xml:space="preserve">
<path d="M140.506,48.837l-2.2,1.436l-6.37-5.218l-1.176,1.436l-6.392-3.526l-13.505,24.257l12.182,6.783l1.327,2.032l0.872-0.569
	l0.063,0.051l0.16-0.196l22.67-14.791L140.506,48.837z M112.223,66.834l12.534-22.513l5.359,2.955l-15.774,19.263l5.625,4.606
	L112.223,66.834z M115.75,66.398l1.298-1.585l3.712,5.688L115.75,66.398z M135.052,66.441c-2.212,1.442-5.175,0.821-6.619-1.39
	c-1.442-2.214-0.819-5.174,1.394-6.617c2.211-1.445,5.174-0.821,6.617,1.389C137.887,62.035,137.264,64.998,135.052,66.441z
	 M118.224,63.378l13.853-16.915l5.352,4.383L118.224,63.378z M131.613,60.497l0.897,1.374l0.211-0.124
	c0.714-0.415,1.261-0.599,1.635-0.554c0.373,0.045,0.737,0.334,1.087,0.877c0.379,0.58,0.516,1.073,0.403,1.481
	c-0.109,0.403-0.493,0.823-1.151,1.25l-0.189,0.129l0.402,0.615l-0.627,0.408l-0.401-0.615l-0.179,0.111
	c-0.652,0.426-1.186,0.614-1.599,0.565c-0.411-0.05-0.798-0.354-1.16-0.908l-0.12-0.19l0.928-0.605l0.063,0.096
	c0.221,0.337,0.417,0.521,0.589,0.548c0.171,0.029,0.445-0.081,0.82-0.324l0.14-0.085l-0.972-1.489
	c-0.73,0.475-1.298,0.695-1.703,0.659c-0.406-0.035-0.798-0.347-1.178-0.927c-0.367-0.561-0.482-1.037-0.35-1.419
	c0.133-0.381,0.563-0.811,1.291-1.286l-0.349-0.535l0.626-0.408l0.349,0.533c0.696-0.452,1.236-0.665,1.624-0.632
	c0.384,0.031,0.752,0.318,1.104,0.858l0.083,0.124l-0.897,0.586l-0.068-0.095c-0.266-0.408-0.652-0.447-1.162-0.114L131.613,60.497z
	 M130.984,60.9l-0.13,0.092c-0.552,0.36-0.685,0.756-0.4,1.191c0.298,0.456,0.721,0.505,1.269,0.147
	c0.004-0.002,0.053-0.029,0.141-0.081L130.984,60.9z M133.987,64.135l0.136-0.086c0.596-0.391,0.727-0.839,0.393-1.353
	c-0.183-0.279-0.369-0.419-0.561-0.422c-0.191-0.002-0.496,0.132-0.915,0.406L133.987,64.135z"/>
</svg>
