<?xml version="1.0" encoding="utf-8"?>
<!-- Generator: Adobe Illustrator 16.0.0, SVG Export Plug-In . SVG Version: 6.00 Build 0)  -->
<!DOCTYPE svg PUBLIC "-//W3C//DTD SVG 1.1//EN" "http://www.w3.org/Graphics/SVG/1.1/DTD/svg11.dtd">
<svg version="1.1" id="Layer_1" xmlns="http://www.w3.org/2000/svg" xmlns:xlink="http://www.w3.org/1999/xlink" x="0px" y="0px"
	 width="50px" height="50px" viewBox="174.5 34.5 50 50" enable-background="new 174.5 34.5 50 50" xml:space="preserve">
<path d="M197.028,57.166l0.219-0.006v2.201c-0.143-0.009-0.216-0.011-0.225-0.011c-0.895,0-1.342-0.372-1.342-1.117
	C195.681,57.521,196.129,57.166,197.028,57.166z M199.626,60.954c-0.217-0.146-0.669-0.218-1.355-0.218v2.377h0.218
	c0.974,0,1.462-0.419,1.462-1.254C199.95,61.4,199.842,61.101,199.626,60.954z M206.019,59.891c0,4.556-3.694,8.251-8.25,8.251
	c-4.557,0-8.251-3.695-8.251-8.251c0-4.558,3.694-8.25,8.251-8.25C202.324,51.641,206.019,55.333,206.019,59.891z M201.484,61.834
	c0-0.882-0.196-1.488-0.593-1.818c-0.395-0.332-1.156-0.528-2.283-0.59l-0.338-0.014v-2.246h0.238c0.832,0,1.248,0.333,1.248,0.999
	l0.005,0.162h1.467v-0.208c0-0.881-0.209-1.485-0.626-1.809c-0.418-0.324-1.195-0.485-2.332-0.485v-0.874h-1.023v0.874
	c-1.189,0-2.004,0.169-2.443,0.509c-0.439,0.338-0.659,0.968-0.659,1.886c0,0.948,0.22,1.595,0.656,1.942
	c0.437,0.344,1.252,0.517,2.446,0.517v2.435l-0.225-0.005c-0.612,0-1.006-0.081-1.182-0.242c-0.178-0.16-0.266-0.517-0.266-1.071
	v-0.154h-1.518l-0.006,0.306c0,0.906,0.217,1.544,0.652,1.91c0.434,0.365,1.188,0.549,2.256,0.549l0.287,0.007v1.005h1.023v-1.005
	l0.312-0.007c1.073,0,1.826-0.192,2.257-0.573C201.269,63.448,201.484,62.783,201.484,61.834z M217.038,75.163
	c-1.028,0.407-1.338-0.265-2.578-4.535c-0.157-0.543-0.191-1.689,0.007-2.37c0,0-1.077-0.418-1.118-0.699
	c0,0-2.264,0.97-3.146,2.467c0,0-1.96,3.821-3.087,2.636c-0.476-0.502-1.102-2.261,1.328-3.44c0.258-0.125,0.675-0.159,1.095,0.344
	c0,0,0.172,0.185,0.428-0.363c0,0,1.033-1.253,2.096-2.246c0.385-0.359,0.667-0.931-0.009-2.106
	c-0.736-1.28-2.056-4.462-2.346-5.422c-0.2-0.661-0.8-2.189-0.581-2.72c0,0,0.191,0.053,1.133,1.885
	c0.722,1.401,2.988,5.546,2.988,5.546l4.264-7.559c0,0,0.475,0.37-1.023,3.773c-0.584,1.329-2.336,5.314-2.336,5.314
	s-0.185,0.323,0.258,1.069c0,0,0.552,0.5,0.648,2.21c0,0,0.002,0.15,0.247,0.128c0,0,1.782,0.36,2.31,2.678
	C217.808,72.595,218.237,74.688,217.038,75.163z M208.731,69.763c0,0-0.921-0.025-1.434,1.016c-0.147,0.298-0.322,1.227,0.485,1.178
	c0,0,0.64,0.048,1.249-0.806C209.032,71.15,209.542,69.921,208.731,69.763z M217.239,71.794c0,0-0.686-2.115-1.796-2.157
	c0,0-0.583-0.012-0.343,1.132c0,0,0.589,1.531,0.724,2.06c0.122,0.481,0.456,1.893,1.224,1.563
	C217.048,74.392,217.757,74.007,217.239,71.794z M210.817,76.167h2.5v-2h-2.5V76.167z M200.351,76.167h5.233v-2h-5.233V76.167z
	 M189.884,76.167h5.233v-2h-5.233V76.167z M183.15,72.667h-2v3.5h3.5v-2h-1.5V72.667z M183.15,62.134h-2V67.4h2V62.134z
	 M183.15,51.6h-2v5.268h2V51.6z M181.15,46.333h2v-1.5h1.5v-2h-3.5V46.333z M205.718,42.833h-5.268v2h5.268V42.833z M195.184,42.833
	h-5.267v2h5.267V42.833z M212.484,46.333h2v-3.5h-3.5v2h1.5V46.333z M212.484,56.167h2v-2.5h-2V56.167z"/>
</svg>
