<?xml version="1.0" encoding="utf-8"?>
<!-- Generator: Adobe Illustrator 16.0.0, SVG Export Plug-In . SVG Version: 6.00 Build 0)  -->
<!DOCTYPE svg PUBLIC "-//W3C//DTD SVG 1.1//EN" "http://www.w3.org/Graphics/SVG/1.1/DTD/svg11.dtd">
<svg version="1.1" id="Layer_1" xmlns="http://www.w3.org/2000/svg" xmlns:xlink="http://www.w3.org/1999/xlink" x="0px" y="0px"
	 width="50px" height="50px" viewBox="244.5 34.5 50 50" enable-background="new 244.5 34.5 50 50" xml:space="preserve">
<path d="M260.578,54.313c0.081,0.057,0.122,0.168,0.122,0.34c0,0.313-0.183,0.471-0.548,0.471h-0.081v-0.891
	C260.328,54.232,260.497,54.26,260.578,54.313z M259.102,53.295c0,0.279,0.166,0.418,0.502,0.418c0.002,0,0.031,0.002,0.084,0.004
	v-0.826l-0.082,0.004C259.269,52.895,259.102,53.027,259.102,53.295z M279.551,54.314c0,0.279,0.167,0.418,0.502,0.418
	c0.003,0,0.031,0.002,0.084,0.004v-0.824l-0.082,0.002C279.719,53.914,279.551,54.047,279.551,54.314z M283.424,54.936
	c0,1.707-1.384,3.092-3.092,3.092c-1.707,0-3.09-1.385-3.09-3.092c0-1.146,0.632-2.137,1.559-2.67l-0.408-0.512l-7.922,8.195v3.213
	l5.215-3.283l1.066,1.693l-1.359,0.855l0.3,0.814c0.183-0.043,0.371-0.07,0.566-0.07c0.095,0,0.185,0.018,0.277,0.029
	c0.099-0.449,0.365-1.303,1.035-1.705c0.929-0.561,2.274-0.029,2.274-0.029s-0.16,1.438-1.09,1.998
	c-0.296,0.178-0.634,0.238-0.958,0.248c0.589,0.459,0.974,1.168,0.974,1.971c0,1.389-1.125,2.512-2.513,2.512
	c-1.386,0-2.511-1.123-2.511-2.512c0-0.844,0.42-1.586,1.059-2.041l-0.03,0.01l-0.25-0.68l-4.056,2.555v6.631h6.591v2h-15.483v-2
	h6.893V56.285l-6.146-5.785l-0.711,0.854c0.82,0.555,1.36,1.494,1.36,2.561c0,1.709-1.384,3.092-3.091,3.092
	s-3.092-1.383-3.092-3.092c0-0.832,0.333-1.584,0.868-2.139c-0.19-0.025-0.381-0.068-0.563-0.146
	c-1.302-0.553-1.772-2.379-1.772-2.379s1.638-0.93,2.94-0.379c0.908,0.385,1.406,1.383,1.628,1.955c0.267,0,0.521,0.045,0.769,0.109
	l0.935-1.121l-3.132-2.947l1.371-1.457l10.637,10.012v1.65l4.111-4.254l-5.737-4.441l1.225-1.582l1.159,0.898
	c0.307-0.695,0.877-1.674,1.845-2.256c1.616-0.975,3.71-0.461,3.71-0.461s-0.525,2.09-2.141,3.064
	c-0.719,0.434-1.525,0.564-2.207,0.586l3.546,2.744l3.771-3.9l1.438,1.391l-2.096,2.168l0.695,0.869
	c0.123-0.021,0.249-0.031,0.376-0.037c0.054-0.332,0.296-1.496,1.128-1.996c0.973-0.588,2.384-0.031,2.384-0.031
	s-0.167,1.506-1.142,2.094c-0.257,0.154-0.543,0.227-0.827,0.254C282.722,52.688,283.424,53.725,283.424,54.936z M261.275,54.643
	c0-0.33-0.074-0.559-0.223-0.68c-0.148-0.127-0.434-0.199-0.855-0.221l-0.126-0.006v-0.842h0.089c0.313,0,0.467,0.123,0.467,0.373
	l0.003,0.063h0.549v-0.078c0-0.33-0.078-0.557-0.233-0.678c-0.158-0.121-0.448-0.182-0.874-0.182v-0.328h-0.384v0.328
	c-0.446,0-0.751,0.063-0.916,0.189c-0.164,0.127-0.246,0.363-0.246,0.707c0,0.355,0.082,0.598,0.246,0.729
	c0.163,0.129,0.469,0.193,0.916,0.193v0.912l-0.084-0.002c-0.229,0-0.378-0.029-0.443-0.092c-0.066-0.059-0.1-0.193-0.1-0.4V54.57
	h-0.568l-0.002,0.115c0,0.34,0.081,0.578,0.244,0.715c0.163,0.139,0.445,0.205,0.846,0.205l0.107,0.004v0.377h0.384v-0.377
	l0.116-0.004c0.402,0,0.685-0.072,0.846-0.213C261.194,55.248,261.275,55,261.275,54.643z M276.102,64.447
	c-0.363,0-0.611,0.051-0.744,0.154c-0.135,0.104-0.201,0.295-0.201,0.574c0,0.289,0.066,0.484,0.199,0.59
	c0.134,0.105,0.382,0.158,0.746,0.158v0.742l-0.068-0.004c-0.188,0-0.308-0.023-0.361-0.072c-0.053-0.049-0.08-0.158-0.08-0.326
	v-0.047h-0.461l-0.003,0.094c0,0.275,0.065,0.469,0.198,0.582c0.133,0.109,0.362,0.166,0.688,0.166l0.088,0.002v0.305h0.312v-0.305
	l0.094-0.002c0.327,0,0.557-0.059,0.687-0.176c0.132-0.115,0.197-0.318,0.197-0.607c0-0.27-0.061-0.453-0.18-0.553
	c-0.121-0.102-0.353-0.162-0.695-0.18l-0.103-0.004v-0.684h0.071c0.254,0,0.381,0.1,0.381,0.303l0.001,0.051h0.446v-0.064
	c0-0.268-0.063-0.451-0.19-0.551c-0.128-0.1-0.363-0.146-0.709-0.146v-0.266h-0.312V64.447z M281.725,55.662
	c0-0.33-0.074-0.557-0.221-0.68c-0.148-0.125-0.434-0.197-0.856-0.221l-0.126-0.006v-0.842h0.088c0.313,0,0.469,0.125,0.469,0.375
	l0.002,0.061h0.549v-0.078c0-0.33-0.078-0.557-0.234-0.678s-0.447-0.182-0.873-0.182v-0.326h-0.385v0.326
	c-0.445,0-0.75,0.064-0.914,0.189c-0.165,0.127-0.248,0.363-0.248,0.707c0,0.355,0.083,0.598,0.246,0.729
	c0.164,0.129,0.469,0.193,0.916,0.193v0.912l-0.084-0.002c-0.229,0-0.377-0.029-0.443-0.09c-0.064-0.061-0.099-0.195-0.099-0.402
	V55.59h-0.568l-0.002,0.115c0,0.34,0.081,0.578,0.244,0.717c0.163,0.137,0.445,0.205,0.846,0.205l0.106,0.002v0.377h0.385v-0.377
	l0.115-0.002c0.402,0,0.686-0.072,0.846-0.215C281.645,56.268,281.725,56.02,281.725,55.662z M280.521,55.252v0.891h0.081
	c0.364,0,0.548-0.156,0.548-0.469c0-0.174-0.041-0.285-0.122-0.34S280.777,55.252,280.521,55.252z M276.033,65.52
	c0.002,0,0.024,0.002,0.068,0.004v-0.67l-0.067,0.002c-0.274,0-0.409,0.107-0.409,0.324C275.625,65.408,275.76,65.52,276.033,65.52z
	 M276.924,66.283c0-0.141-0.033-0.23-0.099-0.275c-0.066-0.045-0.204-0.066-0.412-0.066v0.725h0.065
	C276.775,66.666,276.924,66.537,276.924,66.283z"/>
</svg>
