<?xml version="1.0" encoding="utf-8"?>
<!-- Generator: Adobe Illustrator 16.0.0, SVG Export Plug-In . SVG Version: 6.00 Build 0)  -->
<!DOCTYPE svg PUBLIC "-//W3C//DTD SVG 1.1//EN" "http://www.w3.org/Graphics/SVG/1.1/DTD/svg11.dtd">
<svg version="1.1" id="Layer_1" xmlns="http://www.w3.org/2000/svg" xmlns:xlink="http://www.w3.org/1999/xlink" x="0px" y="0px"
	 width="50px" height="50px" viewBox="314.5 34.5 50 50" enable-background="new 314.5 34.5 50 50" xml:space="preserve">
<path d="M346.36,47.206c-1.82-2.032-4.228-3.919-10.175-3.963c-2.324-0.019-5.871,0.531-8.631,3.45
	c-1.67,1.764-2.901,3.989-2.551,7.63c0.077,0.79,1.204,1.703,0.411,3.229c0,0-1.702,2.994-1.644,3.493c0,0-0.029,0.912,1.379,0.94
	c0,0,0.354,0.045,0.251,0.821l-0.015,1.133c0,0,0.043,0.337,0.661,0.542c0,0,0.116,0.117-0.059,0.339c0,0-0.325,0.362,0.233,1.145
	c0.207,0.287,0.543,0.646,0.338,1.381c0,0-0.264,1.423,0.294,1.762c0,0,0.634,0.753,3.187,0.439c0.891-0.11,2.539-0.543,3.523,0.691
	c0,0,2.348,4.462,2.525,5.519c0,0,4.008-7.136,8.898-8.236c0,0-1.191-2.687,1.232-6.166c0,0,3.037-4.008,3.127-6.211
	C349.348,55.145,350.149,51.435,346.36,47.206z M337.645,60.978c-3.895,0-7.054-3.159-7.054-7.056c0-3.897,3.159-7.053,7.054-7.053
	c3.896,0,7.055,3.155,7.055,7.053C344.699,57.818,341.54,60.978,337.645,60.978z M338.363,53.524l-0.289-0.011v-1.921h0.203
	c0.712,0,1.066,0.284,1.066,0.854l0.006,0.14h1.254v-0.178c0-0.754-0.178-1.27-0.535-1.547s-1.021-0.414-1.994-0.414v-0.748h-0.875
	v0.748c-1.018,0-1.713,0.144-2.089,0.433c-0.375,0.29-0.563,0.828-0.563,1.614c0,0.811,0.188,1.363,0.561,1.66
	c0.375,0.294,1.07,0.441,2.092,0.441v2.082l-0.191-0.004c-0.523,0-0.861-0.069-1.011-0.207c-0.151-0.137-0.228-0.442-0.228-0.916
	v-0.132h-1.297l-0.006,0.262c0,0.774,0.186,1.319,0.559,1.633c0.371,0.313,1.016,0.468,1.928,0.468l0.246,0.007v0.86h0.875v-0.86
	l0.268-0.007c0.918,0,1.561-0.163,1.928-0.489c0.369-0.327,0.553-0.896,0.553-1.708c0-0.753-0.168-1.272-0.506-1.555
	C339.979,53.745,339.328,53.578,338.363,53.524z M337.199,53.47c-0.121-0.007-0.185-0.01-0.191-0.01
	c-0.766,0-1.146-0.317-1.146-0.955c0-0.608,0.382-0.912,1.152-0.912l0.186-0.005V53.47z M338.261,56.678h-0.187v-2.032
	c0.587,0,0.973,0.063,1.159,0.187c0.185,0.126,0.276,0.381,0.276,0.773C339.51,56.32,339.093,56.678,338.261,56.678z"/>
</svg>
