<?xml version="1.0" encoding="utf-8"?>
<!-- Generator: Adobe Illustrator 16.0.0, SVG Export Plug-In . SVG Version: 6.00 Build 0)  -->
<!DOCTYPE svg PUBLIC "-//W3C//DTD SVG 1.1//EN" "http://www.w3.org/Graphics/SVG/1.1/DTD/svg11.dtd">
<svg version="1.1" id="Layer_1" xmlns="http://www.w3.org/2000/svg" xmlns:xlink="http://www.w3.org/1999/xlink" x="0px" y="0px"
	 width="50px" height="50px" viewBox="-315.5 104.5 50 50" enable-background="new -315.5 104.5 50 50" xml:space="preserve">
<path d="M-274.833,138.668v2h-31.334v-2H-304v-1.517c-1.163-0.414-2.001-1.514-2.001-2.817c0-1.305,0.838-2.404,2.001-2.817v-2.031
	c-1.163-0.414-2.001-1.514-2.001-2.817c0-1.305,0.838-2.404,2.001-2.817v-5.017h2v5.017c1.163,0.413,2.001,1.513,2.001,2.817
	c0,1.304-0.838,2.403-2.001,2.817v2.031c1.163,0.413,2.001,1.513,2.001,2.817c0,1.304-0.838,2.403-2.001,2.817v1.517h6.333v-9.183
	c-1.163-0.414-2.001-1.514-2.001-2.817c0-1.305,0.838-2.404,2.001-2.817v-5.017h2v5.017c1.163,0.413,2.001,1.513,2.001,2.817
	c0,1.304-0.838,2.403-2.001,2.817v9.183h6.334v-1.517c-1.163-0.414-2.001-1.514-2.001-2.817c0-1.305,0.838-2.404,2.001-2.817
	v-12.683h2v12.683c1.163,0.413,2.001,1.513,2.001,2.817c0,1.304-0.838,2.403-2.001,2.817v1.517H-279v-1.517
	c-1.163-0.414-2.001-1.514-2.001-2.817c0-1.305,0.838-2.404,2.001-2.817v-2.031c-1.163-0.414-2.001-1.514-2.001-2.817
	c0-1.305,0.838-2.404,2.001-2.817v-5.017h2v5.017c1.163,0.413,2.001,1.513,2.001,2.817c0,1.304-0.838,2.403-2.001,2.817v2.031
	c1.163,0.413,2.001,1.513,2.001,2.817c0,1.304-0.838,2.403-2.001,2.817v1.517H-274.833z"/>
</svg>
