<?xml version="1.0" encoding="utf-8"?>
<!-- Generator: Adobe Illustrator 16.0.0, SVG Export Plug-In . SVG Version: 6.00 Build 0)  -->
<!DOCTYPE svg PUBLIC "-//W3C//DTD SVG 1.1//EN" "http://www.w3.org/Graphics/SVG/1.1/DTD/svg11.dtd">
<svg version="1.1" id="Layer_1" xmlns="http://www.w3.org/2000/svg" xmlns:xlink="http://www.w3.org/1999/xlink" x="0px" y="0px"
	 width="50px" height="50px" viewBox="-245.5 104.5 50 50" enable-background="new -245.5 104.5 50 50" xml:space="preserve">
<path d="M-238.083,132.35v9.542h35.167v-9.542H-238.083z M-213.696,135.619h-13.607v-1.502h13.607V135.619z M-208.332,126.52h-5.566
	v-1.595h5.566v-8.565h-17.09v8.565h5.566v1.595h-12.812l-5.302,3.531h34.939L-208.332,126.52z M-217.104,123.412
	c-1.484,0-2.687-1.203-2.687-2.687c0-1.484,1.203-2.688,2.687-2.688c1.483,0,2.687,1.202,2.687,2.688
	C-214.417,122.21-215.621,123.412-217.104,123.412z M-216.831,120.574l-0.109-0.005l0-0.731h0.077c0.271,0,0.406,0.107,0.406,0.325
	l0.002,0.053h0.478l0-0.066c0-0.287-0.068-0.485-0.204-0.59c-0.136-0.105-0.389-0.157-0.759-0.158v-0.285h-0.333l0,0.286
	c-0.388-0.001-0.653,0.054-0.795,0.164c-0.145,0.111-0.215,0.316-0.215,0.615c0,0.308,0.071,0.519,0.213,0.632
	c0.143,0.113,0.408,0.169,0.797,0.169v0.792l-0.073-0.002c-0.199,0.001-0.328-0.025-0.385-0.079
	c-0.058-0.052-0.086-0.168-0.086-0.348l0-0.05h-0.493l-0.002,0.099c0,0.296,0.07,0.504,0.212,0.623
	c0.141,0.118,0.386,0.178,0.735,0.178l0.093,0.001v0.329h0.333v-0.329l0.102-0.001c0.35,0,0.595-0.063,0.735-0.187
	c0.14-0.125,0.209-0.341,0.209-0.651c0-0.286-0.063-0.485-0.192-0.592C-216.215,120.658-216.464,120.594-216.831,120.574z
	 M-217.347,120.55c-0.292,0-0.437-0.122-0.437-0.364c0-0.231,0.146-0.348,0.438-0.349l0.072-0.001l0,0.718
	C-217.32,120.551-217.344,120.55-217.347,120.55z M-216.87,121.774h-0.071l0-0.773c0.224-0.001,0.371,0.022,0.441,0.07
	c0.07,0.049,0.105,0.146,0.105,0.295C-216.394,121.639-216.553,121.774-216.87,121.774z"/>
</svg>
