<?xml version="1.0" encoding="utf-8"?>
<!-- Generator: Adobe Illustrator 16.0.0, SVG Export Plug-In . SVG Version: 6.00 Build 0)  -->
<!DOCTYPE svg PUBLIC "-//W3C//DTD SVG 1.1//EN" "http://www.w3.org/Graphics/SVG/1.1/DTD/svg11.dtd">
<svg version="1.1" id="Layer_1" xmlns="http://www.w3.org/2000/svg" xmlns:xlink="http://www.w3.org/1999/xlink" x="0px" y="0px"
	 width="50px" height="50px" viewBox="-175.5 104.5 50 50" enable-background="new -175.5 104.5 50 50" xml:space="preserve">
<path d="M-131.584,120.503c-0.264-0.213-0.527-0.407-0.791-0.586v-1.98l-0.244-0.146c-0.487-0.29-0.985-0.516-1.49-0.711v-1.867
	l-0.338-0.115c-3.849-1.32-7.671,0.229-11.366,1.724c-4.524,1.828-8.797,3.558-13.1,0.415l-0.795-0.581v3.771h-9.708v19.523h10.853
	v2.452h-2.226v2h12.783v-2h-2.226v-2.452h10.853v-9.366c2.599-0.427,5.198-0.078,7.796,2.025
	C-131.584,128.574-131.584,124.538-131.584,120.503z M-158.708,118.575c4.485,2.728,8.946,0.922,13.27-0.827
	c3.568-1.444,6.947-2.812,10.329-1.813v0.812c-0.772-0.2-1.57-0.308-2.408-0.308c-2.8,0-5.594,1.131-8.295,2.224
	c-2.613,1.057-5.315,2.15-7.92,2.15c-1.264,0-2.42-0.249-3.533-0.761l-0.709-0.326l0,10.222c-0.247-0.141-0.491-0.295-0.732-0.463
	L-158.708,118.575z M-141.38,137.949h-26.036v-15.523h7.708l0,7.571l0.205,0.149c0.495,0.362,1.009,0.664,1.528,0.924v1.859
	l0.291,0.134c0.491,0.226,0.993,0.393,1.502,0.528c0,0.292,0,0.583,0,0.874c4.935,1.389,9.869-1.967,14.803-3.416V137.949z
	 M-143.884,130.008c-2.29,0.915-4.146-0.198-4.146-2.508c0-2.271,1.856-4.868,4.146-5.782c2.29-0.924,4.145,0.571,4.146,2.874
	C-139.739,126.869-141.594,129.086-143.884,130.008z M-133.375,119.329c-7.603-3.947-15.206,5.172-22.808,3.032
	c0,3.401,0,6.803,0,10.204c-0.268-0.08-0.532-0.174-0.793-0.283l0-11.029c1.029,0.377,2.096,0.561,3.242,0.561
	c2.8,0,5.594-1.131,8.295-2.224c2.613-1.057,5.315-2.15,7.92-2.15c1.491,0,2.849,0.351,4.143,1.07V119.329z M-143.564,123.94
	c0,0.474,0,0.947,0,1.424c0.071-0.024,0.143-0.049,0.213-0.073c0.715-0.228,1.196-0.26,1.447-0.13s0.376,0.476,0.376,1.034
	c0,0.602-0.136,1.064-0.409,1.394c-0.273,0.331-0.75,0.607-1.43,0.862c-0.066,0.025-0.131,0.053-0.197,0.078
	c0,0.213,0,0.425,0,0.638c-0.216,0.081-0.432,0.164-0.648,0.25c0-0.214,0-0.425,0-0.638c-0.061,0.022-0.122,0.046-0.182,0.068
	c-0.677,0.268-1.153,0.348-1.429,0.227c-0.276-0.12-0.412-0.468-0.412-1.042c0-0.065,0.001-0.132,0.003-0.197
	c0.32-0.128,0.64-0.259,0.96-0.388c0,0.033,0,0.066,0,0.101c0,0.349,0.057,0.552,0.169,0.607c0.111,0.058,0.362,0.008,0.749-0.145
	c0.048-0.018,0.095-0.035,0.143-0.054c0-0.514,0-1.027,0-1.54c-0.757,0.298-1.273,0.397-1.549,0.292
	c-0.277-0.106-0.417-0.46-0.417-1.063c0-0.581,0.141-1.038,0.418-1.363c0.277-0.326,0.794-0.646,1.548-0.943c0-0.185,0-0.37,0-0.554
	c0.216-0.085,0.431-0.169,0.647-0.25c0,0.185,0,0.368,0,0.553c0.719-0.271,1.211-0.333,1.478-0.216
	c0.265,0.119,0.396,0.462,0.397,1.021c0,0.043,0,0.088,0,0.13c-0.309,0.096-0.62,0.198-0.929,0.308
	c-0.001-0.035-0.003-0.068-0.004-0.102c0.001-0.422-0.263-0.543-0.79-0.346C-143.463,123.902-143.514,123.92-143.564,123.94z
	 M-144.213,124.187c-0.045,0.019-0.091,0.037-0.137,0.058c-0.57,0.226-0.854,0.568-0.854,1.018c0,0.472,0.282,0.593,0.849,0.368
	c0.005-0.003,0.053-0.018,0.143-0.049C-144.212,125.115-144.212,124.651-144.213,124.187z M-143.564,127.707
	c0.045-0.017,0.092-0.034,0.139-0.051c0.618-0.231,0.926-0.599,0.926-1.131c-0.001-0.289-0.069-0.456-0.206-0.499
	c-0.137-0.044-0.423,0.011-0.858,0.175C-143.564,126.702-143.564,127.205-143.564,127.707z"/>
</svg>
