<?xml version="1.0" encoding="utf-8"?>
<!-- Generator: Adobe Illustrator 16.0.0, SVG Export Plug-In . SVG Version: 6.00 Build 0)  -->
<!DOCTYPE svg PUBLIC "-//W3C//DTD SVG 1.1//EN" "http://www.w3.org/Graphics/SVG/1.1/DTD/svg11.dtd">
<svg version="1.1" id="Layer_1" xmlns="http://www.w3.org/2000/svg" xmlns:xlink="http://www.w3.org/1999/xlink" x="0px" y="0px"
	 width="50px" height="50px" viewBox="-105.5 104.5 50 50" enable-background="new -105.5 104.5 50 50" xml:space="preserve">
<path d="M-65.668,114.669l-12.389-2.617l-19.892,19.893l15.005,15.004l19.892-19.892L-65.668,114.669z M-71.47,120.471
	c-0.731-0.732-0.73-1.917,0-2.648c0.73-0.73,1.917-0.732,2.647,0c0.731,0.731,0.73,1.916,0,2.647
	C-69.553,121.2-70.738,121.202-71.47,120.471z M-75.524,134.207c-2.674,2.674-7.009,2.674-9.683,0
	c-2.673-2.674-2.673-7.01,0.001-9.683c2.673-2.674,7.008-2.674,9.682,0C-72.851,127.197-72.85,131.532-75.524,134.207z
	 M-78.472,128.063l-1.318,1.317l0.19,0.206c0.625,0.698,0.957,1.26,0.994,1.687c0.039,0.424-0.202,0.896-0.719,1.413
	c-0.558,0.558-1.074,0.821-1.551,0.794c-0.477-0.028-1.031-0.356-1.661-0.987l-0.188-0.18l-0.59,0.59l-0.601-0.6l0.591-0.591
	l-0.165-0.172c-0.627-0.627-0.961-1.178-1.002-1.645c-0.041-0.472,0.206-0.972,0.738-1.505l0.184-0.175l0.89,0.89l-0.091,0.092
	c-0.325,0.324-0.483,0.585-0.473,0.783c0.008,0.198,0.192,0.477,0.553,0.835l0.128,0.135l1.428-1.428
	c-0.701-0.701-1.077-1.279-1.132-1.739c-0.052-0.46,0.198-0.969,0.755-1.524c0.538-0.538,1.037-0.779,1.494-0.719
	c0.457,0.057,1.033,0.436,1.731,1.135l0.513-0.514l0.601,0.601l-0.513,0.513c0.667,0.668,1.028,1.218,1.083,1.654
	c0.056,0.434-0.177,0.911-0.694,1.429l-0.122,0.121l-0.86-0.86l0.093-0.1c0.391-0.391,0.342-0.829-0.147-1.317L-78.472,128.063z
	 M-79.068,127.457l-0.132-0.125c-0.528-0.527-0.999-0.581-1.417-0.164c-0.438,0.437-0.394,0.917,0.132,1.443
	c0.005,0.005,0.047,0.05,0.125,0.139L-79.068,127.457z M-81.962,131.551l0.129,0.128c0.571,0.57,1.103,0.612,1.592,0.122
	c0.271-0.27,0.383-0.508,0.342-0.722c-0.041-0.213-0.264-0.521-0.667-0.923L-81.962,131.551z"/>
</svg>
