<?xml version="1.0" encoding="utf-8"?>
<!-- Generator: Adobe Illustrator 16.0.0, SVG Export Plug-In . SVG Version: 6.00 Build 0)  -->
<!DOCTYPE svg PUBLIC "-//W3C//DTD SVG 1.1//EN" "http://www.w3.org/Graphics/SVG/1.1/DTD/svg11.dtd">
<svg version="1.1" id="Layer_1" xmlns="http://www.w3.org/2000/svg" xmlns:xlink="http://www.w3.org/1999/xlink" x="0px" y="0px"
	 width="50px" height="50px" viewBox="-35.5 104.5 50 50" enable-background="new -35.5 104.5 50 50" xml:space="preserve">
<path d="M-1.026,119.077v15.661h-2.494v13.859h-4.02v-9.701h-1.108v9.701h-4.02v-13.859h-2.494v-15.661h3.918l3.15,8.479l3.15-8.479
	H-1.026z M-8.094,110.984c-2.255,0-4.084,1.827-4.084,4.083s1.829,4.084,4.084,4.084s4.083-1.828,4.083-4.084
	S-5.839,110.984-8.094,110.984z M-16.807,112.066v1.686l0.254,0.01c0.847,0.048,1.418,0.194,1.714,0.442
	c0.297,0.249,0.445,0.704,0.445,1.366c0,0.712-0.162,1.213-0.484,1.5c-0.323,0.287-0.889,0.431-1.694,0.431l-0.234,0.005v0.754
	h-0.77v-0.754l-0.215-0.005c-0.803,0-1.367-0.139-1.693-0.412c-0.327-0.275-0.489-0.753-0.489-1.435l0.004-0.229h1.139v0.116
	c0,0.415,0.067,0.684,0.199,0.803c0.132,0.122,0.429,0.182,0.889,0.182l0.167,0.004v-1.826c-0.895,0-1.507-0.13-1.835-0.39
	s-0.492-0.745-0.492-1.458c0-0.689,0.165-1.162,0.494-1.416c0.33-0.255,0.94-0.383,1.833-0.383v-0.655h0.77v0.655
	c0.853,0,1.437,0.122,1.75,0.365c0.313,0.244,0.471,0.697,0.471,1.359v0.154h-1.101l-0.005-0.121c0-0.5-0.312-0.749-0.938-0.749
	H-16.807z M-17.576,112.061l-0.162,0.006c-0.675,0-1.013,0.267-1.013,0.8c0,0.56,0.336,0.839,1.008,0.839
	c0.006,0,0.063,0.003,0.167,0.01V112.061z M-16.807,116.53h0.164c0.73,0,1.097-0.313,1.097-0.941c0-0.343-0.08-0.569-0.244-0.679
	c-0.162-0.11-0.501-0.165-1.017-0.165V116.53z"/>
</svg>
