<?xml version="1.0" encoding="utf-8"?>
<!-- Generator: Adobe Illustrator 16.0.0, SVG Export Plug-In . SVG Version: 6.00 Build 0)  -->
<!DOCTYPE svg PUBLIC "-//W3C//DTD SVG 1.1//EN" "http://www.w3.org/Graphics/SVG/1.1/DTD/svg11.dtd">
<svg version="1.1" id="Layer_1" xmlns="http://www.w3.org/2000/svg" xmlns:xlink="http://www.w3.org/1999/xlink" x="0px" y="0px"
	 width="50px" height="50px" viewBox="34.5 104.5 50 50" enable-background="new 34.5 104.5 50 50" xml:space="preserve">
<path d="M60.683,123.412c0.14,0.094,0.208,0.285,0.208,0.577c0,0.533-0.311,0.799-0.932,0.799H59.82v-1.516
	C60.258,123.272,60.546,123.318,60.683,123.412z M58.169,121.677c0,0.476,0.285,0.713,0.855,0.713c0.005,0,0.054,0.002,0.143,0.008
	v-1.404l-0.139,0.005C58.456,120.998,58.169,121.225,58.169,121.677z M70.667,140.333h3.666v3H44.667v-3h3.666v-12.165h-5.656
	L59.5,117.167l16.823,11.001h-5.656V140.333z M58,128.168h-6.667v12.165H58V128.168z M60.019,125.612
	c0.685,0,1.165-0.122,1.438-0.366c0.274-0.243,0.412-0.669,0.412-1.273c0-0.562-0.126-0.948-0.378-1.159s-0.737-0.336-1.456-0.376
	l-0.215-0.008v-1.432h0.15c0.532,0,0.796,0.212,0.796,0.636l0.005,0.104h0.935v-0.132c0-0.562-0.134-0.947-0.4-1.154
	c-0.267-0.206-0.762-0.31-1.485-0.31v-0.557h-0.653v0.557c-0.758,0-1.276,0.108-1.557,0.325c-0.279,0.215-0.42,0.616-0.42,1.202
	c0,0.604,0.14,1.018,0.419,1.238c0.277,0.22,0.798,0.33,1.558,0.33v1.551l-0.143-0.004c-0.391,0-0.642-0.051-0.755-0.153
	c-0.111-0.102-0.168-0.329-0.168-0.682v-0.1h-0.967l-0.004,0.195c0,0.578,0.138,0.983,0.416,1.217
	c0.276,0.233,0.756,0.351,1.438,0.351l0.183,0.004v0.641h0.653v-0.641L60.019,125.612z M67.667,128.168H61v12.165h6.667V128.168z"/>
</svg>
