<?xml version="1.0" encoding="utf-8"?>
<!-- Generator: Adobe Illustrator 16.0.0, SVG Export Plug-In . SVG Version: 6.00 Build 0)  -->
<!DOCTYPE svg PUBLIC "-//W3C//DTD SVG 1.1//EN" "http://www.w3.org/Graphics/SVG/1.1/DTD/svg11.dtd">
<svg version="1.1" id="Layer_1" xmlns="http://www.w3.org/2000/svg" xmlns:xlink="http://www.w3.org/1999/xlink" x="0px" y="0px"
	 width="50px" height="50px" viewBox="104.5 104.5 50 50" enable-background="new 104.5 104.5 50 50" xml:space="preserve">
<path d="M115.688,118.333v22.334h30.582v-22.334H115.688z M144.27,138.667h-26.582v-18.334h26.582V138.667z M142.84,124.669h-3.101
	v-3.101h3.101V124.669z M138.189,124.669h-3.102v-3.101h3.102V124.669z M119.339,137.417l-0.558-0.83
	c0.219-0.152,3.14-2.511,5.05-4.059l0.387-0.313l1.704,2.091l1.18-1.917l2.596,0.973l2.341-5.809l3.987,3.738l0.973-2.57l5.68-2.754
	l0.436,0.9l-5.32,2.58l-1.361,3.596l-4.013-3.762l-2.159,5.359l-2.738-1.027l-1.486,2.415l-1.962-2.409
	C122.784,134.663,119.566,137.265,119.339,137.417z"/>
</svg>
