<?xml version="1.0" encoding="utf-8"?>
<!-- Generator: Adobe Illustrator 16.0.0, SVG Export Plug-In . SVG Version: 6.00 Build 0)  -->
<!DOCTYPE svg PUBLIC "-//W3C//DTD SVG 1.1//EN" "http://www.w3.org/Graphics/SVG/1.1/DTD/svg11.dtd">
<svg version="1.1" id="Layer_1" xmlns="http://www.w3.org/2000/svg" xmlns:xlink="http://www.w3.org/1999/xlink" x="0px" y="0px"
	 width="50px" height="50px" viewBox="174.5 104.5 50 50" enable-background="new 174.5 104.5 50 50" xml:space="preserve">
<path d="M187.098,113.25v32.5h24.805v-32.5H187.098z M190.049,116.322h18.902v5.166h-18.902V116.322z M194.986,143.268h-4.965
	v-4.966h4.965V143.268z M194.986,136.158h-4.965v-4.966h4.965V136.158z M194.986,129.049h-4.965v-4.966h4.965V129.049z
	 M201.982,143.268h-4.965v-4.966h4.965V143.268z M201.982,136.158h-4.965v-4.966h4.965V136.158z M201.982,129.049h-4.965v-4.966
	h4.965V129.049z M208.979,143.268h-4.965v-4.966h4.965V143.268z M208.979,136.158h-4.965v-4.966h4.965V136.158z M208.979,129.049
	h-4.965v-4.966h4.965V129.049z"/>
</svg>
