<?xml version="1.0" encoding="utf-8"?>
<!-- Generator: Adobe Illustrator 16.0.0, SVG Export Plug-In . SVG Version: 6.00 Build 0)  -->
<!DOCTYPE svg PUBLIC "-//W3C//DTD SVG 1.1//EN" "http://www.w3.org/Graphics/SVG/1.1/DTD/svg11.dtd">
<svg version="1.1" id="Layer_1" xmlns="http://www.w3.org/2000/svg" xmlns:xlink="http://www.w3.org/1999/xlink" x="0px" y="0px"
	 width="50px" height="50px" viewBox="244.5 104.5 50 50" enable-background="new 244.5 104.5 50 50" xml:space="preserve">
<path d="M276.688,134.509c0,1.565-0.907,2.342-2.727,2.345l-0.41-0.003l0.003-4.434c1.282,0,2.123,0.134,2.527,0.406
	C276.487,133.096,276.688,133.657,276.688,134.509z M271.238,125.753c-1.68,0-2.518,0.663-2.518,1.992
	c0,1.39,0.836,2.086,2.504,2.086c0.016-0.003,0.156,0.007,0.42,0.02l-0.002-4.111L271.238,125.753z M286.34,131.056
	c0,7.57-6.159,13.729-13.729,13.729c-4.237,0-8.031-1.932-10.552-4.958c-5.096-1.933-8.733-6.85-8.733-12.613
	c0-7.442,6.056-13.497,13.499-13.497c3.843,0,7.306,1.621,9.766,4.205C282.227,119.631,286.34,124.87,286.34,131.056z
	 M272.61,117.328c0.021,0,0.043,0.003,0.064,0.003c-1.715-1.019-3.709-1.615-5.845-1.615c-6.347,0-11.505,5.157-11.505,11.497
	c0,3.774,1.836,7.119,4.653,9.217c-0.705-1.651-1.098-3.468-1.098-5.374C258.881,123.486,265.04,117.328,272.61,117.328z
	 M279.555,134.46c0-1.641-0.371-2.771-1.105-3.389c-0.74-0.619-2.16-0.989-4.266-1.101l-0.629-0.024v-4.195l0.444,0.005
	c1.552,0,2.329,0.619,2.327,1.862l0.013,0.301h2.737v-0.381c0-1.647-0.389-2.775-1.169-3.38c-0.782-0.607-2.231-0.908-4.355-0.908
	v-1.633h-1.907v1.633c-2.221,0-3.741,0.316-4.561,0.948c-0.817,0.633-1.227,1.809-1.227,3.522c0,1.771,0.407,2.979,1.221,3.624
	c0.817,0.644,2.338,0.97,4.566,0.97v4.536l-0.42-0.007c-1.139,0-1.88-0.151-2.205-0.452c-0.33-0.302-0.496-0.964-0.496-1.994v-0.294
	l-2.83,0.003l-0.012,0.571c0,1.692,0.405,2.879,1.217,3.559c0.813,0.688,2.217,1.029,4.21,1.029l0.536,0.01v1.875h1.91v-1.877
	l0.582-0.008c2.004,0,3.408-0.357,4.212-1.073C279.152,137.48,279.555,136.235,279.555,134.46z"/>
</svg>
