<?xml version="1.0" encoding="utf-8"?>
<!-- Generator: Adobe Illustrator 16.0.0, SVG Export Plug-In . SVG Version: 6.00 Build 0)  -->
<!DOCTYPE svg PUBLIC "-//W3C//DTD SVG 1.1//EN" "http://www.w3.org/Graphics/SVG/1.1/DTD/svg11.dtd">
<svg version="1.1" id="Layer_1" xmlns="http://www.w3.org/2000/svg" xmlns:xlink="http://www.w3.org/1999/xlink" x="0px" y="0px"
	 width="50px" height="50px" viewBox="314.5 104.5 50 50" enable-background="new 314.5 104.5 50 50" xml:space="preserve">
<path d="M353.625,114.375h-28.25v28.25h3.938v2h4v-2h12.375v2h4v-2h3.938V114.375z M351.625,140.625h-24.25v-24.25h24.25V140.625z
	 M350.875,117.125h-22.75v22.75h22.75V117.125z M349.875,138.875h-20.75v-20.75h20.75V138.875z M339.5,134.995
	c3.581,0,6.494-2.914,6.494-6.495s-2.913-6.495-6.494-6.495s-6.494,2.914-6.494,6.495S335.919,134.995,339.5,134.995z
	 M339.5,123.005c3.029,0,5.494,2.465,5.494,5.495s-2.465,5.495-5.494,5.495s-5.494-2.465-5.494-5.495S336.471,123.005,339.5,123.005
	z M336.993,129h-1.868v-1h1.868c0.066-0.335,0.197-0.646,0.381-0.919l-1.321-1.321l0.707-0.707l1.321,1.321
	c0.273-0.184,0.584-0.314,0.919-0.381v-1.868h1v1.868c0.335,0.066,0.646,0.197,0.919,0.381l1.321-1.321l0.707,0.707l-1.321,1.321
	c0.184,0.273,0.314,0.584,0.381,0.919h1.868v1h-1.868c-0.066,0.335-0.197,0.646-0.381,0.919l1.321,1.321l-0.707,0.707l-1.321-1.321
	c-0.273,0.184-0.584,0.314-0.919,0.381v1.868h-1v-1.868c-0.335-0.066-0.646-0.197-0.919-0.381l-1.321,1.321l-0.707-0.707
	l1.321-1.321C337.19,129.646,337.06,129.335,336.993,129z"/>
</svg>
