<?xml version="1.0" encoding="utf-8"?>
<!-- Generator: Adobe Illustrator 16.0.0, SVG Export Plug-In . SVG Version: 6.00 Build 0)  -->
<!DOCTYPE svg PUBLIC "-//W3C//DTD SVG 1.1//EN" "http://www.w3.org/Graphics/SVG/1.1/DTD/svg11.dtd">
<svg version="1.1" id="Layer_1" xmlns="http://www.w3.org/2000/svg" xmlns:xlink="http://www.w3.org/1999/xlink" x="0px" y="0px"
	 width="50px" height="50px" viewBox="-315.5 174.5 50 50" enable-background="new -315.5 174.5 50 50" xml:space="preserve">
<path d="M-269.061,190.073c-0.9,2.695-7.74,2.791-7.74,2.791c0.063,2.38-1.352,3.939-2.19,4.651c0-0.273,0-0.548,0-0.822
	c-0.178-0.153-0.355-0.292-0.533-0.424v-1.803l-0.231-0.147c-0.378-0.241-0.765-0.432-1.157-0.598v-1.599l-0.328-0.12
	c-3.124-1.146-6.207,0.188-9.187,1.478c-3.585,1.553-6.974,3.02-10.363,0.369l-0.808-0.632v4.62
	c-0.633-0.449-2.677-2.123-2.601-4.974c0,0-6.839-0.096-7.74-2.791c0,0-1.08,3.177,2.43,4.331c0,0-0.27,0.963-1.439,0.193
	c0,0,0,2.599,4.5,2.405c0,0-0.09,1.348-1.439,1.155c0,0,2.489,2.83,6.29,1.625v5.063l0.192,0.149
	c0.39,0.305,0.791,0.558,1.194,0.776v1.596l0.279,0.137c0.41,0.202,0.83,0.351,1.256,0.47c0,0.224,0,0.446,0,0.67
	c6.563,1.976,13.125-7.27,19.687-1.59c0-2.382,0-4.765,0-7.147c3.57,0.889,5.88-1.749,5.88-1.749
	c-1.35,0.192-1.439-1.155-1.439-1.155c4.5,0.193,4.5-2.405,4.5-2.405c-1.169,0.77-1.439-0.193-1.439-0.193
	C-267.981,193.25-269.061,190.073-269.061,190.073z M-300.212,195.896l0,8.719c-0.129-0.083-0.258-0.166-0.386-0.26l0-9.152
	c3.584,2.22,7.13,0.684,10.568-0.804c2.813-1.217,5.477-2.369,8.118-1.566v0.552c-0.588-0.151-1.193-0.239-1.828-0.239
	c-2.267,0-4.514,0.973-6.687,1.913c-2.08,0.899-4.23,1.83-6.29,1.83c-0.992,0-1.899-0.208-2.773-0.639L-300.212,195.896z
	 M-288.834,204.829c-1.833,0.783-3.317-0.17-3.318-2.146c0.001-1.942,1.486-4.166,3.318-4.949c1.832-0.79,3.317,0.49,3.318,2.46
	C-285.517,202.143-287.001,204.04-288.834,204.829z M-280.524,195.636c-6.051-3.238-12.103,4.47-18.154,2.648
	c0,2.885,0,5.77,0.001,8.654c-0.18-0.06-0.359-0.125-0.535-0.201l0-9.281c0.792,0.29,1.615,0.432,2.494,0.432
	c2.267,0,4.514-0.972,6.687-1.913c2.08-0.899,4.23-1.83,6.29-1.83c1.156,0,2.211,0.287,3.216,0.877V195.636z M-288.578,199.636
	c0,0.405,0,0.812,0,1.219c0.057-0.021,0.113-0.042,0.17-0.063c0.573-0.194,0.958-0.223,1.159-0.111
	c0.2,0.111,0.301,0.407,0.301,0.885c0,0.516-0.109,0.911-0.328,1.193c-0.218,0.283-0.599,0.521-1.144,0.738
	c-0.052,0.021-0.105,0.044-0.157,0.066c0,0.182,0,0.363,0,0.546c-0.173,0.069-0.347,0.141-0.519,0.214c0-0.183,0-0.364,0-0.546
	c-0.049,0.02-0.098,0.039-0.146,0.059c-0.542,0.229-0.923,0.298-1.144,0.194c-0.221-0.104-0.33-0.401-0.33-0.893
	c0.001-0.056,0.001-0.112,0.002-0.168c0.256-0.109,0.513-0.222,0.769-0.332c0,0.028,0,0.057,0,0.086
	c0,0.299,0.046,0.472,0.135,0.521c0.089,0.049,0.29,0.007,0.6-0.125c0.038-0.015,0.076-0.03,0.114-0.045c0-0.44,0-0.88,0-1.319
	c-0.606,0.256-1.019,0.342-1.24,0.251c-0.222-0.092-0.333-0.395-0.333-0.909c0-0.498,0.112-0.889,0.334-1.167
	c0.222-0.279,0.635-0.554,1.239-0.808c0-0.158,0-0.316,0-0.474c0.172-0.073,0.345-0.145,0.518-0.214c0,0.157,0,0.315,0,0.473
	c0.576-0.232,0.97-0.286,1.182-0.185s0.317,0.396,0.318,0.873c0,0.038,0,0.075,0,0.111c-0.248,0.082-0.497,0.17-0.744,0.263
	c-0.001-0.028-0.002-0.058-0.003-0.086c0-0.361-0.21-0.465-0.632-0.297C-288.498,199.604-288.538,199.619-288.578,199.636z
	 M-289.098,199.846c-0.037,0.017-0.073,0.033-0.11,0.05c-0.456,0.194-0.684,0.487-0.683,0.872c0,0.403,0.226,0.507,0.68,0.315
	c0.004-0.003,0.042-0.017,0.114-0.043C-289.098,200.642-289.098,200.244-289.098,199.846z M-288.579,202.86
	c0.037-0.015,0.074-0.029,0.111-0.044c0.494-0.198,0.741-0.513,0.741-0.968c0-0.247-0.056-0.39-0.165-0.428
	c-0.11-0.037-0.338,0.01-0.686,0.15C-288.579,202-288.579,202.431-288.579,202.86z"/>
</svg>
