<?xml version="1.0" encoding="utf-8"?>
<!-- Generator: Adobe Illustrator 16.0.0, SVG Export Plug-In . SVG Version: 6.00 Build 0)  -->
<!DOCTYPE svg PUBLIC "-//W3C//DTD SVG 1.1//EN" "http://www.w3.org/Graphics/SVG/1.1/DTD/svg11.dtd">
<svg version="1.1" id="Layer_1" xmlns="http://www.w3.org/2000/svg" xmlns:xlink="http://www.w3.org/1999/xlink" x="0px" y="0px"
	 width="50px" height="50px" viewBox="-245.5 174.5 50 50" enable-background="new -245.5 174.5 50 50" xml:space="preserve">
<path d="M-210.038,216.125v-20.214c1.18-0.524,2.004-1.702,2.004-3.076v-8.317h-2.004v-3.643h-20.924v3.643h-2.004v8.317
	c0,1.374,0.825,2.552,2.004,3.076v20.214h-3.163v2h27.25v-2H-210.038z M-228.962,196.137c1.062-0.205,1.943-0.906,2.397-1.856
	c0.542,1.135,1.69,1.925,3.033,1.925c1.341,0,2.49-0.79,3.032-1.925c0.542,1.135,1.691,1.925,3.032,1.925
	c1.342,0,2.49-0.79,3.033-1.925c0.454,0.95,1.335,1.651,2.397,1.856v18.504h-16.924V196.137z M-228.962,182.875h16.924v1.643h-2.061
	h-0.673h-5.391h-0.674h-5.391h-0.673h-2.061V182.875z M-221.75,198.875h8.25v8.25h-8.25V198.875z M-227.5,200.625h1.311v1.311
	h-1.311V200.625z M-225.78,200.625h1.311v1.311h-1.311V200.625z M-224.061,200.625h1.311v1.311h-1.311V200.625z M-227.5,202.345
	h1.311v1.311h-1.311V202.345z M-225.78,202.345h1.311v1.311h-1.311V202.345z M-224.061,202.345h1.311v1.311h-1.311V202.345z
	 M-227.5,204.064h1.311v1.311h-1.311V204.064z M-225.78,204.064h1.311v1.311h-1.311V204.064z M-224.061,204.064h1.311v1.311h-1.311
	V204.064z"/>
</svg>
