<?xml version="1.0" encoding="utf-8"?>
<!-- Generator: Adobe Illustrator 16.0.0, SVG Export Plug-In . SVG Version: 6.00 Build 0)  -->
<!DOCTYPE svg PUBLIC "-//W3C//DTD SVG 1.1//EN" "http://www.w3.org/Graphics/SVG/1.1/DTD/svg11.dtd">
<svg version="1.1" id="Layer_1" xmlns="http://www.w3.org/2000/svg" xmlns:xlink="http://www.w3.org/1999/xlink" x="0px" y="0px"
	 width="50px" height="50px" viewBox="-175.5 174.5 50 50" enable-background="new -175.5 174.5 50 50" xml:space="preserve">
<path d="M-143.007,190.999l-2.84,4.819h2.241v2.381h-3.588l-1.245,2.065h4.833v2.381h-5.418v5.355h-3.228v-5.355h-5.155v-2.381
	h4.609l-1.197-2.065h-3.412v-2.381h2.13l-2.717-4.819h3.662l3.675,7.213h0.1l3.774-7.213H-143.007z M-132.751,199.719
	c-0.119,9.667-8.08,17.531-17.745,17.531l-0.222-0.001c-4.741-0.059-9.175-1.96-12.486-5.354s-5.103-7.873-5.044-12.614
	c0.119-9.667,8.08-17.531,17.745-17.531l0.222,0.001c4.741,0.059,9.175,1.96,12.486,5.354S-132.693,194.978-132.751,199.719z
	 M-161.427,210.821c1.334,1.289,2.854,2.321,4.506,3.06l0.47-1.154c-1.521-0.688-2.897-1.634-4.085-2.775L-161.427,210.821z
	 M-155.992,214.25c1.523,0.566,3.135,0.896,4.798,0.969l0.015-1.24c-1.522-0.071-2.979-0.376-4.343-0.881L-155.992,214.25z
	 M-150.193,215.234c1.877-0.036,3.674-0.408,5.341-1.056l-0.48-1.142c-1.514,0.583-3.144,0.92-4.845,0.957L-150.193,215.234z
	 M-143.933,213.785c1.494-0.692,2.86-1.611,4.061-2.715l-0.864-0.885c-1.089,0.996-2.326,1.827-3.677,2.459L-143.933,213.785z
	 M-136.99,199.667c0.092-7.449-5.894-13.584-13.344-13.676l-0.169-0.001c-7.357,0-13.417,5.985-13.507,13.343
	c-0.092,7.449,5.894,13.585,13.344,13.677l0.169,0.001C-143.14,213.011-137.081,207.024-136.99,199.667z M-164.083,194.461
	l-1.146-0.468c-0.566,1.499-0.907,3.103-0.986,4.775l1.239,0.015C-164.901,197.271-164.592,195.819-164.083,194.461z
	 M-166.232,199.769c0.03,1.852,0.374,3.651,1.016,5.339l1.153-0.484c-0.573-1.512-0.896-3.14-0.93-4.84L-166.232,199.769z
	 M-139.613,188.142c-1.332-1.278-2.846-2.303-4.492-3.034l-0.471,1.154c1.515,0.68,2.885,1.619,4.071,2.75L-139.613,188.142z
	 M-145.035,184.74c-1.515-0.561-3.118-0.887-4.772-0.959l-0.015,1.241c1.512,0.071,2.96,0.372,4.317,0.871L-145.035,184.74z
	 M-150.807,183.766c-1.866,0.036-3.653,0.404-5.312,1.045l0.481,1.143c1.505-0.576,3.125-0.909,4.816-0.947L-150.807,183.766z
	 M-157.04,185.201c-1.488,0.687-2.85,1.598-4.048,2.692l0.864,0.885c1.087-0.986,2.319-1.81,3.664-2.435L-157.04,185.201z
	 M-136.892,204.473l1.146,0.468c0.56-1.504,0.896-3.109,0.965-4.785l-1.239-0.015C-136.086,201.656-136.389,203.11-136.892,204.473z
	 M-134.771,199.155c-0.039-1.849-0.386-3.646-1.036-5.33l-1.154,0.485c0.58,1.507,0.909,3.133,0.951,4.83L-134.771,199.155z
	 M-138.914,188.855l-0.892,0.87c0.993,1.085,1.819,2.319,2.448,3.667l1.15-0.484C-136.885,191.44-137.791,190.075-138.914,188.855z
	 M-164.855,193.065l1.148,0.469c0.688-1.51,1.628-2.878,2.765-4.061l-0.865-0.886C-163.063,189.889-164.101,191.398-164.855,193.065
	z M-162.123,210.104l0.891-0.869c-0.992-1.094-1.816-2.335-2.441-3.69l-1.15,0.483
	C-164.148,207.503-163.244,208.876-162.123,210.104z M-136.113,205.87l-1.147-0.468c-0.683,1.518-1.624,2.894-2.759,4.084
	l0.864,0.886C-137.9,209.063-136.862,207.546-136.113,205.87z"/>
</svg>
