<?xml version="1.0" encoding="utf-8"?>
<!-- Generator: Adobe Illustrator 16.0.0, SVG Export Plug-In . SVG Version: 6.00 Build 0)  -->
<!DOCTYPE svg PUBLIC "-//W3C//DTD SVG 1.1//EN" "http://www.w3.org/Graphics/SVG/1.1/DTD/svg11.dtd">
<svg version="1.1" id="Layer_1" xmlns="http://www.w3.org/2000/svg" xmlns:xlink="http://www.w3.org/1999/xlink" x="0px" y="0px"
	 width="50px" height="50px" viewBox="-105.5 174.5 50 50" enable-background="new -105.5 174.5 50 50" xml:space="preserve">
<path d="M-83.688,205.784l10.696-0.064v2.815h-14.521v-2.751c1.135-0.139,1.703-1.116,1.703-2.933v-1.152h-2.199v-2.501h2.199
	v-2.619v-0.758l0.184-2.108c0.418-2.165,2.456-3.248,6.113-3.248c2.506,0,4.194,0.338,5.067,1.015
	c0.874,0.677,1.31,1.994,1.31,3.948l-0.013,0.877h-3.391l-0.013-0.379c0-1.073-0.167-1.77-0.504-2.081
	c-0.336-0.315-1.081-0.473-2.232-0.473c-1.31,0-2.159,0.182-2.547,0.543c-0.388,0.364-0.583,1.146-0.583,2.353v2.931h4.846v2.501
	h-4.846v0.59l0.013,0.944l-0.184,1.269c-0.148,0.429-0.515,0.824-1.099,1.191V205.784z M-62.751,199.719
	c-0.119,9.667-8.08,17.531-17.745,17.531l-0.222-0.001c-4.741-0.059-9.175-1.96-12.486-5.354s-5.103-7.873-5.044-12.614
	c0.119-9.667,8.08-17.531,17.745-17.531l0.222,0.001c4.741,0.059,9.175,1.96,12.486,5.354S-62.693,194.978-62.751,199.719z
	 M-91.427,210.821c1.334,1.289,2.854,2.321,4.506,3.06l0.47-1.154c-1.521-0.688-2.897-1.634-4.085-2.775L-91.427,210.821z
	 M-85.992,214.25c1.523,0.566,3.135,0.896,4.798,0.969l0.015-1.24c-1.522-0.071-2.979-0.376-4.343-0.881L-85.992,214.25z
	 M-80.193,215.234c1.877-0.036,3.674-0.408,5.341-1.056l-0.48-1.142c-1.514,0.583-3.144,0.92-4.845,0.957L-80.193,215.234z
	 M-73.933,213.785c1.494-0.692,2.86-1.611,4.061-2.715l-0.864-0.885c-1.089,0.996-2.326,1.827-3.677,2.459L-73.933,213.785z
	 M-66.99,199.667c0.092-7.449-5.894-13.584-13.344-13.676l-0.169-0.001c-7.357,0-13.417,5.985-13.507,13.343
	c-0.092,7.449,5.894,13.585,13.344,13.677l0.169,0.001C-73.14,213.011-67.081,207.024-66.99,199.667z M-94.083,194.461l-1.146-0.468
	c-0.566,1.499-0.907,3.103-0.986,4.775l1.239,0.015C-94.901,197.271-94.592,195.819-94.083,194.461z M-96.232,199.769
	c0.03,1.852,0.374,3.651,1.016,5.339l1.153-0.484c-0.573-1.512-0.896-3.14-0.93-4.84L-96.232,199.769z M-69.613,188.142
	c-1.332-1.278-2.846-2.303-4.492-3.034l-0.471,1.154c1.515,0.68,2.885,1.619,4.071,2.75L-69.613,188.142z M-75.035,184.74
	c-1.515-0.561-3.118-0.887-4.772-0.959l-0.015,1.241c1.512,0.071,2.96,0.372,4.317,0.871L-75.035,184.74z M-80.807,183.766
	c-1.866,0.036-3.653,0.404-5.312,1.045l0.481,1.143c1.505-0.576,3.125-0.909,4.816-0.947L-80.807,183.766z M-87.04,185.201
	c-1.488,0.687-2.85,1.598-4.048,2.692l0.864,0.885c1.087-0.986,2.319-1.81,3.664-2.435L-87.04,185.201z M-66.892,204.473
	l1.146,0.468c0.56-1.504,0.896-3.109,0.965-4.785l-1.239-0.015C-66.086,201.656-66.389,203.11-66.892,204.473z M-64.771,199.155
	c-0.039-1.849-0.386-3.646-1.036-5.33l-1.154,0.485c0.58,1.507,0.909,3.133,0.951,4.83L-64.771,199.155z M-68.914,188.855
	l-0.892,0.87c0.993,1.085,1.819,2.319,2.448,3.667l1.15-0.484C-66.885,191.44-67.791,190.075-68.914,188.855z M-94.855,193.065
	l1.148,0.469c0.688-1.51,1.628-2.878,2.765-4.061l-0.865-0.886C-93.063,189.889-94.101,191.398-94.855,193.065z M-92.123,210.104
	l0.891-0.869c-0.992-1.094-1.816-2.335-2.441-3.69l-1.15,0.483C-94.148,207.503-93.244,208.876-92.123,210.104z M-66.113,205.87
	l-1.147-0.468c-0.683,1.518-1.624,2.894-2.759,4.084l0.864,0.886C-67.9,209.063-66.862,207.546-66.113,205.87z"/>
</svg>
