<?xml version="1.0" encoding="utf-8"?>
<!-- Generator: Adobe Illustrator 16.0.0, SVG Export Plug-In . SVG Version: 6.00 Build 0)  -->
<!DOCTYPE svg PUBLIC "-//W3C//DTD SVG 1.1//EN" "http://www.w3.org/Graphics/SVG/1.1/DTD/svg11.dtd">
<svg version="1.1" id="Layer_1" xmlns="http://www.w3.org/2000/svg" xmlns:xlink="http://www.w3.org/1999/xlink" x="0px" y="0px"
	 width="50px" height="50px" viewBox="-35.5 174.5 50 50" enable-background="new -35.5 174.5 50 50" xml:space="preserve">
<path d="M-5.57,202.173h3.556v0.646c0,2.733-0.616,4.498-1.846,5.292c-0.913,0.591-2.869,0.889-5.868,0.889
	c-3.5,0-5.676-0.604-6.523-1.806c-0.493-0.701-0.843-2.114-1.053-4.239h-1.683l0.34-2.299h1.178
	c-0.028-0.684-0.045-1.448-0.055-2.296h-1.463l0.34-2.298h1.178c0.165-2.272,0.719-3.808,1.669-4.609
	c1.139-0.965,3.45-1.451,6.933-1.451c2.672,0,4.449,0.398,5.334,1.191c0.812,0.729,1.257,2.315,1.34,4.759l0.013,0.424h-3.554
	v-0.479c0-1.314-0.321-2.147-0.958-2.503c-0.429-0.236-1.391-0.355-2.886-0.355c-2.006,0-3.232,0.269-3.679,0.808
	c-0.282,0.336-0.474,1.076-0.574,2.216h6.441l-0.34,2.298h-6.196v0.272c0,0.685,0.007,1.358,0.027,2.023h5.825l-0.341,2.299h-5.361
	c0.099,1.012,0.251,1.686,0.452,2.023c0.392,0.657,1.581,0.984,3.57,0.984c1.769,0,2.912-0.183,3.433-0.546
	c0.555-0.393,0.814-1.195,0.777-2.408L-5.57,202.173z M7.249,199.719c-0.119,9.667-8.08,17.531-17.745,17.531l-0.222-0.001
	c-4.741-0.059-9.175-1.96-12.486-5.354s-5.103-7.873-5.044-12.614c0.119-9.667,8.08-17.531,17.745-17.531l0.222,0.001
	c4.741,0.059,9.175,1.96,12.486,5.354S7.307,194.978,7.249,199.719z M-21.427,210.821c1.334,1.289,2.854,2.321,4.506,3.06
	l0.47-1.154c-1.521-0.688-2.897-1.634-4.085-2.775L-21.427,210.821z M-15.992,214.25c1.523,0.566,3.135,0.896,4.798,0.969
	l0.015-1.24c-1.522-0.071-2.979-0.376-4.343-0.881L-15.992,214.25z M-10.193,215.234c1.877-0.036,3.674-0.408,5.341-1.056
	l-0.48-1.142c-1.514,0.583-3.144,0.92-4.845,0.957L-10.193,215.234z M-3.933,213.785c1.494-0.692,2.86-1.611,4.061-2.715
	l-0.864-0.885c-1.089,0.996-2.326,1.827-3.677,2.459L-3.933,213.785z M3.01,199.667c0.092-7.449-5.894-13.584-13.344-13.676
	l-0.169-0.001c-7.357,0-13.417,5.985-13.507,13.343c-0.092,7.449,5.894,13.585,13.344,13.677l0.169,0.001
	C-3.14,213.011,2.919,207.024,3.01,199.667z M-24.083,194.461l-1.146-0.468c-0.566,1.499-0.907,3.103-0.986,4.775l1.239,0.015
	C-24.901,197.271-24.592,195.819-24.083,194.461z M-26.232,199.769c0.03,1.852,0.374,3.651,1.016,5.339l1.153-0.484
	c-0.573-1.512-0.896-3.14-0.93-4.84L-26.232,199.769z M0.387,188.142c-1.332-1.278-2.846-2.303-4.492-3.034l-0.471,1.154
	c1.515,0.68,2.885,1.619,4.071,2.75L0.387,188.142z M-5.035,184.74c-1.515-0.561-3.118-0.887-4.772-0.959l-0.015,1.241
	c1.512,0.071,2.96,0.372,4.317,0.871L-5.035,184.74z M-10.807,183.766c-1.866,0.036-3.653,0.404-5.312,1.045l0.481,1.143
	c1.505-0.576,3.125-0.909,4.816-0.947L-10.807,183.766z M-17.04,185.201c-1.488,0.687-2.85,1.598-4.048,2.692l0.864,0.885
	c1.087-0.986,2.319-1.81,3.664-2.435L-17.04,185.201z M3.108,204.473l1.146,0.468c0.56-1.504,0.896-3.109,0.965-4.785l-1.239-0.015
	C3.914,201.656,3.611,203.11,3.108,204.473z M5.229,199.155c-0.039-1.849-0.386-3.646-1.036-5.33l-1.154,0.485
	c0.58,1.507,0.909,3.133,0.951,4.83L5.229,199.155z M1.086,188.855l-0.892,0.87c0.993,1.085,1.819,2.319,2.448,3.667l1.15-0.484
	C3.115,191.44,2.209,190.075,1.086,188.855z M-24.855,193.065l1.148,0.469c0.688-1.51,1.628-2.878,2.765-4.061l-0.865-0.886
	C-23.063,189.889-24.101,191.398-24.855,193.065z M-22.123,210.104l0.891-0.869c-0.992-1.094-1.816-2.335-2.441-3.69l-1.15,0.483
	C-24.148,207.503-23.244,208.876-22.123,210.104z M3.887,205.87l-1.147-0.468c-0.683,1.518-1.624,2.894-2.759,4.084l0.864,0.886
	C2.1,209.063,3.138,207.546,3.887,205.87z"/>
</svg>
