<?xml version="1.0" encoding="utf-8"?>
<!-- Generator: Adobe Illustrator 16.0.0, SVG Export Plug-In . SVG Version: 6.00 Build 0)  -->
<!DOCTYPE svg PUBLIC "-//W3C//DTD SVG 1.1//EN" "http://www.w3.org/Graphics/SVG/1.1/DTD/svg11.dtd">
<svg version="1.1" id="Layer_1" xmlns="http://www.w3.org/2000/svg" xmlns:xlink="http://www.w3.org/1999/xlink" x="0px" y="0px"
	 width="50px" height="50px" viewBox="34.5 174.5 50 50" enable-background="new 34.5 174.5 50 50" xml:space="preserve">
<path d="M61.024,198.122l-0.612-0.022v-4.079h0.431c1.512,0,2.267,0.604,2.267,1.813l0.012,0.294h2.662v-0.373
	c0-1.602-0.379-2.697-1.138-3.287c-0.759-0.589-2.171-0.885-4.233-0.885v-1.585h-1.859v1.585c-2.159,0-3.639,0.309-4.436,0.926
	c-0.797,0.614-1.196,1.758-1.196,3.428c0,1.722,0.397,2.897,1.19,3.524s2.273,0.94,4.441,0.94v4.419l-0.407-0.01
	c-1.11,0-1.827-0.146-2.147-0.438c-0.32-0.29-0.482-0.938-0.482-1.941v-0.284h-2.754l-0.011,0.555c0,1.648,0.395,2.804,1.185,3.469
	c0.789,0.664,2.155,0.998,4.096,0.998l0.521,0.01v1.826h1.859v-1.826l0.566-0.01c1.949,0,3.315-0.349,4.098-1.043
	c0.781-0.694,1.173-1.905,1.173-3.627c0-1.603-0.358-2.703-1.076-3.304C64.454,198.593,63.072,198.236,61.024,198.122z
	 M58.553,198.009c-0.256-0.015-0.392-0.023-0.407-0.023c-1.624,0-2.437-0.676-2.437-2.028c0-1.291,0.815-1.937,2.448-1.937
	l0.396-0.012V198.009z M60.809,204.819h-0.396v-4.317c1.246,0,2.066,0.132,2.459,0.397c0.395,0.265,0.59,0.813,0.59,1.643
	C63.461,204.061,62.576,204.819,60.809,204.819z M72.205,187.104c-3.312-3.394-7.746-5.295-12.486-5.354l-0.222-0.001
	c-9.666,0-17.627,7.864-17.745,17.531c-0.059,4.741,1.732,9.221,5.043,12.614c3.312,3.394,7.746,5.295,12.486,5.354l0.222,0.001
	c9.666,0,17.627-7.864,17.745-17.531C77.307,194.978,75.516,190.498,72.205,187.104z M49.465,209.951
	c1.188,1.142,2.563,2.089,4.085,2.775l-0.47,1.154c-1.652-0.738-3.172-1.771-4.507-3.06L49.465,209.951z M54.479,213.097
	c1.363,0.506,2.821,0.811,4.343,0.882l-0.015,1.24c-1.663-0.072-3.275-0.402-4.798-0.969L54.479,213.097z M59.821,213.994
	c1.702-0.037,3.332-0.374,4.846-0.957l0.48,1.142c-1.667,0.647-3.464,1.02-5.341,1.056L59.821,213.994z M65.587,212.645
	c1.351-0.632,2.588-1.463,3.678-2.46l0.863,0.886c-1.2,1.104-2.566,2.022-4.061,2.715L65.587,212.645z M59.503,213.011l-0.169-0.001
	c-7.45-0.092-13.436-6.228-13.344-13.677c0.091-7.357,6.15-13.343,13.507-13.343l0.169,0.001c7.45,0.092,13.436,6.227,13.344,13.676
	C72.919,207.024,66.859,213.011,59.503,213.011z M45.024,198.783l-1.238-0.015c0.078-1.673,0.419-3.276,0.985-4.775l1.146,0.467
	C45.408,195.819,45.1,197.271,45.024,198.783z M45.008,199.783c0.033,1.7,0.356,3.328,0.93,4.84l-1.153,0.484
	c-0.643-1.688-0.985-3.487-1.016-5.339L45.008,199.783z M69.495,189.012c-1.187-1.131-2.556-2.07-4.07-2.75l0.471-1.154
	c1.646,0.731,3.159,1.756,4.491,3.034L69.495,189.012z M64.495,185.894c-1.356-0.499-2.805-0.8-4.317-0.871l0.016-1.241
	c1.654,0.072,3.257,0.398,4.772,0.959L64.495,185.894z M59.178,185.007c-1.69,0.037-3.311,0.37-4.816,0.946l-0.48-1.143
	c1.659-0.641,3.446-1.009,5.313-1.045L59.178,185.007z M53.441,186.344c-1.345,0.625-2.577,1.448-3.664,2.436l-0.865-0.886
	c1.198-1.095,2.561-2.006,4.049-2.692L53.441,186.344z M73.98,200.141l1.238,0.015c-0.069,1.676-0.405,3.281-0.965,4.785
	l-1.146-0.468C73.611,203.11,73.913,201.656,73.98,200.141z M73.989,199.141c-0.042-1.697-0.37-3.323-0.95-4.83l1.153-0.485
	c0.65,1.684,0.997,3.481,1.036,5.33L73.989,199.141z M73.793,192.909l-1.15,0.483c-0.629-1.348-1.455-2.582-2.447-3.667l0.892-0.87
	C72.209,190.076,73.114,191.441,73.793,192.909z M48.193,188.588l0.864,0.886c-1.136,1.183-2.076,2.551-2.765,4.061l-1.148-0.469
	C45.898,191.398,46.937,189.889,48.193,188.588z M45.178,206.027l1.149-0.483c0.625,1.355,1.449,2.597,2.441,3.69l-0.892,0.869
	C46.756,208.876,45.852,207.503,45.178,206.027z M70.844,210.372l-0.864-0.886c1.136-1.19,2.077-2.566,2.76-4.084l1.147,0.468
	C73.139,207.546,72.1,209.063,70.844,210.372z"/>
</svg>
