<?xml version="1.0" encoding="utf-8"?>
<!-- Generator: Adobe Illustrator 16.0.0, SVG Export Plug-In . SVG Version: 6.00 Build 0)  -->
<!DOCTYPE svg PUBLIC "-//W3C//DTD SVG 1.1//EN" "http://www.w3.org/Graphics/SVG/1.1/DTD/svg11.dtd">
<svg version="1.1" id="Layer_1" xmlns="http://www.w3.org/2000/svg" xmlns:xlink="http://www.w3.org/1999/xlink" x="0px" y="0px"
	 width="50px" height="50px" viewBox="104.5 174.5 50 50" enable-background="new 104.5 174.5 50 50" xml:space="preserve">
<path d="M135.442,202.252c0.119,0.199,0.18,0.666,0.18,1.402c0,0.711-0.066,1.17-0.199,1.378c-0.133,0.209-0.426,0.313-0.879,0.313
	h-1.348v-3.393h1.406C135.044,201.952,135.323,202.052,135.442,202.252z M125.636,201.923c-0.637,0-1.008,0.081-1.113,0.244
	c-0.107,0.163-0.162,0.728-0.162,1.695c0,0.715,0.063,1.146,0.189,1.292c0.125,0.147,0.494,0.22,1.107,0.22
	c0.586,0,0.939-0.082,1.057-0.247c0.115-0.164,0.174-0.662,0.174-1.496s-0.055-1.328-0.166-1.479
	C126.612,201.999,126.249,201.923,125.636,201.923z M142.706,183.181v29.483c0,1.214-0.987,2.201-2.201,2.201h-1.328v0.954
	c0,1.214-0.988,2.201-2.203,2.201h-18.477c-1.215,0-2.203-0.987-2.203-2.201v-29.483c0-1.214,0.988-2.201,2.203-2.201h1.328v-0.954
	c0-1.214,0.987-2.201,2.201-2.201h18.479C141.719,180.979,142.706,181.967,142.706,183.181z M122.974,204.479l-0.016-0.989h-2.193
	v0.697h1.252l-0.004,0.203c0,0.428-0.07,0.697-0.211,0.813c-0.139,0.113-0.467,0.171-0.984,0.171c-0.529,0-0.869-0.067-1.016-0.202
	c-0.145-0.136-0.219-0.451-0.219-0.945l-0.006-0.639l0.004-0.5c0-0.505,0.072-0.824,0.219-0.96c0.148-0.137,0.496-0.205,1.043-0.205
	c0.506,0,0.82,0.039,0.945,0.118s0.197,0.281,0.213,0.609h0.957c0-0.648-0.129-1.066-0.387-1.256
	c-0.258-0.188-0.83-0.282-1.717-0.282c-0.676,0-1.156,0.061-1.439,0.183c-0.281,0.121-0.492,0.358-0.631,0.708
	c-0.113,0.288-0.168,0.978-0.168,2.068c0,0.854,0.141,1.421,0.42,1.697s0.85,0.416,1.713,0.416c0.939,0,1.545-0.104,1.816-0.313
	C122.837,205.665,122.974,205.2,122.974,204.479z M122.446,195.996l2.734,2.97c0.1,0.106,0.232,0.161,0.367,0.161
	c0.121,0,0.244-0.044,0.34-0.132c0.203-0.188,0.215-0.504,0.029-0.707l-2.734-2.97c-0.188-0.202-0.504-0.214-0.707-0.029
	C122.272,195.477,122.259,195.793,122.446,195.996z M127.849,203.58c0-1.044-0.131-1.716-0.391-2.018
	c-0.26-0.3-0.844-0.45-1.75-0.45c-1.018,0-1.656,0.151-1.918,0.455c-0.26,0.306-0.389,1.052-0.389,2.239
	c0,0.999,0.133,1.645,0.398,1.938c0.264,0.293,0.85,0.439,1.756,0.439c1.006,0,1.639-0.147,1.9-0.445
	C127.718,205.442,127.849,204.724,127.849,203.58z M127.269,198.814c0.275,0,0.5-0.224,0.5-0.5v-4.688c0-0.276-0.225-0.5-0.5-0.5
	c-0.277,0-0.5,0.224-0.5,0.5v4.688C126.769,198.591,126.991,198.814,127.269,198.814z M131.772,205.294h-2.338v-4.139h-0.945v4.986
	h3.283V205.294z M132.06,195.289c-0.201-0.185-0.52-0.173-0.705,0.029l-2.734,2.97c-0.188,0.203-0.176,0.52,0.027,0.707
	c0.098,0.088,0.219,0.132,0.34,0.132c0.135,0,0.27-0.055,0.367-0.161l2.734-2.97C132.276,195.793,132.263,195.477,132.06,195.289z
	 M136.581,203.212c0-0.762-0.139-1.295-0.418-1.6c-0.277-0.306-0.766-0.457-1.463-0.457h-2.449v4.986h2.479
	c0.787,0,1.293-0.178,1.516-0.531C136.47,205.256,136.581,204.456,136.581,203.212z M140.706,183.181
	c0-0.111-0.09-0.201-0.201-0.201h-18.479c-0.111,0-0.201,0.09-0.201,0.201v0.954h15.148c1.215,0,2.203,0.987,2.203,2.201v26.529
	h1.328c0.113,0,0.201-0.088,0.201-0.201V183.181z"/>
</svg>
