<?xml version="1.0" encoding="utf-8"?>
<!-- Generator: Adobe Illustrator 16.0.0, SVG Export Plug-In . SVG Version: 6.00 Build 0)  -->
<!DOCTYPE svg PUBLIC "-//W3C//DTD SVG 1.1//EN" "http://www.w3.org/Graphics/SVG/1.1/DTD/svg11.dtd">
<svg version="1.1" id="Layer_1" xmlns="http://www.w3.org/2000/svg" xmlns:xlink="http://www.w3.org/1999/xlink" x="0px" y="0px"
	 width="50px" height="50px" viewBox="174.5 174.5 50 50" enable-background="new 174.5 174.5 50 50" xml:space="preserve">
<path d="M208.816,201.91l0.184-0.003v1.863c-0.121-0.007-0.182-0.01-0.189-0.01c-0.758,0-1.137-0.314-1.137-0.947
	C207.674,202.212,208.053,201.91,208.816,201.91z M209.867,204.934v2.014h0.184c0.826,0,1.238-0.354,1.238-1.061
	c0-0.39-0.092-0.644-0.273-0.768C210.83,204.996,210.449,204.934,209.867,204.934z M216.43,204.218c0,3.859-3.129,6.991-6.988,6.991
	s-6.988-3.132-6.988-6.991c0-3.861,3.129-6.988,6.988-6.988S216.43,200.356,216.43,204.218z M212.59,205.865
	c0-0.746-0.168-1.262-0.504-1.541c-0.332-0.282-0.979-0.447-1.934-0.499l-0.285-0.011v-1.904h0.201c0.705,0,1.057,0.281,1.057,0.847
	l0.006,0.138h1.242v-0.176c0-0.746-0.178-1.259-0.531-1.531c-0.354-0.276-1.012-0.413-1.975-0.413v-0.74H209v0.74
	c-1.008,0-1.697,0.144-2.068,0.431c-0.373,0.286-0.561,0.82-0.561,1.598c0,0.804,0.188,1.353,0.557,1.646
	c0.369,0.292,1.061,0.439,2.072,0.439v2.06l-0.189-0.003c-0.52,0-0.854-0.069-1.002-0.204c-0.148-0.137-0.225-0.439-0.225-0.908
	v-0.131h-1.285l-0.006,0.26c0,0.769,0.184,1.308,0.553,1.617c0.367,0.309,1.006,0.465,1.912,0.465l0.242,0.006v0.852h0.867v-0.852
	l0.266-0.006c0.908,0,1.545-0.164,1.91-0.485C212.406,207.231,212.59,206.669,212.59,205.865z M197.309,204.768l16.164-16.163
	l0.127-4.618l-4.619,0.128l-16.162,16.163l-4.018-0.419l-4.441,4.44l7.818,1.109l1.109,7.818l4.439-4.441L197.309,204.768z
	 M191.813,207.851c-0.201,0.401-0.48,0.805-0.852,1.177c-1.137,1.136-3.258,0.856-3.258,0.856s-0.281-2.123,0.855-3.259
	c0.371-0.372,0.775-0.651,1.176-0.853c-1.078-0.141-2.354,0.313-3.344,1.305c-1.486,1.487-3.82,7.937-3.82,7.937
	s6.451-2.332,7.938-3.819C191.5,210.203,191.953,208.929,191.813,207.851z"/>
</svg>
