<?xml version="1.0" encoding="utf-8"?>
<!-- Generator: Adobe Illustrator 16.0.0, SVG Export Plug-In . SVG Version: 6.00 Build 0)  -->
<!DOCTYPE svg PUBLIC "-//W3C//DTD SVG 1.1//EN" "http://www.w3.org/Graphics/SVG/1.1/DTD/svg11.dtd">
<svg version="1.1" id="Layer_1" xmlns="http://www.w3.org/2000/svg" xmlns:xlink="http://www.w3.org/1999/xlink" x="0px" y="0px"
	 width="50px" height="50px" viewBox="244.5 174.5 50 50" enable-background="new 244.5 174.5 50 50" xml:space="preserve">
<path d="M278.559,205.564h-8.127v-1.837l3.802-3.802l-1.317-1.317l-2.484,2.485v-4.019c0.517,0.482,1.054,1.076,1.47,0.953
	c0.683-0.2,0.597-2.197,1.195-2.582c0.599-0.384,2.379,0.523,2.845-0.014c0.466-0.539-0.687-2.172-0.391-2.818
	c0.295-0.646,2.285-0.847,2.386-1.55c0.101-0.705-1.751-1.455-1.852-2.16c-0.102-0.703,1.463-1.947,1.168-2.595
	c-0.295-0.646-2.26-0.278-2.726-0.814c-0.466-0.538,0.18-2.43-0.419-2.814s-2.053,0.988-2.734,0.787
	c-0.683-0.2-1.163-2.141-1.874-2.141s-1.191,1.94-1.874,2.141c-0.682,0.201-2.136-1.172-2.734-0.787
	c-0.598,0.385,0.047,2.276-0.419,2.814c-0.466,0.536-2.431,0.168-2.726,0.814c-0.295,0.647,1.27,1.892,1.169,2.595
	c-0.102,0.705-1.953,1.455-1.853,2.16c0.101,0.703,2.091,0.904,2.386,1.55c0.296,0.646-0.856,2.28-0.391,2.818
	c0.466,0.537,2.246-0.37,2.845,0.014c0.599,0.385,0.513,2.382,1.195,2.582c0.416,0.123,0.953-0.471,1.47-0.953v8.489h-8.127
	l3.056,9.802h-1.493v2.307h14.992v-2.307h-1.493L278.559,205.564z M264.663,189.842c0-2.672,2.166-4.838,4.837-4.838
	c2.672,0,4.837,2.168,4.837,4.838c0,2.671-2.165,4.838-4.837,4.838C266.829,194.68,264.663,192.516,264.663,189.842z
	 M269.286,191.521v-1.316l-0.196-0.008c-0.662-0.037-1.109-0.151-1.341-0.345c-0.231-0.191-0.346-0.551-0.346-1.066
	c0-0.559,0.126-0.948,0.377-1.172c0.253-0.224,0.694-0.336,1.324-0.336l0.182-0.002v-0.593h0.601v0.593l0.168,0.002
	c0.627,0,1.069,0.107,1.322,0.32c0.256,0.214,0.382,0.589,0.384,1.121l-0.006,0.178h-0.888v-0.09c0-0.323-0.051-0.534-0.155-0.627
	c-0.104-0.096-0.334-0.143-0.693-0.141l-0.132-0.004v1.425c0.7,0,1.177,0.101,1.434,0.305s0.386,0.585,0.386,1.137
	c0,0.539-0.129,0.907-0.389,1.109c-0.258,0.197-0.734,0.295-1.433,0.294l0.002,0.517h-0.601v-0.516
	c-0.667-0.001-1.121-0.094-1.367-0.283c-0.244-0.188-0.366-0.544-0.366-1.063v-0.119h0.858l0.005,0.096
	c0,0.39,0.244,0.584,0.732,0.584H269.286z M269.887,191.524l0.129-0.002c0.527-0.002,0.789-0.21,0.789-0.627
	c0-0.435-0.262-0.655-0.786-0.655c-0.007,0-0.048-0.002-0.134-0.008L269.887,191.524z M269.286,188.035h-0.127
	c-0.571,0-0.857,0.244-0.857,0.733c0,0.271,0.063,0.444,0.191,0.532c0.126,0.087,0.39,0.127,0.793,0.127V188.035z"/>
</svg>
