<?xml version="1.0" encoding="utf-8"?>
<!-- Generator: Adobe Illustrator 16.0.0, SVG Export Plug-In . SVG Version: 6.00 Build 0)  -->
<!DOCTYPE svg PUBLIC "-//W3C//DTD SVG 1.1//EN" "http://www.w3.org/Graphics/SVG/1.1/DTD/svg11.dtd">
<svg version="1.1" id="Layer_1" xmlns="http://www.w3.org/2000/svg" xmlns:xlink="http://www.w3.org/1999/xlink" x="0px" y="0px"
	 width="50px" height="50px" viewBox="314.5 174.5 50 50" enable-background="new 314.5 174.5 50 50" xml:space="preserve">
<path d="M334.731,205.349v1.275l0.19,0.009c0.641,0.034,1.074,0.146,1.298,0.334c0.225,0.186,0.336,0.533,0.336,1.032
	c0,0.542-0.122,0.918-0.365,1.136c-0.245,0.217-0.673,0.326-1.283,0.326l-0.177,0.001v0.574h-0.581v-0.574l-0.163-0.001
	c-0.607,0-1.035-0.104-1.281-0.311c-0.248-0.208-0.37-0.57-0.371-1.087l0.005-0.172h0.86v0.087c0,0.313,0.05,0.517,0.15,0.606
	c0.101,0.094,0.324,0.14,0.672,0.138l0.128,0.004v-1.382c-0.679,0-1.141-0.097-1.39-0.295c-0.249-0.197-0.373-0.565-0.373-1.102
	c0-0.521,0.124-0.879,0.376-1.073c0.249-0.192,0.711-0.288,1.388-0.286l-0.001-0.499h0.582v0.497
	c0.646,0.002,1.086,0.092,1.324,0.276c0.236,0.182,0.355,0.527,0.355,1.028v0.116h-0.833l-0.004-0.092
	c0-0.38-0.236-0.567-0.709-0.567H334.731z M334.149,205.345l-0.125,0.002c-0.512,0.002-0.765,0.204-0.765,0.608
	c0,0.422,0.253,0.635,0.762,0.635c0.006,0,0.047,0.002,0.129,0.007L334.149,205.345z M334.73,208.727h0.124
	c0.553,0,0.83-0.237,0.83-0.712c0-0.261-0.062-0.43-0.185-0.515c-0.122-0.084-0.379-0.124-0.769-0.123L334.73,208.727z
	 M342.605,197.668h-1.491v-1.963c0-3.678-2.991-6.669-6.669-6.669s-6.669,2.991-6.669,6.669v1.963h-1.491l-5.445,17.472h27.211
	L342.605,197.668z M329.776,195.705c0-2.574,2.095-4.669,4.669-4.669s4.669,2.095,4.669,4.669v1.963h-9.338V195.705z
	 M328.883,200.89c-0.518,0-0.938-0.42-0.938-0.938s0.42-0.938,0.938-0.938s0.938,0.42,0.938,0.938S329.4,200.89,328.883,200.89z
	 M334.445,211.583c-2.589,0-4.687-2.099-4.687-4.687c0-2.589,2.098-4.688,4.687-4.688c2.588,0,4.687,2.097,4.687,4.688
	C339.132,209.486,337.033,211.583,334.445,211.583z M340.008,200.89c-0.518,0-0.938-0.42-0.938-0.938s0.42-0.938,0.938-0.938
	s0.938,0.42,0.938,0.938S340.525,200.89,340.008,200.89z"/>
</svg>
