<?xml version="1.0" encoding="utf-8"?>
<!-- Generator: Adobe Illustrator 16.0.0, SVG Export Plug-In . SVG Version: 6.00 Build 0)  -->
<!DOCTYPE svg PUBLIC "-//W3C//DTD SVG 1.1//EN" "http://www.w3.org/Graphics/SVG/1.1/DTD/svg11.dtd">
<svg version="1.1" id="Layer_1" xmlns="http://www.w3.org/2000/svg" xmlns:xlink="http://www.w3.org/1999/xlink" x="0px" y="0px"
	 width="50px" height="50px" viewBox="-315.5 244.5 50 50" enable-background="new -315.5 244.5 50 50" xml:space="preserve">
<path d="M-278.061,281.175l-3.64-0.001c-0.133,0-0.26,0.053-0.354,0.146s-0.146,0.221-0.146,0.354c0,0.938-0.895,1.702-1.995,1.702
	h-0.494h-2.734c0.148-0.281,0.24-0.602,0.241-0.947c0.001-0.541-0.208-1.062-0.573-1.428c-0.009-0.009-0.019-0.015-0.027-0.022
	c0.365-0.355,0.599-0.864,0.601-1.435c0.001-0.541-0.208-1.062-0.574-1.428c-0.013-0.014-0.029-0.022-0.042-0.035
	c0.374-0.356,0.615-0.87,0.616-1.448c0.001-0.541-0.208-1.062-0.573-1.428c-0.021-0.021-0.044-0.035-0.065-0.054
	c0.271-0.251,0.471-0.583,0.568-0.964c0.03,0,0.054,0.004,0.085,0.004h2.703c0.276,0,0.5-0.224,0.5-0.5s-0.224-0.5-0.5-0.5h-2.703
	c-1.214,0-1.276-0.251-1.276-0.979c0-0.088-0.029-0.166-0.068-0.238c-0.068-0.194-0.249-0.335-0.467-0.335h-3.555
	c-0.302-0.136-0.52-0.478-0.52-0.884c0-0.522,0.355-0.946,0.793-0.95c0.002,0,0.004,0.001,0.007,0.001h8.06
	c1.1,0,1.995,0.8,1.995,1.783v0.858c0,0.134,0.053,0.261,0.148,0.355c0.094,0.093,0.22,0.145,0.352,0.145c0.001,0,0.003,0,0.004,0
	l3.743-0.031c0.276-0.002,0.498-0.229,0.496-0.504c-0.002-0.276-0.194-0.513-0.504-0.496l-3.239,0.027v-0.354
	c0-1.534-1.344-2.783-2.995-2.783h-4.873c-0.005,0-0.009-0.003-0.015-0.003h-1.653v-2.222h10.193v-16.031h-23v16.031h8.432v5.223
	c-0.779,0.214-1.36,0.972-1.36,1.879c0,0.593,0.251,1.118,0.639,1.476c-0.388,0.356-0.639,0.882-0.639,1.474
	c0,0.582,0.242,1.1,0.618,1.457c-0.376,0.356-0.618,0.873-0.618,1.454c0,0.574,0.235,1.086,0.602,1.443
	c-0.367,0.356-0.602,0.867-0.602,1.44c0,0.909,0.581,1.669,1.36,1.883v3.639h4.375v-3.573h6.047h0.494
	c1.462,0,2.683-0.95,2.944-2.202l3.191,0.001c0.276,0,0.5-0.224,0.5-0.5S-277.784,281.175-278.061,281.175z M-302.543,251.551h21
	v14.031h-21V251.551z M-294.672,277.58c-0.441,0-0.8-0.425-0.8-0.947c0-0.521,0.359-0.944,0.8-0.944h5.589
	c0.002,0,0.003-0.001,0.005-0.001h0.099c0.242,0,0.414,0.121,0.516,0.224c0.179,0.18,0.282,0.442,0.281,0.72
	c-0.001,0.521-0.362,0.943-0.804,0.943h-5.589c-0.01,0-0.019,0.005-0.029,0.006H-294.672z M-294.672,272.739h5.268
	c0.111,0.708,0.474,1.13,1.149,1.323c-0.125,0.33-0.405,0.563-0.732,0.563h-5.589c-0.01,0-0.019,0.005-0.029,0.006h-0.067
	c-0.441,0-0.8-0.425-0.8-0.947C-295.472,273.163-295.113,272.739-294.672,272.739z M-295.472,279.544c0-0.521,0.359-0.944,0.8-0.944
	h5.589c0.002,0,0.003-0.001,0.005-0.001h0.099c0.242,0,0.414,0.121,0.515,0.224c0.18,0.18,0.282,0.442,0.282,0.72
	c-0.001,0.518-0.358,0.937-0.796,0.941c0,0,0,0-0.001,0h-0.104h-4.186h-1.403c-0.009,0-0.017,0.003-0.025,0.003
	C-295.125,280.47-295.472,280.056-295.472,279.544z M-295.472,282.428c0-0.51,0.346-0.922,0.774-0.938
	c0.009,0,0.017,0.003,0.025,0.003h4.549c0.012,0,0.022-0.006,0.034-0.007h1.103c0.003,0,0.007-0.001,0.01-0.001
	c0.24,0.001,0.411,0.121,0.512,0.223c0.179,0.18,0.282,0.442,0.281,0.72c-0.001,0.52-0.362,0.942-0.804,0.942h-5.589
	c-0.012,0-0.022,0.006-0.034,0.007h-0.063C-295.113,283.376-295.472,282.95-295.472,282.428z M-296.851,256.242
	c0.21,0.165,0.315,0.506,0.315,1.024c0,0.64-0.124,1.051-0.37,1.238c-0.247,0.187-0.79,0.279-1.63,0.279
	c-0.756,0-1.258-0.091-1.505-0.274c-0.248-0.183-0.372-0.554-0.372-1.112l-0.003-0.176h0.888l0.003,0.102
	c0,0.336,0.058,0.541,0.176,0.616c0.117,0.075,0.438,0.112,0.961,0.112c0.408,0,0.669-0.043,0.782-0.13
	c0.112-0.087,0.169-0.287,0.169-0.602c0-0.233-0.043-0.388-0.129-0.464c-0.085-0.077-0.271-0.122-0.554-0.139l-0.503-0.031
	c-0.761-0.045-1.247-0.15-1.458-0.317c-0.211-0.167-0.317-0.524-0.317-1.074c0-0.561,0.127-0.935,0.382-1.122
	c0.255-0.187,0.764-0.279,1.527-0.279c0.723,0,1.21,0.086,1.461,0.257c0.25,0.172,0.376,0.506,0.376,1.004v0.184h-0.891
	c-0.005-0.045-0.007-0.078-0.007-0.1c-0.021-0.27-0.081-0.439-0.18-0.509c-0.098-0.069-0.331-0.104-0.697-0.104
	c-0.432,0-0.714,0.04-0.847,0.12c-0.133,0.079-0.199,0.248-0.199,0.503c0,0.304,0.054,0.485,0.162,0.546
	c0.108,0.062,0.465,0.108,1.07,0.142C-297.524,255.976-297.062,256.078-296.851,256.242z M-291.74,258.742l-1.624-4.807h-1.37
	l-1.599,4.807h0.965l0.299-0.922h2.074l0.307,0.922H-291.74z M-294.853,257.147l0.817-2.504l0.831,2.504H-294.853z
	 M-290.233,258.742l-1.535-4.807h0.947l0.902,2.723c0.084,0.261,0.21,0.697,0.376,1.31h0.024l0.092-0.327
	c0.113-0.409,0.209-0.735,0.289-0.979l0.891-2.726h0.965l-1.549,4.807H-290.233z M-283.669,258.742h-3.31v-4.807h3.289v0.768h-2.376
	v1.24h2.253v0.672h-2.253v1.359h2.398V258.742z M-297.755,259.804h1.076v3.406h-0.646v-1.857c0-0.147,0.004-0.315,0.012-0.505
	l0.013-0.253l0.012-0.253h-0.02l-0.077,0.237l-0.075,0.237c-0.07,0.213-0.124,0.37-0.163,0.471l-0.749,1.923h-0.589l-0.756-1.907
	c-0.041-0.104-0.096-0.263-0.165-0.472l-0.077-0.236l-0.077-0.234h-0.02l0.012,0.246l0.012,0.25c0.01,0.192,0.015,0.358,0.015,0.496
	v1.857h-0.646v-3.406h1.053l0.608,1.576c0.042,0.11,0.097,0.268,0.165,0.472l0.075,0.237l0.077,0.234h0.022l0.073-0.234l0.074-0.235
	c0.062-0.198,0.116-0.353,0.16-0.468L-297.755,259.804z M-294.666,259.773c-0.695,0-1.132,0.104-1.31,0.312s-0.267,0.718-0.267,1.53
	c0,0.682,0.091,1.122,0.272,1.323s0.581,0.301,1.2,0.301c0.688,0,1.12-0.102,1.299-0.304c0.179-0.203,0.268-0.695,0.268-1.477
	c0-0.713-0.088-1.172-0.267-1.377C-293.648,259.876-294.046,259.773-294.666,259.773z M-293.979,262.517
	c-0.08,0.113-0.32,0.169-0.721,0.169c-0.419,0-0.671-0.05-0.757-0.149s-0.129-0.395-0.129-0.884c0-0.661,0.037-1.047,0.111-1.157
	c0.073-0.112,0.327-0.168,0.761-0.168c0.419,0,0.666,0.052,0.742,0.155c0.076,0.104,0.114,0.441,0.114,1.013
	C-293.859,262.064-293.899,262.404-293.979,262.517z M-290.251,259.804h0.646v3.406h-1.095l-0.974-1.87
	c-0.048-0.093-0.124-0.256-0.227-0.488l-0.11-0.245l-0.107-0.244h-0.025l0.01,0.225l0.007,0.222l0.005,0.447v1.954h-0.646v-3.406
	h1.096l0.885,1.727c0.079,0.152,0.169,0.339,0.272,0.557l0.13,0.276l0.129,0.28h0.022l-0.008-0.221l-0.007-0.219l-0.004-0.438
	V259.804z M-288.427,262.665h1.699v0.545h-2.345v-3.406h2.33v0.543h-1.684v0.878h1.598v0.478h-1.598V262.665z M-284.183,259.804
	h0.759l-1.263,2.105v1.301h-0.646v-1.301l-1.228-2.105h0.748l0.514,0.898c0.028,0.049,0.077,0.142,0.145,0.276l0.072,0.138
	l0.07,0.137h0.018l0.072-0.137l0.072-0.138c0.062-0.123,0.111-0.215,0.147-0.276L-284.183,259.804z"/>
</svg>
