<?xml version="1.0" encoding="utf-8"?>
<!-- Generator: Adobe Illustrator 16.0.0, SVG Export Plug-In . SVG Version: 6.00 Build 0)  -->
<!DOCTYPE svg PUBLIC "-//W3C//DTD SVG 1.1//EN" "http://www.w3.org/Graphics/SVG/1.1/DTD/svg11.dtd">
<svg version="1.1" id="Layer_1" xmlns="http://www.w3.org/2000/svg" xmlns:xlink="http://www.w3.org/1999/xlink" x="0px" y="0px"
	 width="50px" height="50px" viewBox="-245.5 244.5 50 50" enable-background="new -245.5 244.5 50 50" xml:space="preserve">
<path d="M-203.664,279.397l-0.001-14.172h-1.404v-1.498h-1.5v-1.375h-1.5v-1.375h-1.5v-1.375h-27.767l-0.001,14.17h1.5v1.375h1.5
	v1.375h1.5v1.375h1.406v1.5H-203.664z M-217.547,276.177c-2.134,0-3.865-1.729-3.865-3.865c0-2.135,1.73-3.864,3.865-3.864
	c2.135,0,3.865,1.729,3.865,3.864C-213.683,274.447-215.412,276.177-217.547,276.177z M-222.531,278.397h-7.899v-12.171h7.899
	V278.397z M-204.664,278.397h-7.868v-12.172h7.867L-204.664,278.397z M-206.069,265.226h-6.462v-0.121l-0.371-0.377h6.833V265.226z
	 M-207.569,263.728h-6.316l-0.369-0.375h6.685V263.728z M-209.069,262.353h-6.167l-0.369-0.375h6.536V262.353z M-210.569,260.978
	h-6.019l-0.369-0.375h6.388V260.978z M-236.336,272.772l0.001-12.17h9.69l0.343,0.375h-9.533l-0.001,11.795H-236.336z
	 M-234.836,274.147l0.001-12.17h9.447l0.343,0.375h-9.29l-0.001,11.795H-234.836z M-233.336,275.522l0.001-12.17h9.203l0.343,0.375
	h-9.046l-0.001,11.795H-233.336z M-231.836,276.897l0.001-12.17h8.959l0.345,0.377v0.122h-8.899v11.671H-231.836z M-217.088,271.995
	l-0.184-0.007v-1.227l0.13,0.002c0.454,0,0.68,0.181,0.68,0.544l0.004,0.088h0.799v-0.111c0-0.481-0.113-0.812-0.341-0.987
	c-0.229-0.178-0.652-0.266-1.272-0.266v-0.477h-0.557v0.477c-0.649,0-1.093,0.093-1.333,0.277c-0.238,0.185-0.358,0.528-0.358,1.028
	c0,0.519,0.119,0.871,0.357,1.06c0.238,0.188,0.683,0.283,1.334,0.283v1.325l-0.123-0.002c-0.333,0-0.549-0.045-0.645-0.132
	c-0.096-0.089-0.145-0.281-0.145-0.583v-0.086l-0.826,0.001l-0.003,0.166c0,0.495,0.118,0.843,0.355,1.041
	c0.237,0.2,0.647,0.3,1.23,0.3l0.157,0.004v0.547h0.558v-0.548l0.17-0.003c0.586,0,0.996-0.104,1.23-0.313
	c0.235-0.207,0.352-0.571,0.352-1.09c0-0.48-0.108-0.81-0.322-0.99C-216.058,272.136-216.473,272.027-217.088,271.995z
	 M-217.952,271.954c-0.487,0-0.731-0.203-0.731-0.609c0-0.389,0.245-0.582,0.735-0.582l0.118-0.004l0.001,1.201
	C-217.906,271.957-217.947,271.953-217.952,271.954z M-217.152,274.006l-0.12-0.001l0-1.296c0.375,0,0.62,0.04,0.738,0.119
	s0.177,0.243,0.177,0.492C-216.356,273.777-216.621,274.005-217.152,274.006z"/>
</svg>
