<?xml version="1.0" encoding="utf-8"?>
<!-- Generator: Adobe Illustrator 16.0.0, SVG Export Plug-In . SVG Version: 6.00 Build 0)  -->
<!DOCTYPE svg PUBLIC "-//W3C//DTD SVG 1.1//EN" "http://www.w3.org/Graphics/SVG/1.1/DTD/svg11.dtd">
<svg version="1.1" id="Layer_1" xmlns="http://www.w3.org/2000/svg" xmlns:xlink="http://www.w3.org/1999/xlink" x="0px" y="0px"
	 width="50px" height="50px" viewBox="-175.5 244.5 50 50" enable-background="new -175.5 244.5 50 50" xml:space="preserve">
<path fill-rule="evenodd" clip-rule="evenodd" d="M-142.001,252.543l-4.482-4.482l-18.919,18.92l4.483,4.482L-142.001,252.543z
	 M-146.483,250.889l1.654,1.654l-16.091,16.092l-1.655-1.654L-146.483,250.889z M-152.083,280.299l18.919-18.918l-8.008-8.008
	l-18.919,18.918L-152.083,280.299z M-135.992,261.381l-16.091,16.09l-5.18-5.18l16.091-16.09L-135.992,261.381z M-140.718,264.162
	l-3.418-3.418l3.087-3.088l3.418,3.418L-140.718,264.162z M-155.845,272.279l4.437-4.438l0.707,0.707l-4.437,4.438L-155.845,272.279
	z M-154.35,273.773l4.437-4.436l0.707,0.707l-4.437,4.436L-154.35,273.773z M-152.854,275.27l4.437-4.436l0.707,0.707l-4.437,4.436
	L-152.854,275.27z M-138.285,273.826c-0.506-0.008-0.878,0.047-1.17,0.287c-0.101,0.084-0.149,0.211-0.289,0.256
	c0.233-0.545,0.614-1.027,0.899-1.512c0.091-0.221,0.181-0.439,0.271-0.66c-0.016-0.012-0.033-0.023-0.05-0.035
	c-0.096,0.006-0.192,0.012-0.289,0.018c-0.542-0.129-0.947-0.143-1.29,0.271c-0.096,0.119-0.192,0.238-0.288,0.357
	c-1.123-0.67-2.07,0.809-2.426,1.576c-0.213-0.047-0.514-0.172-0.764-0.135c-0.939,0.141-1.411,1.203-1.833,1.883
	c-0.275,0.445-0.448,0.891-0.678,1.41c-0.21,0.389-0.419,0.779-0.628,1.17c-0.051,0.174-0.102,0.352-0.153,0.525
	c-0.289,0.508-0.795,0.945-1.171,1.391c-0.068,0.035-0.136,0.068-0.204,0.104c-0.175,0.135-0.351,0.271-0.526,0.406
	c-0.305,0.131-0.611,0.26-0.917,0.391c-1.071,0.547-2.57,1.383-3.105,2.443c-0.167,0.332-0.211,0.869-0.305,1.238
	c-0.005,0-0.011,0-0.017,0c-0.029-0.361-0.057-0.725-0.085-1.086c-0.074-0.262-0.259-0.498-0.391-0.713
	c-0.71-1.178-1.731-1.941-2.985-2.563c-0.368-0.123-0.736-0.248-1.103-0.373c-0.316-0.23-0.634-0.463-0.95-0.695
	c-0.384-0.363-0.789-0.703-1.154-1.086c-0.079-0.068-0.158-0.135-0.237-0.203c-0.371-0.576-0.809-1.203-1.392-1.561
	c-0.012-0.541-0.248-0.898-0.356-1.291c0.022-0.254,0.045-0.51,0.068-0.764c0.122-0.764-0.242-1.523-0.765-1.68
	c0.08-0.629-0.023-1.125-0.474-1.355c-0.108-0.023-0.215-0.047-0.323-0.068c-0.099-0.047-0.09-0.193-0.221-0.238
	c-0.211,0.777-0.394,1.813-0.526,2.682c-0.011,0-0.023,0-0.034,0c-0.142-1.496,0.522-2.682-1.153-3.107
	c-0.023-0.094-0.074-0.148-0.137-0.203c-0.011,0.006-0.021,0.012-0.033,0.018c-0.254,1.074-0.07,2.385-0.288,3.496
	c-0.006,0-0.012,0-0.018,0c-0.005,0-0.012,0-0.017,0c-0.131-0.447-0.846-1.018-1.324-1.137c-0.203-0.051-0.365,0.02-0.542,0.033
	c-0.042-0.053-0.081-0.094-0.153-0.119c0,0.012,0,0.023,0,0.035c-0.119,0.316,0.175,0.828,0.289,1.018
	c0.451,0.758,0.771,1.58,1.137,2.426c0.176,0.504,0.351,1.008,0.526,1.51c0.146,0.25,0.422,0.387,0.611,0.596
	c0.311,0.367,0.622,0.734,0.933,1.102c0.26,0.277,0.52,0.555,0.78,0.832c0.412,0.535,0.54,1.121,1.052,1.578
	c0.254,0.158,0.509,0.316,0.763,0.475c1.229,0.986,3.081,1.875,3.835,3.293c0.107,0.242,0.215,0.486,0.323,0.729
	c-0.012,0.367-0.023,0.736-0.034,1.104c0.065,0.523-0.097,1.119-0.221,1.578c-0.103,0.488-0.207,0.979-0.309,1.469h4.508
	c-0.002-0.23-0.005-0.459-0.008-0.688c-0.023-0.682,0.123-1.359,0.187-1.951c0.005,0.01,0.012,0.021,0.017,0.031
	c0.13,0.332,0.034,0.971,0.034,1.41c-0.009,0.398-0.017,0.797-0.026,1.197h4.469c-0.034-0.258-0.066-0.516-0.1-0.773
	c-0.29-1.396-0.486-2.561,0.153-3.717c0.384-0.693,1.096-1.193,1.731-1.645c0.862-0.613,1.657-1.359,2.528-1.969
	c0.368-0.211,0.735-0.418,1.103-0.629c0.426-0.359,0.677-1.031,1.018-1.475c0.195-0.254,0.47-0.441,0.68-0.68
	c0.282-0.328,0.564-0.656,0.848-0.984c0.227-0.219,0.453-0.441,0.679-0.662c0.305-0.678,0.611-1.355,0.916-2.035
	c0.315-0.535,0.63-1.021,0.968-1.543c0.19-0.295,0.486-0.535,0.526-0.984C-138.045,273.721-138.074,273.828-138.285,273.826z
	 M-144.529,277.084c0-0.006,0-0.012,0-0.018c0.191-0.563,0.717-1.773,1.171-1.986C-143.435,275.379-144.317,276.992-144.529,277.084
	z M-143.019,274.402c0.017,0,0.035,0,0.051,0C-142.99,274.447-143.007,274.453-143.019,274.402z M-141.677,275.031
	c-0.179,0.377-0.271,0.932-0.561,1.205c-0.005,0-0.011,0-0.017,0c0-0.006,0-0.012,0-0.018c0.222-0.566,0.491-1.713,0.984-1.969
	C-141.407,274.51-141.542,274.771-141.677,275.031z"/>
</svg>
