<?xml version="1.0" encoding="utf-8"?>
<!-- Generator: Adobe Illustrator 16.0.0, SVG Export Plug-In . SVG Version: 6.00 Build 0)  -->
<!DOCTYPE svg PUBLIC "-//W3C//DTD SVG 1.1//EN" "http://www.w3.org/Graphics/SVG/1.1/DTD/svg11.dtd">
<svg version="1.1" id="Layer_1" xmlns="http://www.w3.org/2000/svg" xmlns:xlink="http://www.w3.org/1999/xlink" x="0px" y="0px"
	 width="50px" height="50px" viewBox="-105.5 244.5 50 50" enable-background="new -105.5 244.5 50 50" xml:space="preserve">
<path d="M-65.919,270.545c-0.506-0.01-0.878,0.045-1.17,0.287c-0.101,0.082-0.149,0.211-0.289,0.254
	c0.233-0.545,0.614-1.027,0.899-1.51c0.091-0.221,0.181-0.441,0.271-0.662c-0.016-0.012-0.033-0.021-0.05-0.033
	c-0.096,0.006-0.192,0.012-0.289,0.018c-0.542-0.129-0.947-0.143-1.29,0.271c-0.096,0.119-0.192,0.236-0.288,0.355
	c-1.123-0.67-2.07,0.811-2.426,1.578c-0.213-0.047-0.514-0.174-0.764-0.135c-0.939,0.139-1.411,1.203-1.833,1.883
	c-0.275,0.443-0.448,0.891-0.678,1.408c-0.21,0.391-0.419,0.781-0.628,1.17c-0.051,0.176-0.102,0.352-0.153,0.527
	c-0.289,0.508-0.795,0.945-1.171,1.391c-0.068,0.033-0.136,0.068-0.204,0.102c-0.175,0.137-0.351,0.271-0.526,0.406
	c-0.305,0.131-0.611,0.262-0.917,0.393c-1.071,0.545-2.57,1.381-3.105,2.443c-0.167,0.33-0.211,0.867-0.305,1.238
	c-0.005,0-0.011,0-0.017,0c-0.029-0.361-0.057-0.725-0.085-1.086c-0.074-0.264-0.259-0.498-0.391-0.713
	c-0.71-1.178-1.731-1.941-2.985-2.563c-0.368-0.125-0.736-0.25-1.103-0.373c-0.316-0.232-0.634-0.465-0.95-0.695
	c-0.384-0.363-0.789-0.705-1.154-1.086c-0.079-0.068-0.158-0.137-0.237-0.205c-0.371-0.576-0.809-1.201-1.392-1.561
	c-0.012-0.541-0.248-0.896-0.356-1.289c0.022-0.256,0.045-0.51,0.068-0.764c0.122-0.766-0.242-1.525-0.765-1.68
	c0.08-0.629-0.023-1.125-0.474-1.357c-0.108-0.023-0.215-0.045-0.323-0.068c-0.099-0.045-0.09-0.191-0.221-0.236
	c-0.211,0.777-0.394,1.813-0.526,2.68c-0.011,0-0.023,0-0.034,0c-0.142-1.494,0.522-2.68-1.153-3.105
	c-0.023-0.094-0.074-0.148-0.137-0.203c-0.011,0.006-0.021,0.012-0.033,0.016c-0.254,1.076-0.07,2.385-0.288,3.496
	c-0.006,0-0.012,0-0.018,0c-0.005,0-0.012,0-0.017,0c-0.131-0.447-0.846-1.018-1.324-1.135c-0.203-0.053-0.365,0.02-0.542,0.033
	c-0.042-0.055-0.081-0.096-0.153-0.119c0,0.012,0,0.021,0,0.033c-0.119,0.316,0.175,0.828,0.289,1.02
	c0.451,0.758,0.771,1.578,1.137,2.426c0.176,0.502,0.351,1.006,0.526,1.51c0.146,0.25,0.422,0.387,0.611,0.594
	c0.311,0.367,0.622,0.736,0.933,1.104c0.26,0.277,0.52,0.555,0.78,0.832c0.412,0.533,0.54,1.119,1.052,1.576
	c0.254,0.16,0.509,0.316,0.763,0.477c1.229,0.986,3.081,1.875,3.835,3.291c0.107,0.244,0.215,0.486,0.323,0.73
	c-0.012,0.367-0.023,0.734-0.034,1.102c0.065,0.525-0.097,1.119-0.221,1.578c-0.103,0.488-0.207,0.979-0.309,1.469h4.508
	c-0.002-0.229-0.005-0.457-0.008-0.688c-0.023-0.68,0.123-1.359,0.187-1.951c0.005,0.012,0.012,0.023,0.017,0.033
	c0.13,0.332,0.034,0.971,0.034,1.408c-0.009,0.4-0.017,0.799-0.026,1.197h4.469c-0.034-0.258-0.066-0.514-0.1-0.771
	c-0.29-1.396-0.486-2.563,0.153-3.717c0.384-0.695,1.096-1.193,1.731-1.646c0.862-0.613,1.657-1.357,2.528-1.967
	c0.368-0.211,0.735-0.42,1.103-0.629c0.426-0.361,0.677-1.031,1.018-1.477c0.195-0.254,0.47-0.439,0.68-0.678
	c0.282-0.328,0.564-0.656,0.848-0.984c0.227-0.221,0.453-0.441,0.679-0.662c0.305-0.68,0.611-1.357,0.916-2.037
	c0.315-0.533,0.63-1.021,0.968-1.543c0.19-0.295,0.486-0.533,0.526-0.984C-65.68,270.438-65.708,270.547-65.919,270.545z
	 M-72.164,273.803c0-0.006,0-0.012,0-0.018c0.191-0.564,0.717-1.773,1.171-1.986C-71.069,272.098-71.952,273.711-72.164,273.803z
	 M-70.653,271.121c0.017,0,0.035,0,0.051,0C-70.625,271.166-70.642,271.17-70.653,271.121z M-69.312,271.748
	c-0.179,0.377-0.271,0.934-0.561,1.205c-0.005,0-0.011,0-0.017,0c0-0.006,0-0.012,0-0.018c0.222-0.566,0.491-1.713,0.984-1.967
	C-69.042,271.229-69.177,271.488-69.312,271.748z M-81.355,260.525c0-0.834,0.526-1.25,1.581-1.25l0.254-0.01l0.001,2.582
	c-0.166-0.008-0.254-0.014-0.264-0.012C-80.83,261.836-81.355,261.398-81.355,260.525z M-78.063,266.246l-0.258-0.002l0.002-2.785
	c0.805,0,1.333,0.084,1.587,0.256c0.254,0.17,0.381,0.523,0.381,1.059C-76.352,265.756-76.921,266.244-78.063,266.246z
	 M-85.378,268.566c1.611,1.745,3.909,2.846,6.465,2.846c4.857,0,8.808-3.95,8.808-8.807c0-3.813-2.439-7.059-5.836-8.281
	c-1.622-1.824-3.978-2.98-6.605-2.98c-4.879,0-8.849,3.969-8.849,8.848C-91.396,264.079-88.871,267.382-85.378,268.566z
	 M-79.519,256.678h1.198v1.025c1.334,0,2.244,0.188,2.735,0.57c0.49,0.379,0.734,1.088,0.734,2.123v0.238h-1.719l-0.008-0.189
	c0.001-0.781-0.487-1.17-1.461-1.17l-0.279-0.002v2.635l0.395,0.014c1.322,0.07,2.214,0.303,2.678,0.691
	c0.461,0.389,0.694,1.098,0.694,2.129c0,1.115-0.252,1.896-0.757,2.344c-0.504,0.449-1.387,0.674-2.645,0.674l-0.365,0.006v1.178
	h-1.2v-1.178l-0.336-0.006c-1.252,0-2.134-0.215-2.644-0.646c-0.51-0.426-0.764-1.172-0.764-2.234l0.007-0.359l1.777-0.002v0.186
	c0,0.646,0.104,1.063,0.312,1.252c0.204,0.189,0.67,0.283,1.384,0.283l0.264,0.006v-2.85c-1.399,0-2.354-0.205-2.868-0.607
	c-0.511-0.406-0.767-1.164-0.767-2.277c0-1.076,0.257-1.814,0.77-2.211c0.515-0.398,1.47-0.596,2.864-0.596V256.678z
	 M-82.543,253.344c0.922,0,1.801,0.186,2.604,0.518c-4.375,0.511-7.782,4.234-7.782,8.744c0,0.848,0.127,1.666,0.352,2.442
	c-1.25-1.241-2.027-2.96-2.027-4.856C-89.396,256.416-86.323,253.344-82.543,253.344z"/>
</svg>
