<?xml version="1.0" encoding="utf-8"?>
<!-- Generator: Adobe Illustrator 16.0.0, SVG Export Plug-In . SVG Version: 6.00 Build 0)  -->
<!DOCTYPE svg PUBLIC "-//W3C//DTD SVG 1.1//EN" "http://www.w3.org/Graphics/SVG/1.1/DTD/svg11.dtd">
<svg version="1.1" id="Layer_1" xmlns="http://www.w3.org/2000/svg" xmlns:xlink="http://www.w3.org/1999/xlink" x="0px" y="0px"
	 width="50px" height="50px" viewBox="-35.5 244.5 50 50" enable-background="new -35.5 244.5 50 50" xml:space="preserve">
<path d="M6.902,269.047h-1l-0.004-8.381l-12.76,0.005v0.001h-1.284l-2.341,0.001v-0.001h-1.75l5.375-4.125v3.125l13.759-0.006
	L6.902,269.047z M4.398,262.166l0.004,14.663l-29.801,0.009l-0.002-14.665L4.398,262.166z M-5.478,269.499
	c-0.001-2.771-2.249-5.02-5.023-5.02c-2.774,0.001-5.024,2.25-5.022,5.023c0.002,2.775,2.25,5.022,5.024,5.021
	C-7.726,274.523-5.477,272.274-5.478,269.499z M-8.101,269.507c0.303,0.256,0.456,0.721,0.455,1.396c0,0.73-0.164,1.241-0.494,1.533
	c-0.332,0.296-0.908,0.44-1.731,0.441l-0.24,0.005l0,0.771l-0.786,0.001v-0.772l-0.222-0.003c-0.822,0-1.396-0.141-1.73-0.421
	c-0.334-0.283-0.501-0.771-0.501-1.465l0.004-0.237l1.163,0.001l0,0.12c0,0.424,0.068,0.696,0.205,0.82
	c0.134,0.123,0.437,0.187,0.906,0.186l0.171,0.005l0.002-1.869c-0.917,0.002-1.543-0.132-1.879-0.396
	c-0.334-0.267-0.502-0.762-0.502-1.491c0.002-0.705,0.168-1.188,0.504-1.448s0.962-0.392,1.875-0.391l0.002-0.671l0.785-0.001
	l-0.001,0.67c0.873-0.001,1.467,0.124,1.791,0.375c0.321,0.248,0.48,0.712,0.48,1.39l-0.001,0.158l-1.126-0.001l-0.004-0.125
	c0.002-0.511-0.318-0.767-0.958-0.767l-0.18-0.002l-0.003,1.727l0.259,0.009C-8.989,269.104-8.403,269.252-8.101,269.507z
	 M-10.899,267.316l-0.167,0.006c-0.691,0.002-1.034,0.273-1.035,0.82c0,0.569,0.344,0.857,1.029,0.856
	c0.008-0.002,0.066,0.004,0.173,0.009V267.316z M-8.825,270.922c0.001-0.35-0.081-0.581-0.249-0.692
	c-0.165-0.113-0.512-0.169-1.04-0.168l-0.001,1.823l0.169,0.002C-9.197,271.887-8.824,271.564-8.825,270.922z M-12.206,278.328
	L-12.206,278.328l-14.693,0.011l-0.003-8.667h-1l0.003,9.667l15.693-0.01v3.124l5.375-4.125H-12.206z"/>
</svg>
