<?xml version="1.0" encoding="utf-8"?>
<!-- Generator: Adobe Illustrator 16.0.0, SVG Export Plug-In . SVG Version: 6.00 Build 0)  -->
<!DOCTYPE svg PUBLIC "-//W3C//DTD SVG 1.1//EN" "http://www.w3.org/Graphics/SVG/1.1/DTD/svg11.dtd">
<svg version="1.1" id="Layer_1" xmlns="http://www.w3.org/2000/svg" xmlns:xlink="http://www.w3.org/1999/xlink" x="0px" y="0px"
	 width="50px" height="50px" viewBox="34.5 244.5 50 50" enable-background="new 34.5 244.5 50 50" xml:space="preserve">
<path fill-rule="evenodd" clip-rule="evenodd" d="M53.457,267.585c-0.49,0.277-0.824,0.796-0.824,1.4
	c0,0.893,0.723,1.616,1.615,1.616c0.807,0,1.469-0.592,1.59-1.364c1.112,0.523,2.351,0.825,3.662,0.825
	c1.311,0,2.548-0.301,3.66-0.825c0.122,0.772,0.785,1.364,1.591,1.364c0.893,0,1.616-0.724,1.616-1.616
	c0-0.604-0.335-1.123-0.825-1.4c1.589-1.563,2.575-3.735,2.575-6.14c0-1.969-0.667-3.776-1.777-5.228
	c1.311-1.457,1.207-3.764,1.207-3.764s-2.457-0.113-3.901,1.331c-0.022,0.022-0.041,0.047-0.063,0.07
	c-1.216-0.655-2.605-1.028-4.083-1.028s-2.868,0.373-4.084,1.028c-0.021-0.023-0.04-0.048-0.063-0.07
	c-1.445-1.444-3.902-1.331-3.902-1.331s-0.102,2.307,1.208,3.764c-1.11,1.451-1.777,3.259-1.777,5.228
	C50.882,263.85,51.869,266.021,53.457,267.585z M59.5,267.908c-1.735,0-3.143-1.406-3.143-3.142s1.407-3.142,3.143-3.142
	c1.734,0,3.142,1.406,3.142,3.142S61.234,267.908,59.5,267.908z M62.775,259.426c0.472,0,0.854,0.381,0.854,0.853
	c0,0.47-0.382,0.853-0.854,0.853c-0.471,0-0.852-0.383-0.852-0.853C61.924,259.807,62.305,259.426,62.775,259.426z M56.866,255.918
	h5.267v1h-5.267V255.918z M56.223,259.426c0.471,0,0.854,0.381,0.854,0.853c0,0.47-0.383,0.853-0.854,0.853
	s-0.853-0.383-0.853-0.853C55.37,259.807,55.752,259.426,56.223,259.426z M59.922,264.377l-0.17-0.007v-1.131h0.119
	c0.42,0,0.629,0.167,0.629,0.502l0.002,0.083h0.738v-0.105c0-0.443-0.105-0.747-0.314-0.91c-0.211-0.163-0.602-0.244-1.174-0.244
	v-0.439h-0.515v0.439c-0.599,0-1.009,0.086-1.229,0.255c-0.221,0.172-0.332,0.488-0.332,0.95c0,0.477,0.111,0.802,0.33,0.978
	c0.221,0.173,0.631,0.26,1.231,0.26v1.226l-0.112-0.003c-0.309,0-0.508-0.041-0.596-0.122c-0.088-0.08-0.134-0.261-0.134-0.538
	v-0.079h-0.763l-0.004,0.154c0,0.456,0.109,0.777,0.328,0.961s0.598,0.276,1.136,0.276l0.145,0.003v0.506h0.515v-0.506l0.157-0.003
	c0.54,0,0.919-0.097,1.135-0.289c0.218-0.192,0.325-0.527,0.325-1.004c0-0.445-0.099-0.749-0.298-0.916
	C60.873,264.506,60.489,264.407,59.922,264.377z M59.237,264.345c-0.071-0.005-0.108-0.006-0.112-0.006
	c-0.451,0-0.676-0.188-0.676-0.563c0-0.357,0.225-0.537,0.678-0.537l0.11-0.003V264.345z M59.861,266.232h-0.109v-1.196
	c0.346,0,0.572,0.036,0.682,0.109c0.109,0.072,0.163,0.225,0.163,0.456C60.597,266.021,60.352,266.232,59.861,266.232z
	 M74.08,269.436c-0.506-0.009-0.878,0.046-1.17,0.287c-0.101,0.083-0.149,0.211-0.289,0.255c0.232-0.545,0.614-1.027,0.899-1.511
	c0.091-0.221,0.181-0.44,0.271-0.661c-0.016-0.012-0.033-0.022-0.05-0.034c-0.097,0.006-0.192,0.012-0.289,0.018
	c-0.542-0.129-0.947-0.143-1.29,0.271c-0.096,0.119-0.191,0.237-0.287,0.356c-1.123-0.67-2.07,0.81-2.427,1.577
	c-0.213-0.047-0.514-0.173-0.764-0.135c-0.939,0.14-1.411,1.203-1.833,1.883c-0.275,0.444-0.447,0.891-0.678,1.409
	c-0.21,0.39-0.419,0.78-0.628,1.17c-0.052,0.175-0.103,0.352-0.153,0.526c-0.289,0.508-0.795,0.945-1.17,1.391
	c-0.068,0.034-0.137,0.068-0.204,0.103c-0.175,0.136-0.351,0.271-0.526,0.406c-0.305,0.131-0.61,0.261-0.916,0.392
	c-1.071,0.546-2.57,1.382-3.105,2.443c-0.167,0.331-0.211,0.868-0.305,1.238c-0.006,0-0.012,0-0.018,0
	c-0.028-0.361-0.057-0.725-0.085-1.086c-0.073-0.263-0.259-0.498-0.391-0.713c-0.71-1.178-1.731-1.941-2.985-2.563
	c-0.368-0.124-0.736-0.249-1.104-0.373c-0.316-0.231-0.633-0.464-0.949-0.695c-0.385-0.363-0.789-0.704-1.154-1.086
	c-0.079-0.068-0.158-0.136-0.238-0.204c-0.37-0.576-0.809-1.202-1.391-1.561c-0.012-0.541-0.248-0.897-0.356-1.29
	c0.022-0.255,0.046-0.51,0.067-0.764c0.122-0.765-0.242-1.524-0.764-1.68c0.079-0.629-0.023-1.125-0.475-1.356
	c-0.107-0.023-0.215-0.046-0.322-0.068c-0.099-0.046-0.09-0.192-0.221-0.237c-0.211,0.777-0.394,1.813-0.525,2.681
	c-0.012,0-0.023,0-0.035,0c-0.141-1.495,0.522-2.681-1.152-3.106c-0.023-0.094-0.074-0.148-0.137-0.203
	c-0.012,0.006-0.021,0.012-0.033,0.017c-0.254,1.075-0.07,2.385-0.289,3.496c-0.006,0-0.012,0-0.018,0c-0.004,0-0.012,0-0.016,0
	c-0.132-0.447-0.846-1.018-1.324-1.136c-0.203-0.052-0.365,0.02-0.543,0.033c-0.041-0.054-0.08-0.095-0.152-0.119
	c0,0.012,0,0.022,0,0.034c-0.119,0.316,0.175,0.828,0.288,1.019c0.45,0.758,0.771,1.579,1.137,2.426
	c0.176,0.503,0.351,1.007,0.526,1.51c0.146,0.25,0.422,0.387,0.611,0.595c0.311,0.367,0.621,0.735,0.933,1.103
	c0.261,0.277,0.521,0.555,0.78,0.832c0.412,0.534,0.539,1.12,1.053,1.577c0.254,0.159,0.509,0.316,0.763,0.476
	c1.229,0.986,3.081,1.875,3.835,3.292c0.107,0.243,0.215,0.486,0.322,0.729c-0.012,0.367-0.022,0.735-0.033,1.103
	c0.064,0.524-0.098,1.119-0.221,1.578c-0.104,0.488-0.207,0.979-0.31,1.469h4.509c-0.003-0.229-0.006-0.458-0.008-0.688
	c-0.023-0.681,0.123-1.359,0.186-1.951c0.006,0.011,0.012,0.022,0.018,0.032c0.129,0.332,0.033,0.971,0.033,1.409
	c-0.008,0.399-0.017,0.798-0.025,1.197h4.469c-0.033-0.258-0.066-0.515-0.1-0.772c-0.289-1.396-0.486-2.562,0.153-3.717
	c0.384-0.694,1.096-1.193,1.731-1.646c0.861-0.613,1.656-1.358,2.527-1.968c0.367-0.211,0.735-0.419,1.104-0.629
	c0.426-0.36,0.676-1.031,1.018-1.476c0.195-0.254,0.469-0.44,0.68-0.679c0.281-0.328,0.564-0.656,0.848-0.984
	c0.227-0.22,0.452-0.441,0.678-0.662c0.306-0.679,0.611-1.356,0.916-2.036c0.315-0.534,0.631-1.021,0.969-1.543
	c0.189-0.295,0.486-0.534,0.525-0.984C74.32,269.329,74.291,269.438,74.08,269.436z M67.836,272.693c0-0.006,0-0.012,0-0.018
	c0.191-0.563,0.717-1.773,1.172-1.986C68.93,270.988,68.047,272.602,67.836,272.693z M69.346,270.012c0.018,0,0.035,0,0.052,0
	C69.375,270.057,69.357,270.062,69.346,270.012z M70.688,270.64c-0.179,0.377-0.271,0.933-0.561,1.205c-0.006,0-0.012,0-0.018,0
	c0-0.006,0-0.012,0-0.018c0.223-0.566,0.492-1.713,0.984-1.968C70.958,270.119,70.822,270.38,70.688,270.64z"/>
</svg>
