<?xml version="1.0" encoding="utf-8"?>
<!-- Generator: Adobe Illustrator 16.0.0, SVG Export Plug-In . SVG Version: 6.00 Build 0)  -->
<!DOCTYPE svg PUBLIC "-//W3C//DTD SVG 1.1//EN" "http://www.w3.org/Graphics/SVG/1.1/DTD/svg11.dtd">
<svg version="1.1" id="Layer_1" xmlns="http://www.w3.org/2000/svg" xmlns:xlink="http://www.w3.org/1999/xlink" x="0px" y="0px"
	 width="50px" height="50px" viewBox="104.5 244.5 50 50" enable-background="new 104.5 244.5 50 50" xml:space="preserve">
<path d="M135.299,252.955l-2.001,5.143h-2.17c-0.007,0-0.013,0.004-0.02,0.004h-6.425c-2.366,0-4.292,1.8-4.292,4.012v0.121
	l-2.301-0.023v-1.875h-8.055v17.166h8.055v-1.424l2.439-0.002c0.482,1.676,2.161,2.916,4.153,2.916h0.484l-0.675,1.734l13.666,5.318
	l10.805-27.773L135.299,252.955z M124.684,276.992c-1.264,0-2.292-0.854-2.292-1.916v-1.001l-4.301,0.003v-9.867l4.301,0.043v-2.141
	c0-1.109,1.028-2.012,2.292-2.012h10.628c0.003,0,0.006-0.002,0.009-0.002c0.383,0.007,0.705,0.421,0.705,0.912
	c0,0.495-0.327,0.914-0.714,0.914l-4.237,0.001l-0.183,0.01c-0.53,0.029-0.946,0.468-0.946,0.999c0,0.805,0,0.949-1.342,0.949
	h-3.566c-0.553,0-1,0.447-1,1s0.447,1,1,1h3.566c0.595,0,1.218-0.058,1.767-0.264l-4.424,11.371H124.684z M134.907,274.18
	c-2.585-1.004-3.864-3.916-2.858-6.502s3.917-3.863,6.5-2.859c2.586,1.006,3.866,3.918,2.861,6.502
	C140.404,273.906,137.494,275.186,134.907,274.18z M140.103,270.139c0.298-0.768,0.372-1.357,0.217-1.773
	c-0.152-0.414-0.569-0.752-1.25-1.018c-0.629-0.246-1.117-0.271-1.465-0.082c-0.347,0.189-0.698,0.682-1.058,1.471l-0.103,0.238
	l-1.607-0.629l0.066-0.168c0.232-0.596,0.587-0.801,1.063-0.613l0.117,0.041l0.409-1.049l-0.146-0.059
	c-0.633-0.246-1.122-0.266-1.469-0.057c-0.352,0.211-0.684,0.719-0.999,1.533l-0.625-0.244l-0.283,0.732l0.624,0.244
	c-0.332,0.85-0.438,1.48-0.316,1.889s0.511,0.738,1.167,0.996c0.68,0.264,1.202,0.287,1.571,0.072
	c0.368-0.217,0.72-0.752,1.051-1.607l1.741,0.68l-0.066,0.158c-0.17,0.438-0.339,0.697-0.502,0.777
	c-0.165,0.082-0.444,0.047-0.839-0.107l-0.112-0.043l-0.422,1.084l0.219,0.09c0.647,0.252,1.162,0.273,1.547,0.064
	c0.382-0.209,0.722-0.693,1.02-1.459l0.084-0.205l0.72,0.279l0.283-0.732l-0.719-0.279L140.103,270.139z M136.054,269.85
	c-0.248,0.639-0.642,0.855-1.173,0.648c-0.509-0.199-0.638-0.617-0.388-1.262l0.055-0.158l1.576,0.613
	C136.08,269.789,136.055,269.842,136.054,269.85z M139.153,269.848l-0.063,0.156l-1.698-0.662c0.19-0.492,0.368-0.795,0.533-0.908
	c0.165-0.115,0.41-0.107,0.736,0.02C139.26,268.686,139.425,269.15,139.153,269.848z"/>
</svg>
