<?xml version="1.0" encoding="utf-8"?>
<!-- Generator: Adobe Illustrator 16.0.0, SVG Export Plug-In . SVG Version: 6.00 Build 0)  -->
<!DOCTYPE svg PUBLIC "-//W3C//DTD SVG 1.1//EN" "http://www.w3.org/Graphics/SVG/1.1/DTD/svg11.dtd">
<svg version="1.1" id="Layer_1" xmlns="http://www.w3.org/2000/svg" xmlns:xlink="http://www.w3.org/1999/xlink" x="0px" y="0px"
	 width="50px" height="50px" viewBox="174.5 244.5 50 50" enable-background="new 174.5 244.5 50 50" xml:space="preserve">
<path d="M205.299,252.955l-2.001,5.143h-2.17c-0.007,0-0.013,0.004-0.02,0.004h-6.425c-2.366,0-4.292,1.8-4.292,4.012v0.121
	l-2.301-0.023v-1.875h-8.055v17.166h8.055v-1.424l2.439-0.002c0.482,1.676,2.161,2.916,4.153,2.916h0.484l-0.675,1.734l13.666,5.318
	l10.805-27.773L205.299,252.955z M194.684,276.992c-1.264,0-2.292-0.854-2.292-1.916v-1.001l-4.301,0.003v-9.867l4.301,0.043v-2.141
	c0-1.109,1.028-2.012,2.292-2.012h10.628c0.003,0,0.006-0.002,0.009-0.002c0.383,0.007,0.705,0.421,0.705,0.912
	c0,0.495-0.327,0.914-0.714,0.914l-4.237,0.001l-0.183,0.01c-0.53,0.029-0.946,0.468-0.946,0.999c0,0.805,0,0.949-1.342,0.949
	h-3.566c-0.553,0-1,0.447-1,1s0.447,1,1,1h3.566c0.595,0,1.218-0.058,1.767-0.264l-4.424,11.371H194.684z M204.907,274.18
	c-2.585-1.004-3.864-3.916-2.858-6.502s3.917-3.863,6.5-2.859c2.586,1.006,3.866,3.918,2.861,6.502
	C210.404,273.906,207.494,275.186,204.907,274.18z M206.539,267.413l0.439-0.847l0.898,0.468l-0.705,1.353l0.535,0.875l0.948-1.822
	l0.897,0.469l-1.063,2.042l2.02,1.051l-0.635,1.216l-2.02-1.051l-1.012,1.943l-0.898-0.467l0.906-1.738l-1.015,0.046l-0.669,1.287
	l-0.898-0.468l0.419-0.803l-2.351,0.078l0.719-1.381l3.44,0.031l0.02-0.038l-1.978-2.838l0.74-1.424L206.539,267.413z"/>
</svg>
