<?xml version="1.0" encoding="utf-8"?>
<!-- Generator: Adobe Illustrator 16.0.0, SVG Export Plug-In . SVG Version: 6.00 Build 0)  -->
<!DOCTYPE svg PUBLIC "-//W3C//DTD SVG 1.1//EN" "http://www.w3.org/Graphics/SVG/1.1/DTD/svg11.dtd">
<svg version="1.1" id="Layer_1" xmlns="http://www.w3.org/2000/svg" xmlns:xlink="http://www.w3.org/1999/xlink" x="0px" y="0px"
	 width="50px" height="50px" viewBox="244.5 244.5 50 50" enable-background="new 244.5 244.5 50 50" xml:space="preserve">
<path d="M275.299,252.955l-2.001,5.143h-2.17c-0.007,0-0.013,0.004-0.02,0.004h-6.425c-2.366,0-4.292,1.8-4.292,4.012v0.121
	l-2.301-0.023v-1.875h-8.055v17.166h8.055v-1.424l2.439-0.002c0.482,1.676,2.161,2.916,4.153,2.916h0.484l-0.675,1.734l13.666,5.318
	l10.805-27.773L275.299,252.955z M264.684,276.992c-1.264,0-2.292-0.854-2.292-1.916v-1.001l-4.301,0.003v-9.867l4.301,0.043v-2.141
	c0-1.109,1.028-2.012,2.292-2.012h10.628c0.003,0,0.006-0.002,0.009-0.002c0.383,0.007,0.705,0.421,0.705,0.912
	c0,0.495-0.327,0.914-0.714,0.914l-4.237,0.001l-0.183,0.01c-0.53,0.029-0.946,0.468-0.946,0.999c0,0.805,0,0.949-1.342,0.949
	h-3.566c-0.553,0-1,0.447-1,1s0.447,1,1,1h3.566c0.595,0,1.218-0.058,1.767-0.264l-4.424,11.371H264.684z M274.907,274.18
	c-2.585-1.004-3.864-3.916-2.858-6.502s3.917-3.863,6.5-2.859c2.586,1.006,3.866,3.918,2.861,6.502
	C280.404,273.906,277.494,275.186,274.907,274.18z M276.776,268.89l0.874,0.394l-0.762,1.696l0.207,0.093l0.332,0.142l0.415,0.266
	c0.126,0.119,0.208,0.31,0.243,0.571l0.033,0.014l1.659-3.753l0.985,0.441l-2.283,5.084l-0.963-0.433
	c0.129-0.42-0.123-0.771-0.76-1.057l-0.403-0.182l-0.345,0.769l-0.875-0.393l0.346-0.769l-0.918-0.413l-0.264-0.12l-0.709-0.396
	c-0.693-0.488-0.752-1.37-0.176-2.65c0.393-0.877,0.777-1.414,1.152-1.615c0.374-0.197,0.904-0.143,1.588,0.165l0.305,0.143
	l-0.533,1.187l-0.135-0.057c-0.375-0.168-0.646-0.218-0.808-0.15c-0.163,0.068-0.335,0.304-0.517,0.707
	c-0.206,0.459-0.276,0.785-0.211,0.977c0.067,0.194,0.311,0.385,0.731,0.574l1.026,0.461L276.776,268.89z"/>
</svg>
