<?xml version="1.0" encoding="utf-8"?>
<!-- Generator: Adobe Illustrator 16.0.0, SVG Export Plug-In . SVG Version: 6.00 Build 0)  -->
<!DOCTYPE svg PUBLIC "-//W3C//DTD SVG 1.1//EN" "http://www.w3.org/Graphics/SVG/1.1/DTD/svg11.dtd">
<svg version="1.1" id="Layer_1" xmlns="http://www.w3.org/2000/svg" xmlns:xlink="http://www.w3.org/1999/xlink" x="0px" y="0px"
	 width="50px" height="50px" viewBox="314.5 244.5 50 50" enable-background="new 314.5 244.5 50 50" xml:space="preserve">
<path d="M345.299,252.955l-2.001,5.143h-2.17c-0.007,0-0.013,0.004-0.02,0.004h-6.425c-2.366,0-4.292,1.8-4.292,4.012v0.121
	l-2.301-0.023v-1.875h-8.055v17.166h8.055v-1.424l2.439-0.002c0.482,1.676,2.161,2.916,4.153,2.916h0.484l-0.675,1.734l13.666,5.318
	l10.805-27.773L345.299,252.955z M334.684,276.992c-1.264,0-2.292-0.854-2.292-1.916v-1.001l-4.301,0.003v-9.867l4.301,0.043v-2.141
	c0-1.109,1.028-2.012,2.292-2.012h10.628c0.003,0,0.006-0.002,0.009-0.002c0.383,0.007,0.705,0.421,0.705,0.912
	c0,0.495-0.327,0.914-0.714,0.914l-4.237,0.001l-0.183,0.01c-0.53,0.029-0.946,0.468-0.946,0.999c0,0.805,0,0.949-1.342,0.949
	h-3.566c-0.553,0-1,0.447-1,1s0.447,1,1,1h3.566c0.595,0,1.218-0.058,1.767-0.264l-4.424,11.371H334.684z M344.907,274.18
	c-2.585-1.004-3.864-3.916-2.858-6.502s3.917-3.863,6.5-2.859c2.586,1.006,3.866,3.918,2.861,6.502
	C350.404,273.906,347.494,275.186,344.907,274.18z M348.792,267.251c0.959,0.36,1.498,0.81,1.613,1.346
	c0.088,0.398-0.066,1.125-0.462,2.178c-0.462,1.229-0.962,1.913-1.496,2.051c-0.31,0.081-0.853,0.018-1.627-0.189l-0.222,0.591
	l-0.762-0.423l0.154-0.414c-0.243-0.08-0.514-0.175-0.813-0.282l-0.193,0.513l-0.762-0.422l0.155-0.414
	c-0.776-0.357-1.241-0.755-1.397-1.194c-0.189-0.528-0.055-1.404,0.405-2.625c0.353-0.939,0.728-1.51,1.122-1.718
	c0.364-0.188,0.979-0.134,1.849,0.159l0.149,0.051l-0.469,1.249l-0.168-0.063c-0.461-0.174-0.796-0.172-1.005,0.005
	c-0.14,0.12-0.308,0.441-0.506,0.966c-0.265,0.705-0.333,1.171-0.202,1.399c0.081,0.143,0.316,0.309,0.703,0.494l0.85-2.262
	l0.762,0.424l-0.818,2.175l0.096,0.036c0.24,0.091,0.479,0.177,0.715,0.258l0.769-2.046l0.763,0.424l-0.709,1.882
	c0.369,0.1,0.625,0.134,0.771,0.108c0.282-0.051,0.554-0.426,0.816-1.124c0.233-0.621,0.321-1.046,0.263-1.276
	c-0.066-0.247-0.313-0.444-0.744-0.592l-0.297-0.1l0.471-1.25L348.792,267.251z"/>
</svg>
