<?xml version="1.0" encoding="utf-8"?>
<!-- Generator: Adobe Illustrator 16.0.0, SVG Export Plug-In . SVG Version: 6.00 Build 0)  -->
<!DOCTYPE svg PUBLIC "-//W3C//DTD SVG 1.1//EN" "http://www.w3.org/Graphics/SVG/1.1/DTD/svg11.dtd">
<svg version="1.1" id="Layer_1" xmlns="http://www.w3.org/2000/svg" xmlns:xlink="http://www.w3.org/1999/xlink" x="0px" y="0px"
	 width="50px" height="50px" viewBox="-315.5 314.5 50 50" enable-background="new -315.5 314.5 50 50" xml:space="preserve">
<path d="M-278.686,336.502l-0.003-11.625l-23.626,0.006l0.003,11.627L-278.686,336.502z M-290.5,326.711
	c2.198,0,3.981,1.783,3.981,3.98c0.002,2.201-1.781,3.982-3.979,3.984c-2.2,0-3.982-1.781-3.983-3.982
	C-294.483,328.496-292.7,326.711-290.5,326.711z M-301.814,344.693h-1v-3.059H-291v-4.441h1v4.441h11.814v3.059h-1v-2.059H-290
	v2.059h-1v-2.059h-10.814V344.693z M-278.521,345.555c-2.369,0-4.286,1.92-4.286,4.285c0,2.369,1.917,4.283,4.286,4.283
	c2.363,0,4.284-1.92,4.28-4.285C-274.24,347.473-276.157,345.555-278.521,345.555z M-276.583,349.088l-0.006,0.664l-1.002-0.01
	l-0.352,0.572l1.35,0.014l-0.007,0.664l-1.513-0.012l-0.011,1.494l-0.902-0.01l0.013-1.494l-1.439-0.014l0.005-0.664l1.287,0.012
	l-0.328-0.58l-0.954-0.008l0.006-0.664l0.596,0.006l-0.749-1.354l1.022,0.01l1.01,2.021h0.027l1.071-2.002l1.054,0.008l-0.805,1.34
	L-276.583,349.088z M-290.5,345.555c-2.369,0-4.287,1.92-4.287,4.285c0.007,2.369,1.921,4.283,4.287,4.283
	c2.369,0,4.287-1.92,4.287-4.285S-288.138,345.555-290.5,345.555z M-288.385,349.088l-0.006,0.664l-1.002-0.01l-0.352,0.572
	l1.35,0.014l-0.007,0.664l-1.513-0.012l-0.011,1.494l-0.902-0.01l0.013-1.494l-1.439-0.014l0.005-0.664l1.287,0.012l-0.328-0.58
	l-0.954-0.008l0.006-0.664l0.596,0.006l-0.749-1.354l1.022,0.01l1.01,2.021h0.027l1.071-2.002l1.054,0.008l-0.805,1.34
	L-288.385,349.088z M-302.477,345.555c-2.366,0-4.283,1.92-4.283,4.285c0,2.369,1.917,4.283,4.283,4.283s4.287-1.92,4.283-4.285
	C-298.193,347.473-300.11,345.555-302.477,345.555z M-300.622,349.088l-0.006,0.664l-1.002-0.01l-0.352,0.572l1.35,0.014
	l-0.007,0.664l-1.513-0.012l-0.011,1.494l-0.902-0.01l0.013-1.494l-1.439-0.014l0.005-0.664l1.287,0.012l-0.328-0.58l-0.954-0.008
	l0.006-0.664l0.596,0.006l-0.749-1.354l1.022,0.01l1.01,2.021h0.027l1.071-2.002l1.054,0.008l-0.805,1.34L-300.622,349.088z
	 M-291.72,331.302l-0.567-0.006l0.008-0.645l0.567,0.006l0.008-0.678l0.004-0.197l0.054-0.545c0.116-0.561,0.646-0.834,1.592-0.822
	c0.648,0.008,1.084,0.1,1.31,0.277c0.222,0.178,0.33,0.521,0.324,1.025l-0.006,0.229l-0.877-0.012l-0.002-0.098
	c0.003-0.277-0.04-0.459-0.123-0.539c-0.087-0.084-0.279-0.125-0.577-0.129c-0.339-0.004-0.56,0.039-0.66,0.131
	c-0.103,0.094-0.155,0.297-0.158,0.607l-0.009,0.76l1.253,0.014l-0.008,0.648l-1.254-0.016l-0.002,0.152l0.001,0.242l-0.052,0.33
	c-0.04,0.109-0.137,0.211-0.288,0.303l0.002,0.025l2.767,0.016l-0.008,0.729l-3.759-0.043l0.01-0.713
	c0.294-0.033,0.442-0.283,0.446-0.754L-291.72,331.302z"/>
</svg>
