<?xml version="1.0" encoding="utf-8"?>
<!-- Generator: Adobe Illustrator 16.0.0, SVG Export Plug-In . SVG Version: 6.00 Build 0)  -->
<!DOCTYPE svg PUBLIC "-//W3C//DTD SVG 1.1//EN" "http://www.w3.org/Graphics/SVG/1.1/DTD/svg11.dtd">
<svg version="1.1" id="Layer_1" xmlns="http://www.w3.org/2000/svg" xmlns:xlink="http://www.w3.org/1999/xlink" x="0px" y="0px"
	 width="50px" height="50px" viewBox="-245.5 314.5 50 50" enable-background="new -245.5 314.5 50 50" xml:space="preserve">
<path d="M-208.686,336.502l-0.003-11.625l-23.626,0.006l0.003,11.627L-208.686,336.502z M-220.5,326.711
	c2.198,0,3.981,1.783,3.981,3.98c0.002,2.201-1.781,3.982-3.979,3.984c-2.2,0-3.982-1.781-3.983-3.982
	C-224.483,328.496-222.7,326.711-220.5,326.711z M-220.895,333.223l0.157,0.002v0.553h0.562v-0.553l0.171-0.004
	c0.589,0,1.001-0.105,1.241-0.314c0.234-0.209,0.352-0.576,0.352-1.098c0-0.484-0.11-0.816-0.324-0.998
	c-0.214-0.184-0.636-0.287-1.255-0.322l-0.185-0.006v-1.238l0.128,0.004c0.462,0,0.689,0.18,0.689,0.547v0.09h0.806v-0.111
	c0-0.488-0.113-0.818-0.341-0.996c-0.234-0.18-0.659-0.27-1.282-0.268v-0.48l-0.562,0.002l-0.004,0.48
	c-0.648,0-1.098,0.094-1.338,0.279c-0.241,0.186-0.358,0.529-0.358,1.037c0,0.52,0.117,0.875,0.358,1.064
	c0.24,0.189,0.689,0.283,1.342,0.283v1.336l-0.121-0.004c-0.338,0.002-0.555-0.043-0.648-0.131
	c-0.104-0.088-0.147-0.283-0.147-0.586v-0.088h-0.833l-0.004,0.17c0,0.496,0.117,0.846,0.358,1.047
	C-221.896,333.123-221.483,333.223-220.895,333.223z M-220.176,331.209c0.379,0,0.626,0.037,0.747,0.115
	c0.116,0.082,0.174,0.248,0.174,0.498c0,0.461-0.268,0.689-0.804,0.689h-0.117V331.209z M-220.858,330.447
	c-0.491,0-0.742-0.205-0.739-0.613c0-0.393,0.241-0.586,0.739-0.586l0.121-0.004v1.209
	C-220.814,330.449-220.854,330.443-220.858,330.447z M-231.814,344.693h-1v-3.059H-221v-4.441h1v4.441h11.814v3.059h-1v-2.059H-220
	v2.059h-1v-2.059h-10.814V344.693z M-220.5,345.555c-2.369,0-4.287,1.92-4.287,4.285c0.007,2.369,1.921,4.283,4.287,4.283
	c2.369,0,4.287-1.92,4.287-4.285S-218.138,345.555-220.5,345.555z M-218.762,352.223l-3.759-0.043l0.01-0.713
	c0.294-0.033,0.442-0.283,0.446-0.754l0.005-0.299l-0.567-0.006l0.008-0.645l0.567,0.006l0.008-0.678l0.004-0.197l0.054-0.545
	c0.116-0.561,0.646-0.834,1.592-0.822c0.648,0.008,1.084,0.1,1.31,0.277c0.222,0.178,0.33,0.521,0.324,1.025l-0.006,0.229
	l-0.877-0.012l-0.002-0.098c0.003-0.277-0.04-0.459-0.123-0.539c-0.087-0.084-0.279-0.125-0.577-0.129
	c-0.339-0.004-0.56,0.039-0.66,0.131c-0.103,0.094-0.155,0.297-0.158,0.607l-0.009,0.76l1.253,0.014l-0.008,0.648l-1.254-0.016
	l-0.002,0.152l0.001,0.242l-0.052,0.33c-0.04,0.109-0.137,0.211-0.288,0.303l0.002,0.025l2.767,0.016L-218.762,352.223z
	 M-208.521,345.555c-2.369,0-4.286,1.92-4.286,4.285c0,2.369,1.917,4.283,4.286,4.283c2.363,0,4.284-1.92,4.28-4.285
	C-204.24,347.473-206.157,345.555-208.521,345.555z M-206.545,352.223l-3.759-0.043l0.01-0.713c0.294-0.033,0.442-0.283,0.446-0.754
	l0.005-0.299l-0.567-0.006l0.008-0.645l0.567,0.006l0.008-0.678l0.004-0.197l0.054-0.545c0.116-0.561,0.646-0.834,1.592-0.822
	c0.648,0.008,1.084,0.1,1.31,0.277c0.222,0.178,0.33,0.521,0.324,1.025l-0.006,0.229l-0.877-0.012l-0.002-0.098
	c0.003-0.277-0.04-0.459-0.123-0.539c-0.087-0.084-0.279-0.125-0.577-0.129c-0.339-0.004-0.56,0.039-0.66,0.131
	c-0.103,0.094-0.155,0.297-0.158,0.607l-0.009,0.76l1.253,0.014l-0.008,0.648l-1.254-0.016l-0.002,0.152l0.001,0.242l-0.052,0.33
	c-0.04,0.109-0.137,0.211-0.288,0.303l0.002,0.025l2.767,0.016L-206.545,352.223z M-232.477,345.555
	c-2.366,0-4.283,1.92-4.283,4.285c0,2.369,1.917,4.283,4.283,4.283s4.287-1.92,4.283-4.285
	C-228.193,347.473-230.11,345.555-232.477,345.555z M-230.923,352.223l-3.759-0.043l0.01-0.713c0.294-0.033,0.442-0.283,0.446-0.754
	l0.005-0.299l-0.567-0.006l0.008-0.645l0.567,0.006l0.008-0.678l0.004-0.197l0.054-0.545c0.116-0.561,0.646-0.834,1.592-0.822
	c0.648,0.008,1.084,0.1,1.31,0.277c0.222,0.178,0.33,0.521,0.324,1.025l-0.006,0.229l-0.877-0.012l-0.002-0.098
	c0.003-0.277-0.04-0.459-0.123-0.539c-0.087-0.084-0.279-0.125-0.577-0.129c-0.339-0.004-0.56,0.039-0.66,0.131
	c-0.103,0.094-0.155,0.297-0.158,0.607l-0.009,0.76l1.253,0.014l-0.008,0.648l-1.254-0.016l-0.002,0.152l0.001,0.242l-0.052,0.33
	c-0.04,0.109-0.137,0.211-0.288,0.303l0.002,0.025l2.767,0.016L-230.923,352.223z"/>
</svg>
