<?xml version="1.0" encoding="utf-8"?>
<!-- Generator: Adobe Illustrator 16.0.0, SVG Export Plug-In . SVG Version: 6.00 Build 0)  -->
<!DOCTYPE svg PUBLIC "-//W3C//DTD SVG 1.1//EN" "http://www.w3.org/Graphics/SVG/1.1/DTD/svg11.dtd">
<svg version="1.1" id="Layer_1" xmlns="http://www.w3.org/2000/svg" xmlns:xlink="http://www.w3.org/1999/xlink" x="0px" y="0px"
	 width="50px" height="50px" viewBox="-175.5 314.5 50 50" enable-background="new -175.5 314.5 50 50" xml:space="preserve">
<path d="M-156.74,353.474l-0.173-0.01l0.022-1.152l0.122,0.003c0.427,0.008,0.637,0.183,0.63,0.524l0.001,0.083l0.753,0.015
	l0.002-0.106c0.009-0.451-0.093-0.764-0.304-0.934c-0.211-0.171-0.607-0.261-1.19-0.271l0.009-0.448l-0.525-0.011l-0.009,0.448
	c-0.609-0.012-1.028,0.066-1.257,0.236c-0.229,0.169-0.348,0.49-0.357,0.961c-0.009,0.486,0.098,0.82,0.317,1.002
	c0.221,0.181,0.637,0.277,1.249,0.29l-0.024,1.247l-0.114-0.004c-0.314-0.007-0.516-0.052-0.604-0.137
	c-0.089-0.083-0.131-0.268-0.125-0.552l0.001-0.079l-0.777-0.015l-0.006,0.157c-0.01,0.465,0.096,0.793,0.315,0.985
	c0.219,0.191,0.604,0.293,1.15,0.304l0.147,0.006l-0.01,0.516l0.524,0.011l0.011-0.516l0.159-0.001
	c0.551,0.011,0.938-0.08,1.163-0.271c0.225-0.192,0.342-0.53,0.351-1.018c0.009-0.452-0.086-0.766-0.285-0.938
	C-155.773,353.625-156.162,353.517-156.74,353.474z M-157.437,353.428c-0.073-0.006-0.111-0.008-0.115-0.008
	c-0.459-0.009-0.685-0.204-0.677-0.586c0.007-0.365,0.24-0.543,0.701-0.534l0.112-0.001L-157.437,353.428z M-156.838,355.363
	l-0.111-0.002l0.023-1.219c0.352,0.007,0.583,0.049,0.692,0.125c0.109,0.077,0.162,0.232,0.157,0.468
	C-156.084,355.163-156.339,355.373-156.838,355.363z M-152.638,344.254h-9.08v3.531h-4.654v11.451h18.388v-11.451h-4.653V344.254z
	 M-159.718,346.254h5.08v1.531h-5.08V346.254z M-157.178,357.936c-2.337,0-4.231-1.896-4.231-4.231c0-2.338,1.895-4.23,4.231-4.23
	c2.336,0,4.23,1.893,4.23,4.23C-152.947,356.04-154.842,357.936-157.178,357.936z M-134.628,328.132v16.618h-2.647v14.706h-4.265
	v-10.294h-1.176v10.294h-4.266V344.75h-2.646v-16.618h4.157l3.343,8.997l3.343-8.997H-134.628z M-146.461,323.877
	c0-2.394,1.94-4.333,4.333-4.333s4.333,1.939,4.333,4.333s-1.94,4.333-4.333,4.333S-146.461,326.271-146.461,323.877z"/>
</svg>
