<?xml version="1.0" encoding="utf-8"?>
<!-- Generator: Adobe Illustrator 16.0.0, SVG Export Plug-In . SVG Version: 6.00 Build 0)  -->
<!DOCTYPE svg PUBLIC "-//W3C//DTD SVG 1.1//EN" "http://www.w3.org/Graphics/SVG/1.1/DTD/svg11.dtd">
<svg version="1.1" id="Layer_1" xmlns="http://www.w3.org/2000/svg" xmlns:xlink="http://www.w3.org/1999/xlink" x="0px" y="0px"
	 width="50px" height="50px" viewBox="-105.5 314.5 50 50" enable-background="new -105.5 314.5 50 50" xml:space="preserve">
<path d="M-82.206,348.328h5.375l-5.375,4.125v-3.124l-15.693,0.01l-0.003-9.667h1l0.003,8.667L-82.206,348.328L-82.206,348.328z
	 M-63.104,329.666l-13.759,0.006v-3.125l-5.375,4.125h1.75v0.001l2.341-0.001h1.284v-0.001l12.759-0.005l0.006,8.381h1
	L-63.104,329.666z M-65.603,332.166l0.004,14.663l-29.802,0.009l-0.002-14.665L-65.603,332.166z M-75.479,339.499
	c-0.002-2.771-2.248-5.02-5.023-5.02c-2.773,0.001-5.023,2.25-5.021,5.023c0.002,2.775,2.25,5.022,5.024,5.021
	C-77.727,344.523-75.478,342.274-75.479,339.499z M-77.772,336.625h-1.466l-1.465,2.801h-0.039l-1.427-2.801h-1.422l1.055,1.871
	h-0.827v0.925h1.325l0.465,0.802h-1.79v0.925h2.002v2.079h1.253v-2.079h2.104v-0.925h-1.877l0.483-0.802h1.394v-0.925h-0.871
	L-77.772,336.625z"/>
</svg>
