<?xml version="1.0" encoding="utf-8"?>
<!-- Generator: Adobe Illustrator 16.0.0, SVG Export Plug-In . SVG Version: 6.00 Build 0)  -->
<!DOCTYPE svg PUBLIC "-//W3C//DTD SVG 1.1//EN" "http://www.w3.org/Graphics/SVG/1.1/DTD/svg11.dtd">
<svg version="1.1" id="Layer_1" xmlns="http://www.w3.org/2000/svg" xmlns:xlink="http://www.w3.org/1999/xlink" x="0px" y="0px"
	 width="50px" height="50px" viewBox="-35.5 314.5 50 50" enable-background="new -35.5 314.5 50 50" xml:space="preserve">
<path d="M-12.206,348.328h5.375l-5.375,4.125v-3.124l-15.693,0.01l-0.003-9.667h1l0.003,8.667L-12.206,348.328L-12.206,348.328z
	 M6.896,329.666l-13.759,0.006v-3.125l-5.375,4.125h1.75v0.001l2.341-0.001h1.284v-0.001l12.759-0.005l0.006,8.381h1L6.896,329.666z
	 M4.397,332.166l0.004,14.663l-29.802,0.009l-0.002-14.665L4.397,332.166z M-5.479,339.499c-0.002-2.771-2.248-5.02-5.023-5.02
	c-2.773,0.001-5.023,2.25-5.021,5.023c0.002,2.775,2.25,5.022,5.024,5.021C-7.727,344.523-5.478,342.274-5.479,339.499z
	 M-11.5,339.271v-1.146c0-0.472,0.076-0.778,0.228-0.921c0.152-0.141,0.484-0.212,0.997-0.212c0.451,0,0.742,0.062,0.874,0.185
	c0.132,0.122,0.197,0.395,0.197,0.814l0.005,0.148h1.327l0.005-0.344c0-0.765-0.171-1.279-0.513-1.544
	c-0.342-0.266-1.002-0.397-1.982-0.397c-1.431,0-2.229,0.424-2.392,1.271l-0.072,0.825v0.297v1.024h-0.86v0.979h0.86v0.451
	c0,0.711-0.222,1.093-0.666,1.147v1.076h5.681v-1.102l-4.185,0.025v-0.036c0.229-0.144,0.372-0.298,0.43-0.466l0.072-0.496
	l-0.005-0.37v-0.23h1.896v-0.979H-11.5z"/>
</svg>
