<?xml version="1.0" encoding="utf-8"?>
<!-- Generator: Adobe Illustrator 16.0.0, SVG Export Plug-In . SVG Version: 6.00 Build 0)  -->
<!DOCTYPE svg PUBLIC "-//W3C//DTD SVG 1.1//EN" "http://www.w3.org/Graphics/SVG/1.1/DTD/svg11.dtd">
<svg version="1.1" id="Layer_1" xmlns="http://www.w3.org/2000/svg" xmlns:xlink="http://www.w3.org/1999/xlink" x="0px" y="0px"
	 width="50px" height="50px" viewBox="34.5 314.5 50 50" enable-background="new 34.5 314.5 50 50" xml:space="preserve">
<path d="M57.794,348.328h5.375l-5.375,4.125v-3.124l-15.693,0.01l-0.003-9.667h1l0.003,8.667L57.794,348.328L57.794,348.328z
	 M74.397,332.166l0.004,14.663L44.6,346.838l-0.002-14.665L74.397,332.166z M64.521,339.499c-0.002-2.771-2.248-5.02-5.023-5.02
	c-2.773,0.001-5.023,2.25-5.021,5.023c0.002,2.775,2.25,5.022,5.024,5.021C62.273,344.523,64.522,342.274,64.521,339.499z
	 M76.896,329.666l-13.759,0.006v-3.125l-5.375,4.125h1.75v0.001l2.341-0.001h1.284v-0.001l12.759-0.005l0.006,8.381h1
	L76.896,329.666z M62.341,340.77H61.03l0.011,0.308c0.014,0.447-0.082,0.742-0.286,0.887c-0.192,0.135-0.614,0.202-1.265,0.202
	c-0.733,0-1.171-0.121-1.316-0.363c-0.073-0.124-0.129-0.373-0.165-0.745h1.975l0.125-0.847h-2.146
	c-0.007-0.245-0.01-0.493-0.01-0.745v-0.101h2.282l0.125-0.847h-2.372c0.037-0.42,0.107-0.692,0.212-0.816
	c0.164-0.198,0.615-0.298,1.354-0.298c0.551,0,0.905,0.045,1.063,0.132c0.234,0.131,0.353,0.438,0.353,0.922v0.176h1.31
	l-0.005-0.156c-0.03-0.899-0.194-1.484-0.494-1.752c-0.326-0.293-0.98-0.439-1.965-0.439c-1.282,0-2.134,0.18-2.553,0.535
	c-0.351,0.295-0.555,0.86-0.615,1.697h-0.435l-0.125,0.847h0.539c0.003,0.313,0.01,0.594,0.021,0.846h-0.435l-0.125,0.847h0.62
	c0.076,0.782,0.206,1.303,0.388,1.562c0.312,0.442,1.113,0.665,2.402,0.665c1.105,0,1.825-0.109,2.162-0.327
	c0.453-0.292,0.68-0.942,0.68-1.949V340.77z"/>
</svg>
