<?xml version="1.0" encoding="utf-8"?>
<!-- Generator: Adobe Illustrator 16.0.0, SVG Export Plug-In . SVG Version: 6.00 Build 0)  -->
<!DOCTYPE svg PUBLIC "-//W3C//DTD SVG 1.1//EN" "http://www.w3.org/Graphics/SVG/1.1/DTD/svg11.dtd">
<svg version="1.1" id="Layer_1" xmlns="http://www.w3.org/2000/svg" xmlns:xlink="http://www.w3.org/1999/xlink" x="0px" y="0px"
	 width="50px" height="50px" viewBox="104.5 314.5 50 50" enable-background="new 104.5 314.5 50 50" xml:space="preserve">
<path d="M137.77,327.813l-7.81-2.379l-0.46-0.14l-0.46,0.14l-7.81,2.379l-8.73-2.66v26.036l8.27,2.518l0.461,0.14l0.46-0.14
	l7.81-2.379l7.81,2.379l0.46,0.14l0.461-0.14l8.27-2.518v-26.036L137.77,327.813z M129.5,349.212c0,0-7.205-4.699-7.205-11.905
	c0-3.979,3.226-7.205,7.205-7.205s7.205,3.226,7.205,7.205C136.705,343.729,129.5,349.212,129.5,349.212z M130.783,337.623
	c0.146,0.103,0.219,0.311,0.219,0.624c0,0.577-0.336,0.864-1.008,0.864h-0.146v-1.633
	C130.322,337.479,130.632,337.525,130.783,337.623z M128.992,335.021l0.151-0.005v1.515c-0.097-0.005-0.146-0.013-0.151-0.008
	c-0.615,0-0.93-0.257-0.927-0.768C128.065,335.264,128.368,335.021,128.992,335.021z M129.5,331.582
	c-2.965,0-5.367,2.406-5.367,5.37c0,2.969,2.402,5.367,5.367,5.367s5.372-2.405,5.367-5.369
	C134.867,333.986,132.465,331.582,129.5,331.582z M131.617,339.605c-0.301,0.262-0.817,0.394-1.556,0.394l-0.214,0.005v0.693h-0.704
	v-0.693l-0.196-0.002c-0.738,0-1.255-0.125-1.552-0.38c-0.303-0.252-0.449-0.689-0.449-1.312l0.005-0.213h1.044v0.11
	c0,0.379,0.054,0.624,0.185,0.734c0.117,0.109,0.389,0.166,0.813,0.163l0.151,0.006v-1.675c-0.817,0-1.38-0.117-1.681-0.354
	c-0.303-0.237-0.449-0.683-0.449-1.334c0-0.637,0.146-1.067,0.449-1.3c0.301-0.232,0.863-0.35,1.676-0.35l0.005-0.603l0.704-0.002
	v0.602c0.78-0.002,1.313,0.11,1.606,0.336c0.285,0.223,0.428,0.636,0.428,1.248v0.14h-1.01v-0.113c0-0.46-0.285-0.685-0.864-0.685
	l-0.16-0.005v1.552l0.231,0.007c0.775,0.044,1.304,0.174,1.572,0.404c0.268,0.228,0.406,0.644,0.406,1.25
	C132.058,338.883,131.911,339.344,131.617,339.605z"/>
</svg>
