<?xml version="1.0" encoding="utf-8"?>
<!-- Generator: Adobe Illustrator 16.0.0, SVG Export Plug-In . SVG Version: 6.00 Build 0)  -->
<!DOCTYPE svg PUBLIC "-//W3C//DTD SVG 1.1//EN" "http://www.w3.org/Graphics/SVG/1.1/DTD/svg11.dtd">
<svg version="1.1" id="Layer_1" xmlns="http://www.w3.org/2000/svg" xmlns:xlink="http://www.w3.org/1999/xlink" x="0px" y="0px"
	 width="50px" height="50px" viewBox="174.5 314.5 50 50" enable-background="new 174.5 314.5 50 50" xml:space="preserve">
<path d="M200.42,330.681l-0.008,0.648l-1.254-0.016l-0.002,0.152l0.001,0.242l-0.052,0.33c-0.04,0.109-0.137,0.211-0.288,0.303
	l0.002,0.025l2.767,0.016l-0.008,0.729l-3.759-0.043l0.01-0.713c0.294-0.033,0.442-0.283,0.446-0.754l0.005-0.299l-0.567-0.006
	l0.008-0.645l0.567,0.006l0.008-0.678l0.004-0.197l0.054-0.545c0.116-0.561,0.646-0.834,1.592-0.822
	c0.648,0.008,1.084,0.1,1.31,0.277c0.222,0.178,0.33,0.521,0.324,1.025l-0.006,0.229l-0.877-0.012l-0.002-0.098
	c0.003-0.277-0.04-0.459-0.123-0.539c-0.087-0.084-0.279-0.125-0.577-0.129c-0.339-0.004-0.56,0.039-0.66,0.131
	c-0.103,0.094-0.155,0.297-0.158,0.607l-0.009,0.76L200.42,330.681z M198.164,348.885c-0.003,0.408,0.248,0.613,0.739,0.613
	c0.004-0.004,0.044,0.002,0.121,0.006v-1.209l-0.121,0.004C198.405,348.299,198.164,348.492,198.164,348.885z M187.801,350.26v1.303
	h0.117c0.536,0,0.804-0.229,0.804-0.689c0-0.25-0.058-0.416-0.174-0.498C188.427,350.297,188.18,350.26,187.801,350.26z
	 M211.314,336.502l-0.003-11.625l-23.626,0.006l0.003,11.627L211.314,336.502z M199.5,326.711c2.198,0,3.981,1.783,3.981,3.98
	c0.002,2.201-1.781,3.982-3.979,3.984c-2.2,0-3.982-1.781-3.983-3.982C195.517,328.496,197.3,326.711,199.5,326.711z
	 M199.586,350.26v1.303h0.117c0.536,0,0.804-0.229,0.804-0.689c0-0.25-0.058-0.416-0.174-0.498
	C200.212,350.297,199.965,350.26,199.586,350.26z M186.379,348.885c-0.003,0.408,0.248,0.613,0.739,0.613
	c0.004-0.004,0.044,0.002,0.121,0.006v-1.209l-0.121,0.004C186.62,348.299,186.379,348.492,186.379,348.885z M188.186,342.635H199
	v2.059h1v-2.059h10.814v2.059h1v-3.059H200v-4.441h-1v4.441h-11.814v3.059h1V342.635z M187.523,345.555
	c-2.366,0-4.283,1.92-4.283,4.285c0,2.369,1.917,4.283,4.283,4.283s4.287-1.92,4.283-4.285
	C191.807,347.473,189.89,345.555,187.523,345.555z M189.213,351.957c-0.24,0.209-0.652,0.314-1.241,0.314l-0.171,0.004v0.553h-0.562
	v-0.553l-0.157-0.002c-0.589,0-1.001-0.1-1.238-0.303c-0.241-0.201-0.358-0.551-0.358-1.047l0.004-0.17h0.833v0.088
	c0,0.303,0.043,0.498,0.147,0.586c0.094,0.088,0.311,0.133,0.648,0.131l0.121,0.004v-1.336c-0.652,0-1.102-0.094-1.342-0.283
	c-0.241-0.189-0.358-0.545-0.358-1.064c0-0.508,0.117-0.852,0.358-1.037c0.24-0.186,0.689-0.279,1.338-0.279l0.004-0.48l0.562-0.002
	v0.48c0.623-0.002,1.048,0.088,1.282,0.268c0.228,0.178,0.341,0.508,0.341,0.996v0.111h-0.806v-0.09
	c0-0.367-0.228-0.547-0.689-0.547l-0.128-0.004v1.238l0.185,0.006c0.619,0.035,1.041,0.139,1.255,0.322
	c0.214,0.182,0.324,0.514,0.324,0.998C189.564,351.381,189.447,351.748,189.213,351.957z M210.394,348.885
	c-0.003,0.408,0.248,0.613,0.739,0.613c0.004-0.004,0.044,0.002,0.121,0.006v-1.209l-0.121,0.004
	C210.635,348.299,210.394,348.492,210.394,348.885z M211.815,350.26v1.303h0.117c0.536,0,0.804-0.229,0.804-0.689
	c0-0.25-0.058-0.416-0.174-0.498C212.441,350.297,212.194,350.26,211.815,350.26z M211.479,345.555c-2.369,0-4.286,1.92-4.286,4.285
	c0,2.369,1.917,4.283,4.286,4.283c2.363,0,4.284-1.92,4.28-4.285C215.76,347.473,213.843,345.555,211.479,345.555z M213.228,351.957
	c-0.24,0.209-0.652,0.314-1.241,0.314l-0.171,0.004v0.553h-0.562v-0.553l-0.157-0.002c-0.589,0-1.001-0.1-1.238-0.303
	c-0.241-0.201-0.358-0.551-0.358-1.047l0.004-0.17h0.833v0.088c0,0.303,0.043,0.498,0.147,0.586
	c0.094,0.088,0.311,0.133,0.648,0.131l0.121,0.004v-1.336c-0.652,0-1.102-0.094-1.342-0.283c-0.241-0.189-0.358-0.545-0.358-1.064
	c0-0.508,0.117-0.852,0.358-1.037c0.24-0.186,0.689-0.279,1.338-0.279l0.004-0.48l0.562-0.002v0.48
	c0.623-0.002,1.048,0.088,1.282,0.268c0.228,0.178,0.341,0.508,0.341,0.996v0.111h-0.806v-0.09c0-0.367-0.228-0.547-0.689-0.547
	l-0.128-0.004v1.238l0.185,0.006c0.619,0.035,1.041,0.139,1.255,0.322c0.214,0.182,0.324,0.514,0.324,0.998
	C213.579,351.381,213.462,351.748,213.228,351.957z M199.5,345.555c-2.369,0-4.287,1.92-4.287,4.285
	c0.007,2.369,1.921,4.283,4.287,4.283c2.369,0,4.287-1.92,4.287-4.285S201.862,345.555,199.5,345.555z M200.998,351.957
	c-0.24,0.209-0.652,0.314-1.241,0.314l-0.171,0.004v0.553h-0.562v-0.553l-0.157-0.002c-0.589,0-1.001-0.1-1.238-0.303
	c-0.241-0.201-0.358-0.551-0.358-1.047l0.004-0.17h0.833v0.088c0,0.303,0.043,0.498,0.147,0.586
	c0.094,0.088,0.311,0.133,0.648,0.131l0.121,0.004v-1.336c-0.652,0-1.102-0.094-1.342-0.283c-0.241-0.189-0.358-0.545-0.358-1.064
	c0-0.508,0.117-0.852,0.358-1.037c0.24-0.186,0.689-0.279,1.338-0.279l0.004-0.48l0.562-0.002v0.48
	c0.623-0.002,1.048,0.088,1.282,0.268c0.228,0.178,0.341,0.508,0.341,0.996v0.111h-0.806v-0.09c0-0.367-0.228-0.547-0.689-0.547
	l-0.128-0.004v1.238l0.185,0.006c0.619,0.035,1.041,0.139,1.255,0.322c0.214,0.182,0.324,0.514,0.324,0.998
	C201.35,351.381,201.232,351.748,200.998,351.957z"/>
</svg>
