<?xml version="1.0" encoding="utf-8"?>
<!-- Generator: Adobe Illustrator 16.0.0, SVG Export Plug-In . SVG Version: 6.00 Build 0)  -->
<!DOCTYPE svg PUBLIC "-//W3C//DTD SVG 1.1//EN" "http://www.w3.org/Graphics/SVG/1.1/DTD/svg11.dtd">
<svg version="1.1" id="Layer_1" xmlns="http://www.w3.org/2000/svg" xmlns:xlink="http://www.w3.org/1999/xlink" x="0px" y="0px"
	 width="50px" height="50px" viewBox="244.5 314.5 50 50" enable-background="new 244.5 314.5 50 50" xml:space="preserve">
<path d="M277.431,340.042l0.221,0.009l-0.018,0.771l0.786,0.016l0.018-0.771l0.238,0.002c0.824,0.018,1.404-0.115,1.74-0.403
	c0.338-0.283,0.513-0.792,0.53-1.522c0.017-0.675-0.127-1.142-0.422-1.404c-0.298-0.261-0.88-0.421-1.745-0.49l-0.258-0.015
	l0.043-1.725l0.18,0.004c0.64,0.015,0.953,0.278,0.939,0.789l0.001,0.123l1.124,0.027l0.007-0.158
	c0.014-0.68-0.135-1.146-0.45-1.401c-0.316-0.257-0.907-0.396-1.779-0.413l0.016-0.671l-0.785-0.015l-0.017,0.669
	c-0.912-0.021-1.54,0.096-1.884,0.351c-0.341,0.25-0.519,0.73-0.536,1.434c-0.016,0.73,0.141,1.229,0.467,1.503
	c0.331,0.272,0.955,0.419,1.87,0.438l-0.043,1.869l-0.172-0.01c-0.47-0.01-0.77-0.079-0.902-0.204
	c-0.133-0.129-0.195-0.403-0.186-0.825l0.003-0.121l-1.163-0.025l-0.011,0.237c-0.013,0.692,0.141,1.185,0.468,1.475
	C276.039,339.868,276.611,340.022,277.431,340.042z M278.5,337.25c0.526,0.009,0.873,0.071,1.035,0.189
	c0.165,0.115,0.24,0.348,0.231,0.697c-0.013,0.644-0.394,0.958-1.141,0.94l-0.169-0.007L278.5,337.25z M277.566,336.165
	c-0.686-0.014-1.025-0.311-1.01-0.879c0.013-0.548,0.361-0.812,1.053-0.797l0.168-0.004l-0.038,1.691
	C277.631,336.169,277.574,336.163,277.566,336.165z M288.967,343.538h-0.908v-15.116h-19.386v3.285h-8.53l-3.79,6.543h-5.721v5.288
	h-0.599v2h0.599v2.288h3.374c0.441,1.581,1.88,2.752,3.602,2.752c1.72,0,3.158-1.171,3.6-2.752h15.602
	c0.441,1.581,1.88,2.752,3.6,2.752c1.722,0,3.161-1.171,3.603-2.752h4.048v-2.288h0.908V343.538z M286.059,345.826h-2.049
	c-0.441-1.58-1.88-2.75-3.602-2.75c-1.72,0-3.158,1.17-3.6,2.75h-15.602c-0.441-1.58-1.88-2.75-3.6-2.75
	c-1.722,0-3.16,1.17-3.602,2.75h-1.374v-5.576h4.873l3.79-6.543h5.824v6.518l3.552,0.035l0.002-9.838h15.386V345.826z
	 M261.852,334.669h4.389v5.097h-7.342L261.852,334.669z"/>
</svg>
